<?xml version="1.0" encoding="utf-8"?>
<!-- Generator: Adobe Illustrator 17.1.0, SVG Export Plug-In . SVG Version: 6.00 Build 0)  -->
<!DOCTYPE svg PUBLIC "-//W3C//DTD SVG 1.1//EN" "http://www.w3.org/Graphics/SVG/1.1/DTD/svg11.dtd">
<svg version="1.1" id="Слой_1" xmlns="http://www.w3.org/2000/svg" xmlns:xlink="http://www.w3.org/1999/xlink" x="0px" y="0px"
	 viewBox="0 0 39.1 39.1" enable-background="new 0 0 39.1 39.1" xml:space="preserve">
<g>
	<path fill="#FF7600" d="M22.6,9.1h-2.9c-0.3,0-0.5,0.2-0.5,0.5s0.2,0.5,0.5,0.5h2.9c0.3,0,0.5-0.2,0.5-0.5S22.9,9.1,22.6,9.1z"/>
	<path fill="#FF7600" d="M20.9,12.6c0,0.3,0.2,0.5,0.5,0.5h8.3c0.3,0,0.5-0.2,0.5-0.5s-0.2-0.5-0.5-0.5h-8.3
		C21.1,12.1,20.9,12.3,20.9,12.6z"/>
	<path fill="#FF7600" d="M18.5,14.6c0,0.3,0.2,0.5,0.5,0.5h9.4c0.3,0,0.5-0.2,0.5-0.5s-0.2-0.5-0.5-0.5H19
		C18.8,14.1,18.5,14.3,18.5,14.6z"/>
	<path fill="#FF7600" d="M19,18.1h10.6c0.3,0,0.5-0.2,0.5-0.5s-0.2-0.5-0.5-0.5H19c-0.3,0-0.5,0.2-0.5,0.5S18.8,18.1,19,18.1z"/>
	<path fill="#FF7600" d="M19,20.1h8.8c0.3,0,0.5-0.2,0.5-0.5s-0.2-0.5-0.5-0.5H19c-0.3,0-0.5,0.2-0.5,0.5S18.8,20.1,19,20.1z"/>
	<path fill="#FF7600" d="M18,22.6c0,0.3,0.2,0.5,0.5,0.5h10c0.3,0,0.5-0.2,0.5-0.5s-0.2-0.5-0.5-0.5h-10C18.2,22.1,18,22.3,18,22.6z
		"/>
	<path fill="#FF7600" d="M16.4,3.1c0,0-0.7-0.2-1,0.1c-0.8,0.8-0.7,2.3-0.7,2.5c0,0.1,0.1,12.4-1.4,20.4H6.1c-0.6,0-1,0.1-1.4,0.5
		C3.9,27.4,4,29,4,30.7c0.1,1.6-0.3,3.5-1.1,4.3c-0.3,0.3-0.9,0.5-1.9,0.5v1.7h19.1c1.9,0,2.7-1.2,3.1-3.2l6.1,0
		c1,0,1.4-0.3,1.9-0.8c3.2-3.3,3.1-18,3-25h2.7V7.5c0-0.6,0.2-3.6-0.8-4.7c-0.2-0.3-1,0-1-0.1L16.7,3.1H16.4z M33.8,4.1
		c-0.4,0-0.5,1-0.5,1.5c0.2,6.5,0.2,23.7-2.8,26.9c-0.3,0.3-0.5,0.3-0.8,0.3c-2.2,0-2.1-0.9-2.2-3c0-1.6,0-3.7-2-3.7H14.3
		c1.5-8,1.5-20.2,1.5-20.4c0-0.4-0.1-1.6,0.3-1.6H33.8z M20.2,36.1H4.3c0.9-1,0.8-3.3,0.8-5.2c-0.1-1.4-0.1-3,0.4-3.5
		c0.1-0.1,0.3-0.3,0.6-0.3h7.7h0.4h9.1c-0.5,1-0.5,2.6-0.6,3.9C22.6,33.9,22.4,36.1,20.2,36.1z M23.6,30.6c0.1-2.5,0.2-3.6,1.3-3.6
		c1.1,0,1.2,0.7,1.3,2.6c0,1.1,0.1,2.5,0.8,3.5h-3.6C23.6,33.1,23.6,31.4,23.6,30.6z M36.2,7.1h-1.9c0-1,0-1.7-0.1-1.8
		c0-0.1,0.2-1.6,1.5-1.4C36.3,4,36.3,6.1,36.2,7.1z"/>
</g>
</svg>
