<?xml version="1.0" encoding="utf-8"?>
<!-- Generator: Adobe Illustrator 17.1.0, SVG Export Plug-In . SVG Version: 6.00 Build 0)  -->
<!DOCTYPE svg PUBLIC "-//W3C//DTD SVG 1.1//EN" "http://www.w3.org/Graphics/SVG/1.1/DTD/svg11.dtd">
<svg version="1.1" id="Слой_1" xmlns="http://www.w3.org/2000/svg" xmlns:xlink="http://www.w3.org/1999/xlink" x="0px" y="0px"
	 viewBox="0 0 39.1 39.1" enable-background="new 0 0 39.1 39.1" xml:space="preserve">
<path fill="#FF7600" d="M26.1,16.1C26.1,16.1,26.1,16.1,26.1,16.1c0.1,0,0.1,0.1,0.2,0.1c0.1,0,0.1,0.1,0.2,0.1c5.8,0,10.5-3.1,10.5-7
	c0-3.9-4.7-7-10.5-7c-5.6,0-9.9,3.1-9.9,7c0,2.6,2.1,4.9,5.6,6.2c-0.3,0.8-0.9,1.4-1.5,1.9c-2.2-1.4-4.6-2.1-7.1-2.1
	c-6.3,0-11.7,4-11.7,8.8s5.4,8.8,11.7,8.8c1.8,0,3.3-0.1,4.7-0.5l8.7,4.6c0.1,0,0.2,0.1,0.2,0.1c0.1,0,0.2,0,0.3-0.1
	c0.2-0.1,0.2-0.4,0.1-0.6l-3.4-8.6c0.8-1.2,1.1-2.3,1.1-3.6c0-1.4-0.5-2.9-1.7-4.3C24.7,19,25.7,18.1,26.1,16.1z M21.4,19.9
	C21.1,20,21,20.3,21,20.5c0.1,0.2,0.3,0.4,0.5,0.4c0,0,0.1,0,0.1,0c0.3-0.1,0.7-0.3,1-0.4c1,1.3,1.5,2.4,1.5,3.7
	c0,1.2-0.3,2.2-1.1,3.2c-0.1,0.1-0.1,0.3-0.1,0.5l3,7.6l-7.6-4.1c-0.1-0.1-0.3-0.1-0.4,0c-1.3,0.5-2.7,0.6-4.6,0.6
	c-5.8,0-10.7-3.6-10.7-7.8s4.9-7.8,10.7-7.8c2.1,0,4.2,0.5,6.1,1.6c-0.4,0.2-0.8,0.3-1.3,0.5c-0.3,0.1-0.4,0.4-0.3,0.6
	c0.1,0.2,0.3,0.3,0.5,0.3c0.1,0,0.1,0,0.2,0c0.8-0.2,1.5-0.5,2.2-1c0,0,0,0,0.1,0c0.9-0.6,1.7-1.4,2.2-2.7c0.1-0.1,0.2-0.2,0.3-0.3
	c0-0.1,0-0.3-0.1-0.4c0-0.1,0.1-0.2,0.1-0.3c0.1-0.3-0.1-0.5-0.4-0.6c-0.3-0.1-0.5,0.1-0.6,0.4c0,0,0,0,0,0.1
	c-3-1.1-4.9-3.1-4.9-5.2c0-3.3,3.9-6,8.9-6c5.2,0,9.5,2.7,9.5,6s-4.4,6-9.5,6c-0.1,0-0.1,0-0.2,0c0-0.3,0.1-0.5,0.1-0.8
	c0-0.3-0.2-0.5-0.5-0.5s-0.5,0.2-0.5,0.5C25.4,17.8,22.8,19.5,21.4,19.9z"/>
</svg>
