<?xml version="1.0" encoding="utf-8"?>
<!-- Generator: Adobe Illustrator 17.1.0, SVG Export Plug-In . SVG Version: 6.00 Build 0)  -->
<!DOCTYPE svg PUBLIC "-//W3C//DTD SVG 1.1//EN" "http://www.w3.org/Graphics/SVG/1.1/DTD/svg11.dtd">
<svg version="1.1" id="Слой_1" xmlns="http://www.w3.org/2000/svg" xmlns:xlink="http://www.w3.org/1999/xlink" x="0px" y="0px"
	 viewBox="0 0 39.1 39.1" enable-background="new 0 0 39.1 39.1" xml:space="preserve">
<path fill="#FF7600" d="M39,4.5c-0.1-0.1-0.2-0.5-0.4-0.5h-2.5V1.5c0-0.2-0.2-0.3-0.4-0.4C35.6,1,35.3,1,35.2,1.1
	c-0.3,0.1-7.5,2.5-8.5,6.4c-0.3,1.3,0.1,2.7,1.2,4l-1.4,1.4c-2.4-2.2-5.6-3.6-9.2-3.6c-7.4,0-13.5,6-13.5,13.5
	c0,3.5,1.4,6.7,3.6,9.2L4,35.4c-0.2,0.2-0.2,0.5,0,0.7c0.1,0.1,0.2,0.1,0.4,0.1s0.3,0,0.4-0.1l3.5-3.5c2.4,2.2,5.6,3.6,9.2,3.6
	c3.5,0,6.7-1.4,9.2-3.6l3.5,3.5c0.1,0.1,0.2,0.1,0.4,0.1s0.3,0,0.4-0.1c0.2-0.2,0.2-0.5,0-0.7l-3.5-3.5c2.2-2.4,3.6-5.6,3.6-9.2
	c0-3.5-1.4-6.7-3.6-9.2l1.4-1.4c1.1,1,2.2,1.5,3.2,1.5c4.4,0,7.1-8.2,7.2-8.6C39.1,5,39.1,4.7,39,4.5z M35.1,4.7c0,0-0.3,0-0.3,0
	l-2.7,2.5V3.4c1-0.5,2-0.9,3-1.1V4.7z M27.6,7.7c0.4-1.5,2.5-2.8,3.5-3.8v4.3l-2.5,2.6C27.6,9.8,27.3,8.7,27.6,7.7z M29.8,22.8
	c0,6.9-5.6,12.5-12.5,12.5S4.9,29.6,4.9,22.8s5.6-12.5,12.5-12.5c3.3,0,6.2,1.3,8.4,3.3l-2.6,2.6c-1.5-1.4-3.6-2.2-5.8-2.2
	c-4.8,0-8.8,3.9-8.8,8.8c0,4.8,3.9,8.8,8.8,8.8c4.8,0,8.8-3.9,8.8-8.8c0-2.2-0.8-4.3-2.2-5.8l2.6-2.6C28.6,16.6,29.8,19.5,29.8,22.8
	z M20.4,22.8c0,1.7-1.4,3-3,3s-3-1.4-3-3c0-1.7,1.4-3,3-3c0.7,0,1.3,0.2,1.8,0.6l-1.4,1.4c-0.1,0-0.2-0.1-0.3-0.1
	c-0.6,0-1.1,0.5-1.1,1.1s0.5,1.1,1.1,1.1s1.1-0.5,1.1-1.1c0-0.1,0-0.2-0.1-0.3l1.4-1.4C20.2,21.5,20.4,22.1,20.4,22.8z M19.8,19.6
	c-0.7-0.5-1.5-0.9-2.5-0.9c-2.2,0-4,1.8-4,4s1.8,4,4,4s4-1.8,4-4c0-0.9-0.3-1.8-0.9-2.5l2.6-2.6c1.2,1.4,1.9,3.2,1.9,5.1
	c0,4.3-3.5,7.8-7.8,7.8S9.6,27,9.6,22.8s3.5-7.8,7.8-7.8c2,0,3.7,0.7,5.1,1.9L19.8,19.6z M31.9,12.4c-0.8,0-1.7-0.3-2.5-1.1l2.4-2.3
	c0.3,0,0.5-0.4,0.5-0.7l3.1-3.3h2.6C37.2,7.1,34.9,12.4,31.9,12.4z"/>
</svg>
