<?xml version="1.0" encoding="utf-8"?>
<!-- Generator: Adobe Illustrator 17.1.0, SVG Export Plug-In . SVG Version: 6.00 Build 0)  -->
<!DOCTYPE svg PUBLIC "-//W3C//DTD SVG 1.1//EN" "http://www.w3.org/Graphics/SVG/1.1/DTD/svg11.dtd">
<svg version="1.1" id="Слой_1" xmlns="http://www.w3.org/2000/svg" xmlns:xlink="http://www.w3.org/1999/xlink" x="0px" y="0px"
	 viewBox="0 0 39.1 39.1" enable-background="new 0 0 39.1 39.1" xml:space="preserve">
<g>
	<path fill="white" d="M27.2,24.1h-26c0,0-0.1-0.3-0.1-0.2V9.1c0,0,0.1,0,0.1,0h31.4c0,0,0.5,0.1,0.5,0V21c0,0.3,0.2,0.5,0.5,0.5s0.5-0.2,0.5-0.5
		V7.6c0-1.3-1.5-2.6-2.7-2.6H2.4c-1.3,0-2.3,1.3-2.3,2.6v18.8c0,1.3,1.1,2.6,2.3,2.6h11l-1,4h-1.1c-0.3,0-0.5,0.2-0.5,0.5
		s0.2,0.5,0.5,0.5h1.6h8.4c0,0,0,0,0,0h1.3c0.3,0,0.5-0.2,0.5-0.5s-0.2-0.5-0.5-0.5h-0.9l-1-4h6.1c0.3,0,0.5-0.2,0.5-0.5
		s-0.2-0.5-0.5-0.5H20h-6H2.4c-0.7,0-1.3-0.9-1.3-1.6v-1.6c0,0,0.1,0.3,0.1,0.3h26c0.3,0,0.5-0.2,0.5-0.5S27.5,24.1,27.2,24.1z
		 M19.6,29.1l1,4h-7.1l1-4H19.6z M2.4,6.1h28.9c0.7,0,1.7,0.8,1.7,1.6v0.5c0,0-0.5-0.1-0.5-0.1H1.2c0,0-0.1,0.1-0.1,0.1V7.6
		C1.1,6.9,1.7,6.1,2.4,6.1z"/>
	<path fill="white" d="M39,32.4l-2.3-2c0.5-0.8,0.9-1.7,0.9-2.7c0-2.6-2.1-4.7-4.7-4.7c-2.6,0-4.7,2.1-4.7,4.7s2.1,4.7,4.7,4.7
		c1.2,0,2.3-0.5,3.2-1.2l2.3,2c0.1,0.1,0.2,0.1,0.3,0.1c0.1,0,0.3-0.1,0.4-0.2C39.2,32.9,39.2,32.6,39,32.4z M32.8,31.4
		c-2,0-3.7-1.7-3.7-3.7s1.7-3.7,3.7-3.7s3.7,1.7,3.7,3.7S34.9,31.4,32.8,31.4z"/>
</g>
</svg>
