<?xml version="1.0" encoding="utf-8"?>
<!-- Generator: Adobe Illustrator 21.0.0, SVG Export Plug-In . SVG Version: 6.00 Build 0)  -->
<svg version="1.1" id="Capa_1" xmlns="http://www.w3.org/2000/svg" xmlns:xlink="http://www.w3.org/1999/xlink" x="0px" y="0px"
	 viewBox="0 0 508 508" style="enable-background:new 0 0 508 508;" xml:space="preserve">
<g>
	<g>
		<g>
			<path d="M0,0v114.7V508h508V114.7V0H0z M491.6,491.6H16.4v-32.8h131.1h8.2h49.7l245.7-245.7c16-16,16-42,0-57.9
				c-7.7-7.7-18-12-29-12c-10.9,0-21.2,4.3-29,12l-29,29l-17.4-17.4l-69.5,69.5l11.6,11.6l57.9-57.9l5.8,5.8l-205,205.1v41.5H16.4
				V114.7h475.2V491.6z M399,242.1L207.8,433.3L173,398.5l191.2-191.2L399,242.1z M375.8,195.7l29-29c9.3-9.3,25.5-9.3,34.8,0
				c9.6,9.6,9.6,25.2,0,34.8l-29,29L375.8,195.7z M193.9,442.5h-30v-30L193.9,442.5z M491.6,98.3H16.4V16.4h475.2V98.3z"/>
			<rect x="41" y="49.2" width="245.8" height="16.4"/>
			<rect x="385.1" y="49.2" width="16.4" height="16.4"/>
			<rect x="417.9" y="49.2" width="16.4" height="16.4"/>
			<rect x="450.6" y="49.2" width="16.4" height="16.4"/>
		</g>
	</g>
</g>
</svg>
