<?xml version="1.0" encoding="utf-8"?>
<!-- Generator: Adobe Illustrator 21.0.0, SVG Export Plug-In . SVG Version: 6.00 Build 0)  -->
<svg version="1.1" id="Слой_1" xmlns="http://www.w3.org/2000/svg" xmlns:xlink="http://www.w3.org/1999/xlink" x="0px" y="0px"
	 viewBox="0 0 119.9 107.3" style="enable-background:new 0 0 119.9 107.3;" xml:space="preserve">
<g>
	<path d="M37.4,64.4h10.1c1.1,0,2-0.9,2-2v-0.6c1.6,0.5,3.3,0.7,5,0.7H75c3.1,0,5.6-2.4,5.7-5.5l0.2-0.1c1.6-1.2,2.5-3,2.6-5
		c0-0.8-0.1-1.7-0.4-2.5c1-1.1,1.6-2.6,1.6-4.1c0-1.2-0.4-2.4-1-3.4c0.7-1.1,1-2.3,1-3.7c0-2.2-1.2-4.3-3.2-5.4
		c-0.9-0.5-1.9-0.7-2.8-0.7l0,0H66.2c0.6-3.5,0.9-7,0.7-10.5v-0.3c-0.1-1.9-0.9-3.8-2.3-5.2c-1.3-1.4-3.3-2-5.1-1.6
		c-0.6,0.1-1.1,0.4-1.6,0.7L56.6,16c-0.6,0.4-1,1-1,1.7v3.9c0,1.8-0.4,3.6-1.1,5.3s-1.7,3.2-3,4.6l-2.3,2.3c-0.3-0.6-1-1-1.7-1H37.4
		c-1.1,0-2,0.9-2,2v27.6C35.4,63.5,36.2,64.4,37.4,64.4z M54.3,34.3c1.7-1.7,3-3.7,3.9-5.9s1.4-4.5,1.4-6.9v-2.7l0.4-0.2
		c0.1-0.1,0.3-0.1,0.5-0.2c0.4-0.1,0.9,0.1,1.3,0.5c0.7,0.7,1.1,1.6,1.1,2.5v0.3c0.1,3.3-0.1,6.6-0.7,9.8l-0.4,2.2
		c-0.1,0.6,0,1.2,0.4,1.6c0.4,0.5,0.9,0.7,1.5,0.7l0,0h14.9l0,0c0.3,0,0.7,0.1,1,0.3c0.7,0.4,1.1,1.1,1.1,1.9s-0.3,1.5-0.9,2.1
		l-0.2,0.2c-0.8,0.8-0.8,2,0,2.8l0.6,0.7c0.3,0.4,0.5,0.8,0.5,1.4c0,0.7-0.3,1.3-0.8,1.7l-0.4,0.3c-0.7,0.5-0.9,1.5-0.6,2.3l0.4,1.1
		c0.1,0.3,0.2,0.7,0.2,1.1c0,0.8-0.4,1.5-1,2l-1,0.7c-0.5,0.4-0.8,1-0.8,1.6v0.6c0,0.9-0.8,1.7-1.7,1.7H54.4c-1.7,0-3.4-0.3-5-0.9
		V39.1L54.3,34.3z M39.4,36.7h6.1v1.6v20.6v1.5h-6.1V36.7z"/>
	<path d="M117.5,0H2.5C1.1,0,0,1.1,0,2.5v73.7c0,1.4,1.1,2.5,2.5,2.5h11.8v26.1c0,1.4,1.1,2.5,2.5,2.5h10.1c1.4,0,2.5-1.1,2.5-2.5
		V78.7h61.1v26.1c0,1.4,1.1,2.5,2.5,2.5h10.1c1.4,0,2.5-1.1,2.5-2.5V78.7h11.8c1.4,0,2.5-1.1,2.5-2.5V2.5C120,1.2,118.9,0,117.5,0z
		 M24.4,102.3h-5.1V78.7h5.1V102.3z M100.7,102.3h-5.1V78.7h5.1V102.3z M115,73.7h-11.8H93.1H26.9H16.8H5V5h110V73.7z"/>
</g>
</svg>
