<?xml version="1.0" encoding="utf-8"?>
<!-- Generator: Adobe Illustrator 21.0.0, SVG Export Plug-In . SVG Version: 6.00 Build 0)  -->
<svg version="1.1" id="Слой_1" xmlns="http://www.w3.org/2000/svg" xmlns:xlink="http://www.w3.org/1999/xlink" x="0px" y="0px"
	 viewBox="0 0 89.2 87.1" style="enable-background:new 0 0 89.2 87.1;" xml:space="preserve">
<path d="M87.4,87.1H74.1c-1,0-1.8-0.8-1.8-1.8V19.6c0-1,0.8-1.8,1.8-1.8h13.3c1,0,1.8,0.8,1.8,1.8v65.8
	C89.2,86.3,88.4,87.1,87.4,87.1z M75.9,83.6h9.8V21.4h-9.8L75.9,83.6z M63.2,87.1H49.9c-1,0-1.8-0.8-1.8-1.8V39.9
	c0-1,0.8-1.8,1.8-1.8h13.3c1,0,1.8,0.8,1.8,1.8v45.5C64.9,86.3,64.2,87.1,63.2,87.1z M51.6,83.6h9.8v-42h-9.8V83.6z M39.3,87.1H26
	c-1,0-1.8-0.8-1.8-1.8V48c0-1,0.8-1.8,1.8-1.8h13.3c1,0,1.8,0.8,1.8,1.8v37.4C41.1,86.3,40.3,87.1,39.3,87.1z M27.8,83.6h9.8V49.7
	h-9.8V83.6z M15.1,87.1H1.8c-1,0-1.8-0.8-1.8-1.8V59.5c0-1,0.8-1.8,1.8-1.8h13.3c1,0,1.8,0.8,1.8,1.8v25.9
	C16.8,86.3,16.1,87.1,15.1,87.1z M3.5,83.6h9.8V61.3H3.5V83.6z M8.4,55.5c-3.2,0-5.7-2.6-5.7-5.7s2.6-5.7,5.7-5.7
	c1.7,0,3.2,0.7,4.3,1.9l13.8-8.1c0-0.2,0-0.4,0-0.7c0-3.2,2.6-5.7,5.7-5.7c1.9,0,3.5,0.9,4.6,2.3l13.7-4.1c0-0.1,0-0.1,0-0.2
	c0-3.2,2.6-5.7,5.7-5.7c1.1,0,2.1,0.3,2.9,0.8L74.7,8.4C74.3,7.6,74,6.7,74,5.7C74,2.6,76.6,0,79.7,0c3.2,0,5.7,2.6,5.7,5.7
	s-2.6,5.7-5.7,5.7c-0.9,0-1.8-0.2-2.6-0.6L61.3,27.2c0.3,0.7,0.5,1.5,0.5,2.3c0,3.2-2.6,5.7-5.7,5.7c-1.8,0-3.5-0.9-4.5-2.2
	l-13.7,4.1c0,0,0,0.1,0,0.1c0,3.2-2.6,5.7-5.7,5.7c-1.7,0-3.2-0.7-4.2-1.9l-13.8,8.2c0,0.2,0,0.4,0,0.6C14.1,53,11.5,55.5,8.4,55.5z
	 M8.4,47.6c-1.2,0-2.2,1-2.2,2.2s1,2.2,2.2,2.2s2.2-1,2.2-2.2c0-0.3,0-0.5-0.1-0.8c0,0,0,0,0-0.1C10.1,48.2,9.3,47.6,8.4,47.6z
	 M30,38.1c0.3,0.8,1.1,1.3,2,1.3c1.2,0,2.2-1,2.2-2.2c0-0.3,0-0.5-0.1-0.7c0,0,0,0,0-0.1C33.8,35.6,33,35,32.1,35
	c-1.2,0-2.2,1-2.2,2.2C29.9,37.5,29.9,37.8,30,38.1C30,38,30,38.1,30,38.1z M56.1,27.3c-1.2,0-2.2,1-2.2,2.2s1,2.2,2.2,2.2
	s2.2-1,2.2-2.2c0-0.5-0.2-1-0.5-1.4c0,0,0,0,0,0C57.4,27.6,56.8,27.3,56.1,27.3z M79.7,3.5c-1.2,0-2.2,1-2.2,2.2s1,2.2,2.2,2.2
	c1.2,0,2.2-1,2.2-2.2S81,3.5,79.7,3.5z"/>
</svg>
