<?xml version="1.0" encoding="utf-8"?>
<!-- Generator: Adobe Illustrator 21.0.0, SVG Export Plug-In . SVG Version: 6.00 Build 0)  -->
<svg version="1.1" id="Icons" xmlns="http://www.w3.org/2000/svg" xmlns:xlink="http://www.w3.org/1999/xlink" x="0px" y="0px"
	 viewBox="0 0 57.7 57.7" style="enable-background:new 0 0 57.7 57.7;" xml:space="preserve">
<style type="text/css">
	.st0{fill-rule:evenodd;clip-rule:evenodd;fill:#2C8ECE;stroke:#2C8ECE;stroke-width:0.5;stroke-miterlimit:10;}
</style>
<path id="Page_Quality_1_" class="st0" d="M15.2,20.4c0-0.4,0.3-0.7,0.7-0.7c8.8,0,17,0,25.8,0c0.4,0,0.7,0.3,0.7,0.7v6.1
	c0.9,0.1,1.7,0.3,2.6,0.5V14.1c0-0.8-0.6-1.4-1.4-1.4c-9.9,0-19.7,0-29.6,0c-0.8,0-1.4,0.6-1.4,1.4v13c0.8-0.2,1.7-0.3,2.6-0.5V20.4
	L15.2,20.4z M34.6,27.5c4.2,0.3,8.2,0.9,11.9,1.7v1.1l-1.8,1.8h-4.1l4.1,0.9l1.8,3V37c-3.6-1-7.7-1.6-12.1-1.9
	c-1.2,1.7-3.2,2.7-5.4,2.7c-2.2,0-4.2-1.1-5.4-2.7c-4.4,0.3-8.6,1-12.3,2V36l1.8-3l4-0.9H13l-1.7-1.7v-1.1c3.7-0.9,7.7-1.4,12-1.7
	c1.2-1.9,3.3-3.1,5.7-3.1C31.3,24.4,33.4,25.7,34.6,27.5L34.6,27.5z M28.9,25.7l1.2,3.7l3.9,0l-3.1,2.3l1.2,3.7l-3.1-2.3l-3.1,2.3
	l1.2-3.7l-3.1-2.3l3.9,0L28.9,25.7L28.9,25.7z M42.4,38v3.7c0,0.4-0.3,0.7-0.7,0.7H15.9c-0.4,0-0.7-0.3-0.7-0.7v-3.7
	c-0.9,0.2-1.7,0.3-2.6,0.5v5c0,0.8,0.6,1.4,1.4,1.4h29.6c0.8,0,1.4-0.6,1.4-1.4v-5C44.2,38.4,43.3,38.2,42.4,38L42.4,38z M20.8,14.8
	c0.7,0,1.4,0.6,1.4,1.4c0,0.7-0.6,1.4-1.4,1.4c-0.8,0-1.4-0.6-1.4-1.4C19.4,15.4,20,14.8,20.8,14.8L20.8,14.8z M25,14.8
	c0.7,0,1.4,0.6,1.4,1.4c0,0.7-0.6,1.4-1.4,1.4c-0.7,0-1.4-0.6-1.4-1.4C23.6,15.4,24.3,14.8,25,14.8L25,14.8z M16.6,14.8
	c0.7,0,1.4,0.6,1.4,1.4c0,0.7-0.6,1.4-1.4,1.4s-1.4-0.6-1.4-1.4C15.2,15.4,15.8,14.8,16.6,14.8L16.6,14.8z M28.8,0.5
	c15.7,0,28.3,12.7,28.3,28.3c0,15.7-12.7,28.3-28.3,28.3c-15.7,0-28.3-12.7-28.3-28.3C0.5,13.2,13.2,0.5,28.8,0.5z"/>
</svg>
