<?xml version="1.0" encoding="utf-8"?>
<!-- Generator: Adobe Illustrator 21.0.0, SVG Export Plug-In . SVG Version: 6.00 Build 0)  -->
<svg version="1.1" id="Icons" xmlns="http://www.w3.org/2000/svg" xmlns:xlink="http://www.w3.org/1999/xlink" x="0px" y="0px"
	 viewBox="0 0 56.7 56.7" style="enable-background:new 0 0 56.7 56.7;" xml:space="preserve">
<style type="text/css">
	.st0{fill-rule:evenodd;clip-rule:evenodd;fill:#2C8ECE;stroke:#2C8ECE;stroke-width:0.5;stroke-miterlimit:10;}
</style>
<path id="Responsive_Design_1_" class="st0" d="M28.3,0C44,0,56.7,12.7,56.7,28.3C56.7,44,44,56.7,28.3,56.7S0,44,0,28.3
	C0,12.7,12.7,0,28.3,0L28.3,0z M35.1,21.9c-0.6,0-1.2,0.5-1.2,1.2v8.8v8.8c0,0.6,0.5,1.2,1.2,1.2h9.4c0.6,0,1.2-0.5,1.2-1.2V23.1
	c0-0.6-0.5-1.2-1.2-1.2H35.1L35.1,21.9z M38.2,23.2c-0.1,0-0.3,0.1-0.3,0.3v0c0,0.1,0.1,0.3,0.3,0.3h3.2c0.1,0,0.3-0.1,0.3-0.3v0
	c0-0.1-0.1-0.3-0.3-0.3H38.2L38.2,23.2z M39.8,39.2c-0.5,0-1,0.4-1,1c0,0.5,0.4,1,1,1c0.5,0,1-0.4,1-1
	C40.7,39.7,40.3,39.2,39.8,39.2L39.8,39.2z M24.5,39.8c-0.6,0-1,0.5-1,1l0,0c0,0.6,0.5,1,1,1h7v-2H24.5L24.5,39.8z M12.1,14.9
	c-0.6,0-1,0.5-1,1V37c0,0.6,0.5,1,1,1h19.4v-4.8h-18c-0.2,0-0.4-0.2-0.4-0.4V17.3c0-0.2,0.2-0.4,0.4-0.4h29.7c0.2,0,0.4,0.2,0.4,0.4
	v2.2h2v-3.6c0-0.6-0.5-1-1-1H12.1L12.1,14.9z M35.2,25.1c-0.2,0-0.4,0.2-0.4,0.4v12.7c0,0.2,0.2,0.4,0.4,0.4h9.1
	c0.2,0,0.4-0.2,0.4-0.4V25.5c0-0.2-0.2-0.4-0.4-0.4H35.2z"/>
</svg>
