<?xml version="1.0" encoding="utf-8"?>
<!-- Generator: Adobe Illustrator 21.0.0, SVG Export Plug-In . SVG Version: 6.00 Build 0)  -->
<svg version="1.1" id="Icons" xmlns="http://www.w3.org/2000/svg" xmlns:xlink="http://www.w3.org/1999/xlink" x="0px" y="0px"
	 viewBox="0 0 57.7 57.7" style="enable-background:new 0 0 57.7 57.7;" xml:space="preserve">
<style type="text/css">
	.st0{fill-rule:evenodd;clip-rule:evenodd;fill:#2C8ECE;stroke:#2C8ECE;stroke-miterlimit:10;}
</style>
<path id="Communities__x26__Networks_1_" class="st0" d="M31.3,25.7l4.5-2.6c-0.1-0.5-0.2-1-0.2-1.6c0-0.5,0.1-0.9,0.2-1.4l-4.3-2.4
	c-0.7,0.6-1.6,1-2.6,1c-0.5,0-1-0.1-1.5-0.3l-7.3,7.8c0.4,0.7,0.7,1.6,0.7,2.5c0,0.8-0.2,1.5-0.5,2.2l5.9,5.4
	c0.8-0.5,1.7-0.7,2.6-0.7c2.8,0,5,2.3,5,5c0,2.8-2.3,5-5,5c-1.9,0-3.6-1.1-4.4-2.6l-2.5,0.5c-0.3,1.9-1.9,3.4-3.9,3.4
	c-2.2,0-4-1.8-4-4c0-2.2,1.8-4,4-4c1.4,0,2.6,0.7,3.4,1.8l2.5-0.5c0-0.6,0.2-1.2,0.5-1.8l-5.9-5.3c-0.8,0.5-1.7,0.7-2.6,0.7
	c-2.8,0-5-2.3-5-5s2.3-5,5-5c0.8,0,1.6,0.2,2.3,0.5l7.3-7.8c-0.3-0.5-0.4-1.1-0.4-1.8c0-2.2,1.8-4,4-4c2.2,0,4,1.8,4,4
	c0,0.2,0,0.4,0,0.5l4.3,2.4c1-1.1,2.5-1.8,4.2-1.8c3.1,0,5.7,2.5,5.7,5.7c0,3.1-2.5,5.7-5.7,5.7c-1.6,0-3-0.6-4-1.7l-4.5,2.6
	c0,0.2,0.1,0.4,0.1,0.7c0,2.2-1.8,4-4,4c-2.2,0-4-1.8-4-4c0-2.2,1.8-4,4-4C29.8,24.9,30.7,25.2,31.3,25.7L31.3,25.7z M41.3,18.5
	c-1.7,0-3.1,1.4-3.1,3.1c0,1.7,1.4,3.1,3.1,3.1c1.7,0,3.1-1.4,3.1-3.1C44.4,19.8,43,18.5,41.3,18.5L41.3,18.5z M28.8,13.3
	c-0.8,0-1.5,0.6-1.5,1.5c0,0.8,0.6,1.5,1.5,1.5s1.5-0.7,1.5-1.5C30.3,14,29.6,13.3,28.8,13.3L28.8,13.3z M15.7,26.4
	c-1.3,0-2.4,1.1-2.4,2.4c0,1.3,1.1,2.4,2.4,2.4c1.3,0,2.4-1.1,2.4-2.4C18.2,27.5,17.1,26.4,15.7,26.4L15.7,26.4z M28.8,38.2
	c-1.3,0-2.4,1.1-2.4,2.4c0,1.3,1.1,2.4,2.4,2.4s2.4-1.1,2.4-2.4C31.3,39.3,30.2,38.2,28.8,38.2L28.8,38.2z M18,41.5
	c-0.8,0-1.5,0.7-1.5,1.5c0,0.8,0.6,1.5,1.5,1.5c0.8,0,1.5-0.6,1.5-1.5C19.4,42.1,18.8,41.5,18,41.5L18,41.5z M28.8,27.4
	c-0.8,0-1.5,0.6-1.5,1.5c0,0.8,0.7,1.5,1.5,1.5c0.8,0,1.5-0.7,1.5-1.5C30.3,28,29.6,27.4,28.8,27.4L28.8,27.4z M28.8,0.5
	C13.2,0.5,0.5,13.2,0.5,28.8c0,15.7,12.7,28.3,28.3,28.3s28.3-12.7,28.3-28.3C57.2,13.2,44.5,0.5,28.8,0.5z"/>
</svg>
