<?xml version="1.0" encoding="utf-8"?>
<!-- Generator: Adobe Illustrator 21.0.0, SVG Export Plug-In . SVG Version: 6.00 Build 0)  -->
<svg version="1.1" id="Icons" xmlns="http://www.w3.org/2000/svg" xmlns:xlink="http://www.w3.org/1999/xlink" x="0px" y="0px"
	 viewBox="0 0 57.2 57.2" style="enable-background:new 0 0 57.2 57.2;" xml:space="preserve">
<style type="text/css">
	.st0{fill-rule:evenodd;clip-rule:evenodd;fill:#2C8ECE;stroke:#2C8ECE;stroke-width:0.5;stroke-miterlimit:10;}
</style>
<path id="Services_Packages_1_" class="st0" d="M43.2,29.6l-7.2-0.9l0.3-0.4c0.3-0.3,0.4-0.8,0.3-1.2l0.8-0.8
	c1.8,1.4,4.5,1.3,6.1-0.4c1.8-1.8,1.8-4.8,0-6.6c-1.8-1.8-4.8-1.8-6.6,0c-1.7,1.7-1.8,4.3-0.4,6.1l-0.8,0.8c-0.4-0.1-0.9,0-1.2,0.3
	l-1.7,1.7l-4.3-0.5l3.5,7.3h14.7L43.2,29.6L43.2,29.6z M31.5,10.1l5.9,2.7c0.4,0.2,0.6,0.7,0.4,1.1l-5.1,11
	c-0.2,0.4-0.7,0.6-1.1,0.4l-5.9-2.7c-0.4-0.2-0.6-0.7-0.4-1.1l5.1-11C30.6,10.1,31.1,9.9,31.5,10.1L31.5,10.1z M33,11.9
	c-0.1,0-0.2,0-0.2,0.1v0c0,0.1,0,0.2,0.1,0.2l2,0.9c0.1,0,0.2,0,0.2-0.1v0c0-0.1,0-0.2-0.1-0.2L33,11.9L33,11.9z M29.3,22.3
	c0.3,0.2,0.5,0.5,0.3,0.9c-0.2,0.3-0.5,0.5-0.9,0.3c-0.3-0.2-0.5-0.5-0.3-0.9C28.6,22.3,29,22.2,29.3,22.3L29.3,22.3z M30.7,12.2
	l5.5,2.6c0.1,0.1,0.2,0.2,0.1,0.3l-3.7,8c-0.1,0.1-0.2,0.2-0.3,0.1l-5.5-2.6c-0.1-0.1-0.2-0.2-0.1-0.3l3.7-8
	C30.4,12.2,30.6,12.2,30.7,12.2L30.7,12.2z M13.9,23.5L13.9,23.5c-1.2-2.2-0.4-4.9,1.8-6.1l0,0c0.2-0.1,0.5,0,0.6,0.2
	c0.1,0.2,0,0.5-0.2,0.6c-1.7,0.9-2.4,3.1-1.5,4.9c0.1,0.2,0,0.5-0.2,0.6C14.3,23.8,14,23.8,13.9,23.5L13.9,23.5z M14.9,15.9
	c3-1.6,6.8-0.5,8.5,2.5c0.7,1.4,0.9,2.9,0.6,4.4c-0.3,1.3-0.3,2.7,0,4.1l0,0c0.1,0.3-0.1,0.6-0.3,0.7l0,0l-1.8,1
	c2.3-0.3,4.5-0.5,6.8-0.8l-3.5,7.3H10.3l3.6-5.5l4.5-0.5c-0.8-0.8-1.8-1.3-2.8-1.7c-1.4-0.6-2.6-1.5-3.3-2.9
	C10.7,21.3,11.8,17.5,14.9,15.9L14.9,15.9z M37.9,20.2c1.3-1.3,3.5-1.3,4.9,0c1.3,1.3,1.3,3.5,0,4.9c-1.4,1.3-3.5,1.3-4.9,0
	C36.6,23.7,36.6,21.5,37.9,20.2L37.9,20.2z M14,36.2v9.3l14.4,1.7l-0.8-14.7l-1.8,3.7H14L14,36.2z M28.8,47.2l0.8-14.7l1.8,3.7h11.8
	v9.3L28.8,47.2L28.8,47.2z M28.6,0.3c15.7,0,28.3,12.7,28.3,28.3c0,15.7-12.7,28.3-28.3,28.3S0.3,44.3,0.3,28.6
	C0.3,12.9,12.9,0.3,28.6,0.3z"/>
</svg>
