<?xml version="1.0" encoding="utf-8"?>
<!-- Generator: Adobe Illustrator 21.0.0, SVG Export Plug-In . SVG Version: 6.00 Build 0)  -->
<svg version="1.1" id="Icons" xmlns="http://www.w3.org/2000/svg" xmlns:xlink="http://www.w3.org/1999/xlink" x="0px" y="0px"
	 viewBox="0 0 57.2 57.2" style="enable-background:new 0 0 57.2 57.2;" xml:space="preserve">
<style type="text/css">
	.st0{fill-rule:evenodd;clip-rule:evenodd;fill:#2C8ECE;stroke:#2C8ECE;stroke-width:0.5;stroke-miterlimit:10;}
</style>
<path id="Reputation_Management_1_" class="st0" d="M28.6,0.3c15.7,0,28.3,12.7,28.3,28.3S44.3,56.9,28.6,56.9
	c-15.7,0-28.3-12.7-28.3-28.3S12.9,0.3,28.6,0.3L28.6,0.3z M28.6,20.6c-1.8,0-3.4,0.4-3.8,0.9l0,0l0,0c-0.5,0.6-0.8,2-0.8,3.6
	c0,1.6,0.3,3,0.8,3.6c0.4,0.6,2,1,3.8,1c1.8,0,3.4-0.4,3.8-1l0,0l0,0c0.5-0.6,0.8-2,0.8-3.6c0-1.6-0.3-3-0.8-3.6
	C32,21,30.5,20.6,28.6,20.6L28.6,20.6z M28.6,37.4c-1.6,0-3,1.3-3,3c0,1.6,1.3,3,3,3c1.6,0,3-1.3,3-3C31.6,38.7,30.2,37.4,28.6,37.4
	L28.6,37.4z M34.4,19.6c0.6,1.4,0.9,2.8,1.1,4.4l5.2,1.2l-5.2,1.2c-0.1,1.5-0.5,3-1.1,4.4c2.9,2.2,6.3,4,10,4c1.3,0,2.3-4.7,2.3-9.6
	c0-4.9-1-9.6-2.3-9.6C40.7,15.6,37.3,17.4,34.4,19.6L34.4,19.6z M22.8,19.6c-2.9-2.2-6.3-4-10-4c-1.3,0-2.3,4.7-2.3,9.6
	c0,4.9,1,9.6,2.3,9.6c3.7,0,7.1-1.9,10-4c-0.6-1.4-0.9-2.8-1.1-4.4l-5.2-1.2l5.2-1.2C21.9,22.4,22.2,21,22.8,19.6z"/>
</svg>
