<?xml version="1.0" encoding="utf-8"?>
<!-- Generator: Adobe Illustrator 19.2.0, SVG Export Plug-In . SVG Version: 6.00 Build 0)  -->
<svg version="1.1" id="Layer_1" xmlns="http://www.w3.org/2000/svg" xmlns:xlink="http://www.w3.org/1999/xlink" x="0px" y="0px"
	 viewBox="0 0 841.9 595.3" style="enable-background:new 0 0 841.9 595.3;" xml:space="preserve">
<style type="text/css">
	.st0{fill:#C6AC75;}
	.st1{clip-path:url(#XMLID_507_);fill:#C6AC75;}
	.st2{clip-path:url(#XMLID_511_);fill:#C6AC75;}
	.st3{clip-path:url(#XMLID_521_);fill:#C6AC75;}
	.st4{clip-path:url(#XMLID_522_);fill:#C6AC75;}
	.st5{clip-path:url(#XMLID_523_);fill:#C6AC75;}
</style>
<g>
	<g>
		<path class="st0" d="M355.1,474.6h11.8v2.3h-9.2v7.1h8.5v2.3h-8.5v7.7h9.4v2.3h-12V474.6z"/>
		<path class="st0" d="M375.9,489.9l0.9,2.9h0l0.8-3l3.5-9h2.7l-6.6,15.8h-1.1l-6.7-15.8h2.9L375.9,489.9z"/>
		<path class="st0" d="M397.4,495c-0.6,0.5-1.4,0.9-2.3,1.2c-0.9,0.3-1.9,0.4-3,0.4c-1.2,0-2.2-0.2-3.1-0.6
			c-0.9-0.4-1.6-0.9-2.1-1.6c-0.6-0.7-1-1.6-1.2-2.6c-0.3-1-0.4-2.1-0.4-3.3c0-2.6,0.6-4.7,1.8-6c1.2-1.4,2.9-2.1,5.1-2.1
			c0.7,0,1.4,0.1,2.1,0.2c0.7,0.2,1.3,0.4,1.9,0.9c0.6,0.4,1,1,1.4,1.8c0.4,0.8,0.5,1.8,0.5,3.1c0,0.7-0.1,1.4-0.2,2.3h-10
			c0,0.9,0.1,1.7,0.3,2.4c0.2,0.7,0.5,1.3,0.9,1.8c0.4,0.5,0.9,0.9,1.5,1.1c0.6,0.3,1.4,0.4,2.3,0.4c0.7,0,1.4-0.1,2.1-0.4
			c0.7-0.2,1.2-0.5,1.6-0.9L397.4,495z M392,482.6c-1.2,0-2.2,0.3-2.9,1c-0.7,0.6-1.2,1.7-1.3,3.3h7.7c0-1.6-0.3-2.7-0.9-3.3
			C394,482.9,393.1,482.6,392,482.6z"/>
		<path class="st0" d="M411.7,496.3v-8.8c0-1.6-0.2-2.8-0.7-3.6c-0.5-0.8-1.3-1.2-2.6-1.2c-1.1,0-2,0.3-2.7,0.9
			c-0.7,0.6-1.2,1.3-1.5,2.2v10.6h-2.5v-15.5h1.7l0.5,1.9h0.1c0.5-0.7,1.2-1.2,2-1.6c0.8-0.4,1.8-0.6,3-0.6c0.8,0,1.6,0.1,2.2,0.3
			c0.6,0.2,1.2,0.5,1.6,1s0.7,1.2,1,2c0.2,0.8,0.3,1.9,0.3,3.2v9.4H411.7z"/>
		<path class="st0" d="M416.7,480.8h2.4v-3.1l2.5-0.7v3.8h4.2v2.2h-4.2v8.6c0,1.1,0.1,1.8,0.4,2.3c0.3,0.4,0.7,0.7,1.4,0.7
			c0.5,0,1-0.1,1.4-0.2c0.4-0.1,0.8-0.3,1.2-0.4l0.6,1.9c-0.6,0.3-1.2,0.5-1.8,0.7c-0.7,0.2-1.4,0.2-2.1,0.2c-1.3,0-2.1-0.4-2.7-1.1
			c-0.5-0.7-0.8-1.9-0.8-3.6V483h-2.4V480.8z"/>
		<path class="st0" d="M450.8,486.3h-10.4v10h-2.6v-21.7h2.6v9.5h10.4v-9.5h2.6v21.7h-2.6V486.3z"/>
		<path class="st0" d="M458.1,481.9c0.8-0.5,1.7-0.8,2.7-1.1c1-0.2,2.1-0.3,3.3-0.3c1.1,0,1.9,0.1,2.6,0.4c0.7,0.3,1.1,0.7,1.5,1.1
			c0.3,0.5,0.6,1,0.7,1.5c0.1,0.6,0.2,1.1,0.2,1.7c0,1.2,0,2.4-0.1,3.6c-0.1,1.2-0.1,2.3-0.1,3.3c0,0.8,0,1.5,0.1,2.2
			c0.1,0.7,0.2,1.3,0.3,1.9h-1.8l-0.7-2.2h-0.2c-0.2,0.3-0.4,0.6-0.7,0.9c-0.3,0.3-0.6,0.5-1,0.7s-0.8,0.4-1.4,0.5
			c-0.5,0.1-1.1,0.2-1.8,0.2c-0.7,0-1.3-0.1-1.8-0.3c-0.6-0.2-1.1-0.5-1.5-0.9c-0.4-0.4-0.7-0.8-1-1.4c-0.2-0.5-0.4-1.1-0.4-1.8
			c0-0.9,0.2-1.7,0.6-2.3c0.4-0.6,0.9-1.1,1.6-1.5c0.7-0.4,1.5-0.6,2.4-0.8c0.9-0.2,2-0.2,3.1-0.2c0.3,0,0.6,0,0.9,0
			c0.3,0,0.6,0,0.9,0.1c0.1-0.6,0.1-1.2,0.1-1.7c0-1.1-0.2-1.9-0.7-2.4c-0.5-0.5-1.3-0.7-2.5-0.7c-0.4,0-0.7,0-1.1,0.1
			c-0.4,0.1-0.8,0.1-1.2,0.2c-0.4,0.1-0.8,0.2-1.2,0.4c-0.4,0.1-0.7,0.3-1,0.5L458.1,481.9z M462.5,494.4c0.6,0,1.1-0.1,1.5-0.2
			c0.5-0.2,0.8-0.4,1.2-0.6c0.3-0.2,0.6-0.5,0.8-0.8c0.2-0.3,0.4-0.6,0.5-0.8v-2.6c-0.3,0-0.6,0-0.9,0c-0.3,0-0.6,0-0.9,0
			c-0.6,0-1.3,0-1.9,0.1c-0.6,0.1-1.1,0.2-1.6,0.4c-0.5,0.2-0.8,0.5-1.1,0.8c-0.3,0.3-0.4,0.8-0.4,1.3c0,0.7,0.3,1.3,0.8,1.8
			C461,494.1,461.7,494.4,462.5,494.4z"/>
		<path class="st0" d="M476.5,492.5c0,0.7,0.1,1.2,0.4,1.6c0.2,0.3,0.6,0.5,1.1,0.5c0.3,0,0.6,0,0.9-0.1c0.3,0,0.7-0.1,1.1-0.3
			l0.3,2c-0.3,0.2-0.8,0.3-1.4,0.4c-0.6,0.1-1.1,0.2-1.5,0.2c-0.9,0-1.7-0.3-2.3-0.8c-0.6-0.5-0.9-1.4-0.9-2.7v-18.6h2.5V492.5z"/>
		<path class="st0" d="M485.5,492.5c0,0.7,0.1,1.2,0.4,1.6c0.2,0.3,0.6,0.5,1.1,0.5c0.3,0,0.6,0,0.9-0.1c0.3,0,0.7-0.1,1.1-0.3
			l0.3,2c-0.3,0.2-0.8,0.3-1.4,0.4c-0.6,0.1-1.1,0.2-1.5,0.2c-0.9,0-1.7-0.3-2.3-0.8c-0.6-0.5-0.9-1.4-0.9-2.7v-18.6h2.5V492.5z"/>
	</g>
</g>
<g id="XMLID_2446_">
	<g id="XMLID_2577_">
		<path id="XMLID_505_" class="st0" d="M371,155.6c0.2,0.6,0.3,1.2,0.5,2l3.8-5c-0.9,0.2-1.6,0.3-2.3,0.4L371,155.6z"/>
		<path id="XMLID_504_" class="st0" d="M372.2,161c0.1,0.7,0.2,1.4,0.3,2.2l8.9-11.6c-0.8,0.1-1.5,0.2-2.3,0.4L372.2,161z"/>
		<path id="XMLID_503_" class="st0" d="M384.3,152.1l-10,13l-1.4,1.8c0.1,0.8,0.1,1.6,0.2,2.4l1.5-1.9l11.9-15.6l0.9-1.2
			c-0.8,0.1-1.5,0.2-2.2,0.3L384.3,152.1z"/>
		<g id="XMLID_501_">
			<path id="XMLID_502_" class="st0" d="M373.1,173.6c0,0.9-0.1,1.8-0.1,2.7l1.7-2.2l17.5-22.9l1-1.3c-0.7,0.1-1.5,0.2-2.2,0.3
				l-1,1.3l-15.4,20L373.1,173.6z"/>
		</g>
		<g id="XMLID_440_">
			<g id="XMLID_441_">
				<defs>
					<path id="XMLID_442_" d="M353.2,214.7l-0.7,0.6l0.7,0.6c0,0,0.1,0.1,0.1,0.1l3.3-4.2C355.4,212.7,354.3,213.7,353.2,214.7z"/>
				</defs>
				<use xlink:href="#XMLID_442_"  style="overflow:visible;fill:#C6AC75;"/>
				<clipPath id="XMLID_507_">
					<use xlink:href="#XMLID_442_"  style="overflow:visible;"/>
				</clipPath>
				<polygon id="XMLID_500_" class="st1" points="355.4,211.8 352.4,215.3 352.4,211.8 				"/>
				<polygon id="XMLID_499_" class="st1" points="355.4,211.8 352.4,215.3 352.4,215.3 355.4,211.8 				"/>
				<polygon id="XMLID_498_" class="st1" points="355.4,211.8 352.4,215.3 352.4,215.3 355.4,211.8 				"/>
				<polygon id="XMLID_497_" class="st1" points="355.5,211.8 352.4,215.4 352.4,215.3 355.4,211.8 				"/>
				<polygon id="XMLID_496_" class="st1" points="355.5,211.8 352.4,215.4 352.4,215.4 355.5,211.8 				"/>
				<polygon id="XMLID_495_" class="st1" points="355.5,211.8 352.4,215.4 352.4,215.4 355.5,211.8 				"/>
				<polygon id="XMLID_494_" class="st1" points="355.5,211.8 352.4,215.5 352.4,215.4 355.5,211.8 				"/>
				<polygon id="XMLID_493_" class="st1" points="355.6,211.8 352.4,215.5 352.4,215.5 355.5,211.8 				"/>
				<polygon id="XMLID_492_" class="st1" points="355.6,211.8 352.4,215.5 352.4,215.5 355.6,211.8 				"/>
				<polygon id="XMLID_491_" class="st1" points="355.6,211.8 352.4,215.5 352.4,215.5 355.6,211.8 				"/>
				<polygon id="XMLID_490_" class="st1" points="355.6,211.8 352.4,215.6 352.4,215.5 355.6,211.8 				"/>
				<polygon id="XMLID_489_" class="st1" points="355.7,211.8 352.4,215.6 352.4,215.6 355.6,211.8 				"/>
				<polygon id="XMLID_488_" class="st1" points="355.7,211.8 352.4,215.6 352.4,215.6 355.7,211.8 				"/>
				<polygon id="XMLID_487_" class="st1" points="355.7,211.8 352.4,215.7 352.4,215.6 355.7,211.8 				"/>
				<polygon id="XMLID_486_" class="st1" points="355.7,211.8 352.4,215.7 352.4,215.7 355.7,211.8 				"/>
				<polygon id="XMLID_485_" class="st1" points="355.8,211.8 352.4,215.7 352.4,215.7 355.7,211.8 				"/>
				<polygon id="XMLID_484_" class="st1" points="355.8,211.8 352.4,215.8 352.4,215.7 355.8,211.8 				"/>
				<polygon id="XMLID_483_" class="st1" points="355.8,211.8 352.4,215.8 352.4,215.8 355.8,211.8 				"/>
				<polygon id="XMLID_482_" class="st1" points="355.8,211.8 352.4,215.8 352.4,215.8 355.8,211.8 				"/>
				<polygon id="XMLID_481_" class="st1" points="355.9,211.8 352.4,215.8 352.4,215.8 355.8,211.8 				"/>
				<polygon id="XMLID_480_" class="st1" points="355.9,211.8 352.4,215.9 352.4,215.8 355.9,211.8 				"/>
				<polygon id="XMLID_479_" class="st1" points="355.9,211.8 352.4,215.9 352.4,215.9 355.9,211.8 				"/>
				<polygon id="XMLID_478_" class="st1" points="355.9,211.8 352.4,215.9 352.4,215.9 355.9,211.8 				"/>
				<polygon id="XMLID_477_" class="st1" points="356,211.8 352.4,216 352.4,215.9 355.9,211.8 				"/>
				<polygon id="XMLID_476_" class="st1" points="356,211.8 352.4,216 352.4,216 356,211.8 				"/>
				<polygon id="XMLID_475_" class="st1" points="356,211.8 352.5,216 352.4,216 352.4,216 356,211.8 				"/>
				<polygon id="XMLID_474_" class="st1" points="356,211.8 352.5,216 352.5,216 356,211.8 				"/>
				<polygon id="XMLID_473_" class="st1" points="356.1,211.8 352.5,216 352.5,216 356,211.8 				"/>
				<polygon id="XMLID_472_" class="st1" points="356.1,211.8 352.5,216 352.5,216 356.1,211.8 				"/>
				<polygon id="XMLID_471_" class="st1" points="356.1,211.8 352.6,216 352.5,216 356.1,211.8 				"/>
				<polygon id="XMLID_470_" class="st1" points="356.1,211.8 352.6,216 352.6,216 356.1,211.8 				"/>
				<polygon id="XMLID_469_" class="st1" points="356.2,211.8 352.6,216 352.6,216 356.1,211.8 				"/>
				<polygon id="XMLID_468_" class="st1" points="356.2,211.8 352.6,216 352.6,216 356.2,211.8 				"/>
				<polygon id="XMLID_467_" class="st1" points="356.2,211.8 352.7,216 352.6,216 356.2,211.8 				"/>
				<polygon id="XMLID_466_" class="st1" points="356.3,211.8 352.7,216 352.7,216 356.2,211.8 				"/>
				<polygon id="XMLID_465_" class="st1" points="356.3,211.8 352.7,216 352.7,216 356.3,211.8 				"/>
				<polygon id="XMLID_464_" class="st1" points="356.3,211.8 352.7,216 352.7,216 356.3,211.8 				"/>
				<polygon id="XMLID_463_" class="st1" points="356.3,211.8 352.8,216 352.7,216 356.3,211.8 				"/>
				<polygon id="XMLID_462_" class="st1" points="356.4,211.8 352.8,216 352.8,216 356.3,211.8 				"/>
				<polygon id="XMLID_461_" class="st1" points="356.4,211.8 352.8,216 352.8,216 356.4,211.8 				"/>
				<polygon id="XMLID_460_" class="st1" points="356.4,211.8 352.8,216 352.8,216 356.4,211.8 				"/>
				<polygon id="XMLID_459_" class="st1" points="356.4,211.8 352.9,216 352.8,216 356.4,211.8 				"/>
				<polygon id="XMLID_458_" class="st1" points="356.5,211.8 352.9,216 352.9,216 356.4,211.8 				"/>
				<polygon id="XMLID_457_" class="st1" points="356.5,211.8 352.9,216 352.9,216 356.5,211.8 				"/>
				<polygon id="XMLID_456_" class="st1" points="356.5,211.8 352.9,216 352.9,216 356.5,211.8 356.5,211.8 				"/>
				<polygon id="XMLID_455_" class="st1" points="356.5,211.8 353,216 352.9,216 356.5,211.8 				"/>
				<polygon id="XMLID_454_" class="st1" points="356.5,211.8 353,216 353,216 356.5,211.8 				"/>
				<polygon id="XMLID_453_" class="st1" points="356.5,211.8 353,216 353,216 356.5,211.8 				"/>
				<polygon id="XMLID_452_" class="st1" points="356.5,211.9 353,216 353,216 356.5,211.8 				"/>
				<polygon id="XMLID_451_" class="st1" points="356.5,211.9 353.1,216 353,216 356.5,211.9 				"/>
				<polygon id="XMLID_450_" class="st1" points="356.5,211.9 353.1,216 353.1,216 356.5,211.9 				"/>
				<polygon id="XMLID_449_" class="st1" points="356.5,212 353.1,216 353.1,216 356.5,211.9 				"/>
				<polygon id="XMLID_448_" class="st1" points="356.5,212 353.1,216 353.1,216 356.5,212 				"/>
				<polygon id="XMLID_447_" class="st1" points="356.5,212 353.2,216 353.1,216 356.5,212 				"/>
				<polygon id="XMLID_446_" class="st1" points="356.5,212.1 353.2,216 353.2,216 356.5,212 				"/>
				<polygon id="XMLID_445_" class="st1" points="356.5,212.1 353.2,216 353.2,216 356.5,212.1 				"/>
				<polygon id="XMLID_444_" class="st1" points="356.5,212.1 353.2,216 353.2,216 356.5,212.1 				"/>
				<polygon id="XMLID_443_" class="st1" points="353.2,216 356.5,212.1 356.5,216 				"/>
			</g>
		</g>
		<path id="XMLID_439_" class="st0" d="M417.5,316.8l-1,1.3c0.3,0.5,0.6,1,0.9,1.4l1-1.3l57.1-74.5l1.3-1.8
			c-0.1-0.9-0.1-1.7-0.1-2.5l-1.5,1.9L417.5,316.8z"/>
		<path id="XMLID_438_" class="st0" d="M477.9,247.7L477.9,247.7c0,0-0.4-1.3-0.5-1.9l-48.2,62.9l0,0l-9.2,11.8l-1,1.3
			c0.3,0.5,0.6,1,0.9,1.4l0.2-0.3l1.4-1.6l8.4-11L477.9,247.7z"/>
		<path id="XMLID_437_" class="st0" d="M479.7,252.1c-0.3-0.5-0.5-1.1-0.7-1.6l-1.1,1.4l-12.7,16.5l-4.1,5.3c1.8-1.6,3.6-3,5.2-4.2
			l3.3-4.3l9-11.7L479.7,252.1z"/>
		<path id="XMLID_436_" class="st0" d="M479.2,259.6l1.7-2.2l1-1.3c-0.3-0.5-0.6-0.9-0.9-1.4l-1,1.3l-4.1,5.3l-2.5,3.3
			c1.3-0.8,2.5-1.5,3.6-2.1L479.2,259.6z"/>
		<path id="XMLID_435_" class="st0" d="M482.3,260c0.6-0.2,0.9-0.3,1-0.4l1.1-0.3l-0.7-0.9c0,0,0-0.1-0.1-0.1L482.3,260z"/>
		<g id="XMLID_433_">
			<path id="XMLID_434_" class="st0" d="M473.6,140.6c-15.5-3.7-33.5-5.8-52.8-5.8c-19.2,0-37.2,2.1-52.8,5.8
				c0.8,2.9,1.2,5.1,1.6,7.5c0,0,27.9-5.4,51.1-5.4c23.2,0,51.1,5.4,51.1,5.4C472.3,145.8,472.7,144.2,473.6,140.6z"/>
		</g>
		<g id="XMLID_429_">
			<defs>
				<path id="XMLID_430_" d="M417.2,331.7c0,0-11.6-14.8-28.6-8c0,0-2-17.2-24.6-16.6c-0.6,0-0.8,0.7-0.3,1.1
					c2.1,1.6,5.6,4.9,4.8,9.2c0,0-18.8,2.2-17.2,22.9c0.3,4.3-1.2,6.2-3.6,8.1c-2.9,2.2-9.6,1.6-15.1-2.8c0,0,15.6-3.7,8-16.7
					c-0.3-0.5-1-0.4-1.2,0c-1.5,3-6.1,10.5-15.1,5.3c-2.5-1.5-3.9-4.3-3.8-7.2c0.2-3.5-0.1-5.3,2-8.3c0,0,5.7,9.4,15.4,5.4
					c5.1-2.2,5.8-5.1,5.7-8.9c-0.1-5.3-2.2-9.9-7.1-11.9c-2.6-1.1-7.2-0.5-11.6,1.1c0,0-17.4,7.2-10.6,29.8
					c7.8,22.4,33.2,30.8,47.9,27c11.3-2.9,22.9-13.7,27.7-18.7c1.9-1.9,3.9-3.6,6.1-5.2c0.9-0.6,1.8-1.3,2.8-1.9
					c0.7-0.2,1.5-0.4,2.3-0.5l-2.7,3.9c-0.4,0.5-0.9,0.8-1.4,0.9c-0.8,0.2-2.1,0.4-2.8,1.1c-1,1-0.6,1.5,0.3,2
					c0.9,0.5-0.8,1.2-0.8,1.2l-2.1,1c-0.4,0.2-0.8,0.5-1,1c-0.2,0.4-0.1,0.9,0.3,1.1c0.3,0.2,0.5,0.2,0.9,0.2c1,0,0.9,0.2,0.9,0.2
					c-0.3,1.7-2.8,2.1-3.6,2.1c-0.3,0-0.6,0.1-0.7,0.3c-0.2,0.1-0.3,0.3-0.3,0.4c-0.1,0.3-0.1,0.8,0.4,1.2c0.6,0.4,0.5,0.8,0.3,1.1
					c-0.2,0.2-0.4,0.4-0.7,0.4c-1.2,0.3-2.2,0.7-2.7,0.9c-0.4,0.2-0.7,0.4-0.9,0.8c-0.3,0.5-0.5,1.1,0.2,1.9c1.2,1.5,3.1,0.6,4,0.5
					c0.9-0.1,0.1,0.8,0.1,0.8s-0.6,0.8-0.9,1.7c-0.3,0.9,0.5,1.6,1.1,1.7c0.5,0.1,1.4,0.7,0.5,2.1c-0.5,0.8-0.5,1.3-0.5,1.6
					c0,0.2,0.2,0.5,0.4,0.6c1.4,0.7,2.8-2.4,3.3-3.1c0.6-0.8,0.8,0,0.8,0l0.4,1.4c0.2,0.7,0.8,0.8,1.3,0.3c0.4-0.3,0.7-1.2,0.7-2.1
					c0-3-0.7-4-0.9-5.3c-0.1-0.5,0.3-0.6,0.6-0.4c0.3,0.2,0.4,0.5,0.5,0.8l0.4,1.3c0.7,1.8,2.3,1.4,2.3,1.4s1.9-0.4,1.6-2.6
					c-0.3-2-1.8-3.2-1.8-3.2s-2.1-1.6-2-2.8c0.1-1.2,0.7-0.2,0.7-0.2s0.3,0.7,0.6,1.5c0.3,0.8,1.7,1.6,2.5,0.6c1-1.1,0.9-2-0.8-4.2
					c-1.7-2.2-1.8-3.3-1.8-3.3s-0.4-1.6,0.3-0.9c0.5,0.5,1.5,2.1,1.8,2.7c0.1,0.2,0.3,0.3,0.4,0.5c0.5,0.3,0.9,0,1.1-0.4
					c0.3-0.6,0.3-1.3,0.1-1.9c-0.2-0.5-0.5-1.2-1.3-1.8c-1.5-1.3-1.5-2.3-1.5-2.3c0,0,0.1,0.1,0.1,0.1c0.3,0.4,0.9,0.3,1.2,0
					c0.6-0.6,0.2-1.4,0-1.9c-0.3-1-0.1-1.5,0.2-1.8c0.7-1.3,1.6-2.3,2.3-3.1c1.8-0.1,3.7,0.1,5.9,0.9c2,0.8,3,4.1,4.4,0
					c1.3-4.1-3-5.1-3-5.1c2.6-0.4,5,2.4,4.1,5.7c-0.9,3.3-4.8,1.3-2.4,4.2c2.4,2.9,5.3-0.7,5.3-0.7c-0.3,1.3-2.5,3.6-5.3,2.5
					c-2.8-1.1-1.5-4.3-1.5-4.3c-3.8-0.3-2.4,4.5-2.4,4.5c-2.8-1.3-0.6-5.4-0.6-5.4c-4.1,1.2-4.6,6-2.4,9.5c2.2,3.5,8.4,3.2,10.1,1.7
					c1.7-1.5,4.7-3,4.9-10.7C419.7,335,418.7,333.1,417.2,331.7L417.2,331.7z M398.9,344c1.1,1.2,1.5,1.9,1.6,2.3
					c0,0.1-0.1,0.1-0.1,0c-0.2-0.3-0.7-1.2-1.6-2c-1.4-1.1-1.2-3.1-1.2-3.1s-2.2,2.9-2,4.2c0.1,1.3,0.5,1.9,1.3,2.9
					c0.8,0.8,1.7,1.8,2,2.4c0,0.1,0,0.1-0.1,0.1c-0.3-0.3-1.1-1.1-2-1.9c-1.1-1.1-1.6-2.4-1.6-2.4s-1.1,3.3-0.7,4.8
					c0.3,1.2,1,2.2,1.3,2.6c0.1,0.1,0.1,0.2,0.2,0.3c0.4,0.4,1.5,1.6,2,2.3c0,0,0,0.1-0.1,0.1c-0.8-0.5-3.2-2.4-3.8-4.6
					c-0.2,0.3-1.2,3.4-1,4.8c0.2,1.5,1.3,3.9,1.5,4.8c0,0.1-0.1,0.1-0.1,0c-0.5-0.8-1.7-3.3-1.9-4.2c0-0.1-0.1-0.1-0.1,0
					c-0.2,1.9-1,3.8-1.8,5.4c0,0.1-0.1,0-0.1,0c0.7-1.7,1.2-4,1-4.4c-0.1,0.1-1.4,1.5-2.7,1.6c-0.1,0-0.1-0.1,0-0.1
					c0.7-0.4,3.4-2.1,4-6.3c0,0-4,3.3-6.9,2.2c-0.1,0,0-0.1,0-0.1c1.3-0.1,7.6-1,7.9-5.8c0,0-1.8,1.4-3.8,1.4c-0.1,0-0.1-0.1,0-0.1
					c1.1-0.2,3.6-0.9,4.4-3.7c0,0,0.5-1.8,0.6-2.1c0,0-1.5,1.1-2.6,1c-0.1,0-0.1-0.1,0-0.1c1.4-0.5,2.5-1.3,2.8-2
					c0.4-0.9,1.9-3.1,1.9-3.1s-1.2,1-2.4,0.5c0,0,2.3-0.5,3-1.3c0,0,0.1,0,0.1,0C397.8,341,397.6,342.5,398.9,344z"/>
			</defs>
			<use xlink:href="#XMLID_430_"  style="overflow:visible;fill:#C6AC75;"/>
			<clipPath id="XMLID_508_">
				<use xlink:href="#XMLID_430_"  style="overflow:visible;"/>
			</clipPath>
		</g>
		<g id="XMLID_425_">
			<defs>
				<path id="XMLID_426_" d="M297.2,256.7c0,0,3.4,6.1,8.5,6.1c5.2,0,6.1-5,6.1-5s5.3,1.4,6.2-2.7c0.9-4.1-0.7-5.8-3.2-4.2
					c0,0-11.9-1.5-3.5-15.2c0,0,2.8-5.3,9.4-10c3.4-2.4,7.6-3.1,11.6-2c14.9,4.1,16.4,15.2,16.4,15.2s2,8.6-5.3,11.5
					c-2,0.8-4.6,1.3-6.1-0.2c-0.9-1-1.2-3.8,0.8-4.5c0,0,1.1,1.2,2.6,1c2.5-0.4,3.9-3.9,1.1-6.8c-4-4.9-9.4-1.9-11.2,0.9
					c-1.8,2.8-2.8,8.9,1.9,12.8c5.4,4.5,11.3,4.2,16.3,0.9c6.2-4,6.2-14,4.9-18.3c-1.3-4.4-5.5-12.6-17.1-15.7
					c-15.2-3.5-29.4-1.1-37.9,1.8c-8,2.8-24.3,13.9-32.1,24.7c-7.8,10.8-17.2,27.8-29.5,29.5c-12.6,1.8-13.5-11.8-11-14.7l0,0
					c1,0.9,2.4,1.5,4,1.5c2.9,0,5.3-1.9,5.3-4.2c0-0.7-0.2-1.4-0.7-2c0.2,0,0.3,0,0.3,0s-0.3-0.3-0.9-0.6c-0.7-0.6-1.6-1.1-2.7-1.4
					c-3.6-1.4-9.6-1.8-15.6,5.4c-4.5,5.4-3.1,12.7-1.9,17.7c1,3.9,17.3,13.7,30.5,1.1c-11,13.7-26.3,4.7-29.5,2.9
					c0,0,11.6,16.9,26.7,6.4c11.4-8,21.4-28.7,33.3-43l-2,7.1c-0.4,1.1-1.1,2.1-2.1,2.7c-1.3,0.8-3.7,2.1-4.5,3.9
					c-1.2,2.6-0.1,3.2,1.9,3.6c2,0.4-0.7,2.8-0.7,2.8l-3.2,3.3c-0.6,0.7-1.1,1.5-1.2,2.4c-0.1,1,0.4,1.7,1.2,1.9
					c0.6,0.2,1.1,0.1,1.8-0.1c1.9-0.7,1.8-0.1,1.8-0.1c0.6,3.4-3.9,5.8-5.3,6.3c-0.6,0.2-1,0.6-1.2,1c-0.2,0.3-0.3,0.7-0.3,1
					c0,0.7,0.3,1.6,1.6,2c1.4,0.4,1.4,1.2,1.2,1.8c-0.2,0.5-0.6,1-1,1.3c-2,1.3-3.7,2.8-4.5,3.5c-0.6,0.6-1,1.2-1.2,2
					c-0.3,1-0.2,2.4,1.6,3.5c3.2,2,6.3-0.9,7.8-1.8c1.6-0.8,0.7,1.5,0.7,1.5s-0.7,1.8-0.7,3.7c0,1.9,2,2.6,3,2.4
					c1-0.2,3.1,0.4,2.3,3.7c-0.4,1.7-0.2,2.7,0.1,3.3c0.2,0.4,0.7,0.7,1.2,0.8c3,0.4,3.7-6.2,4.2-8c0.5-1.9,1.6-0.5,1.6-0.5l1.8,2.4
					c0.9,1.2,2,1,2.7-0.3c0.5-0.9,0.5-2.7-0.1-4.5c-1.9-5.5-3.9-7-5-9.3c-0.4-0.9,0.1-1.4,0.7-1.2c0.6,0.2,1.1,0.6,1.5,1.1l1.6,2.3
					c2.5,3,5.2,1.1,5.2,1.1s3.3-1.9,1.2-5.9c-1.9-3.6-5.5-4.9-5.5-4.9s-4.9-1.6-5.6-3.9c-0.6-2.3,1.2-0.9,1.2-0.9s1,1,2.2,2.4
					c1,1.2,4.1,1.9,5-0.5c1-2.8,0.5-4.3-4.2-7.3c-4.6-2.9-5.6-5.1-5.6-5.1s-1.8-2.7-0.1-1.9c1.4,0.6,4.2,2.9,5.2,3.8
					c0.3,0.3,0.7,0.5,1.1,0.6c1.2,0.2,1.7-0.6,1.8-1.5c0.2-1.3-0.2-2.6-1-3.6c-0.7-0.9-1.8-1.9-3.5-2.6c-3.7-1.5-4.4-3.4-4.4-3.4
					c0.1,0.1,0.2,0.1,0.3,0.2c0.8,0.5,1.8,0.1,2.3-0.8c0.8-1.5-0.6-2.8-1.1-3.5c-1.2-1.7-1.1-2.7-0.9-3.6c0.6-3.2,1.6-5.8,2.6-7.9
					c2.9-3,5.8-5.7,9-7.6c12.2-7.5,22.6-11.5,28.9-12.3c-1.9,0.4-6.9,1.8-11.4,3.9c-1.3,0.6-2.5,1.4-3.6,2.3
					c-9.8,7.8-15.1,18.8-10.7,26.1c1,1.6,2.7,2.8,4.6,2.9C296,257.1,296.7,257,297.2,256.7z M277.2,261.8c2.8,1.5,4.1,2.6,4.5,3.3
					c0.1,0.1-0.1,0.2-0.2,0.1c-0.6-0.5-2.1-1.8-4.4-2.6c-3.4-1.2-4.3-4.9-4.3-4.9s-2.2,6.8-1.1,9.2c1.1,2.4,2.1,3.3,4.4,4.5
					c2,1.1,4.5,2.3,5.3,3.3c0.1,0.1,0,0.2-0.1,0.2c-0.8-0.4-2.7-1.3-4.9-2.3c-2.8-1.4-4.6-3.4-4.6-3.4s0.1,6.9,1.8,9.5
					c1.3,2,3.3,3.5,4,4c0.2,0.1,0.4,0.2,0.6,0.3c0.9,0.5,3.9,2,5.3,2.9c0.1,0.1,0,0.2-0.1,0.2c-1.8-0.5-7.5-2.3-10.1-6.1
					c-0.2,0.6,0,7.2,1.3,9.6c1.4,2.6,4.9,6.4,5.9,7.9c0.1,0.1-0.1,0.2-0.1,0.1c-1.4-1.2-5.3-5-6.3-6.6c-0.1-0.1-0.2,0-0.2,0.1
					c0.9,3.7,0.5,7.7,0.2,11.3c0,0.1-0.2,0.1-0.2,0c0.2-3.6-0.4-8.3-0.9-8.9c-0.1,0.3-1.7,3.7-4.1,4.7c-0.1,0-0.2-0.1-0.1-0.2
					c1.1-1.3,5.1-6.3,3.4-14.3c0,0-5.4,8.8-11.5,8.6c-0.1,0-0.1-0.1,0-0.2c2.2-1,13.6-6.7,11-15.9c0,0-2.4,3.9-6.2,5.1
					c-0.1,0-0.2-0.1-0.1-0.2c1.9-1,6.1-4,5.8-9.8c0,0-0.3-3.7-0.2-4.4c0,0-2.1,3-4.2,3.6c-0.1,0-0.2-0.1-0.1-0.2
					c2.3-1.8,3.9-4,4-5.5c0.1-1.8,1.6-7,1.6-7s-1.6,2.7-4.2,2.5c0,0,3.9-2.5,4.8-4.5c0-0.1,0.2-0.1,0.2,0
					C273.1,256.8,273.8,259.9,277.2,261.8z"/>
			</defs>
			<use xlink:href="#XMLID_426_"  style="overflow:visible;fill:#C6AC75;"/>
			<clipPath id="XMLID_509_">
				<use xlink:href="#XMLID_426_"  style="overflow:visible;"/>
			</clipPath>
		</g>
		<g id="XMLID_421_">
			<defs>
				<path id="XMLID_422_" d="M191.9,243.7l8.5-1.4c1.2-0.1,1.2,0.2,1,0.5c-0.2,0.3-0.5,0.4-0.8,0.4c-0.3,0-0.9,0.1-1.9,0.6
					c-1,0.6-0.7,1-0.2,1.4c0.4,0.3,0.9,0.4,1.4,0.4c1.1,0.1,3.5,0,6.4-0.8c3.9-1.1,3.5,0.7,3.5,0.7c-0.2,3,1.9,2.3,1.9,2.3
					c2.2-0.2,4-1.1,5.1-1.9c6.2,1.9,18.8,4.8,28.1,1.5c18.4-6.7,21.4-13.1,25.3-16.9c0.3-0.3,0.6-0.6,0.9-0.9
					c5.2-6.1,8.6-16.3,8.2-26.7c-0.3-7.3-3.2-14.7-9.1-19c-2.6-1.9-4.9-3.1-9.9-2.8c-8.7-0.1-15.3,10.4-8.4,17.2
					c1.6,1.6,3.2,2.4,4.6,2.8c6.9,2.3,11.2-5,11.2-5c4.6,9.1,4.3,16.8,2,22.8c-1.5-3.1-4.5-4.9-6.2-5.4c-3-0.9-8.2,0.5-8.2,6.4
					c0,6.5,6.1,4,6.1,4s0.3,0.4,0.7,1.6c1.4,6.9-12.1,13.3-18.9,7.2c-6.8-6.2-2.2-10.6-2.2-10.6c-0.3-1.2-1.6-2.6-5.2-1.3
					c-3.7,1.2-1.8,5.3-1.8,5.3c-2.3-2.3-1.8-5.7,2.3-7.2c4.1-1.4,6,1.9,6,1.9c1.2-3.5-1.8-6.4-1.8-6.4c-5.4-4.8-8.9-0.2-8.9-0.2
					c-7.2,7.2,1.5,17.2,4.9,20.6c-16.5-15.6-4.8-24.6-4.8-24.6c-2.4-10.3-7.7-7.2-7.7-7.2c1.5,1.6-1.4,2.4-1.4,2.4l-3-0.1
					c-1.5,0-2.9,0.6-3.9,1.6c-7.2,7.4-4.3,14.8-2.7,17.6c-6.5-10.7-0.4-15.9-0.4-15.9c-4.4-0.3-5.4,4.7-5.4,4.7
					c-4.7,17.9,17.4,28.3,17.4,28.3c0.4,0.2,0.8,0.3,1.2,0.4c-19.2-1.6-25.5-14-29.3-20.6c-4.4-7.7-6.5-19.9-6.5-19.9
					c-4.2,2.1-4,4.5-4.2,6.6c-0.2,1.5,0.2,4.3,0.5,5.9c0.1,0.9,0.1,1.8-0.3,2.7c-0.6,1.5-1.5,1.3-2.1,0.8c-0.7-0.5-1.1-1.4-1.2-2.2
					c-0.2-1.5,0-4.1,0.1-5.8c0.1-2.4-0.6-5.5-2.2-7c-1.6-1.5-3.7-1.3-4.2,0.2c-0.5,1.5-1.4,1.9-2.6,2c-1.2,0-2.5-1.1-2.7-3
					c-0.2-1.9-1.6-2.7-2.2-2.2c-0.6,0.5-1.2,0.6-2.7,0.8c-1.5,0.2-2,1.3-2,1.3s-1.5,2.2-1.2,5.6c0.2,2.7-1,2.8-3.2,2.5
					c-2.2-0.3-2.7,1.2-2.8,1.5c-0.1,0.4,0.1,2.1,1.2,3.8c1.8,2.7,8.1,8.1,10.5,9.9c2.4,1.8,2.3,5.2-0.6,4.9c-1.5-0.1-2.6-1-3.3-1.8
					c-0.6-0.6-0.9-1.4-1.1-2.3c-0.1-0.6-0.4-1.8-2.1-3.1c-2.7-2.1-5.1,1.4-5.2,1.3c-0.2-0.1-2.5-1.3-4.2,0.3
					c-0.9,0.9-0.9,1.9-0.7,2.7c0.1,0.5,0.4,1,0.7,1.4c0.5,0.6,1.6,2.1,1.5,3.7c0,2.1,0.1,2.1,1.1,3.4c0.6,0.7,2.1,0.9,3.4,0.9
					c1,0,1.9-0.1,2.9-0.3c0.9-0.2,2.3-0.3,2.2,0.8c0,0.1,0,0.2,0,0.2c-0.2,1.2-1.3,2.1-2.5,2.1c-0.7,0-2.1,0.5-4,1.7
					c-3.3,2.1-0.6,4.3,0.7,4.7c0.8,0.2,3,0,4.2-0.1c0.4,0,0.9,0.1,1.3,0.3c2,1.5,6.2,0.1,6.2,0.1s6.9-2.6,11.1-4.5
					c4.2-1.9,8.2-2.6,9.6-2.5c0.6,0.1,0.8,0.3,0.8,0.6c0,0.3-0.3,0.6-0.7,0.6c-0.5-0.1-1.5,0-3,0.5c-2.3,0.8-1,2.3-0.2,1.9
					c0.8-0.3,2.5,0,2.5,0C188.7,243.9,191.9,243.7,191.9,243.7z M188.5,233.7c-4,0.5-6.5-0.4-12.9,4.1c0,0-5.7,4.5-13,5
					c0,0,3.7-0.4,8.4-3.3c4.7-2.9,7.9-4.6,7.9-4.6s-9.7,0.1-13.4-0.6c-3.8-0.7-8.7-1.4-8.7-1.4s3.4-0.4,4.3-0.1c0,0-2.2-1.7-3.5-3.6
					c0,0,3.4,3.7,8.3,4.3c0,0-3.9-2-5.5-6.7c0,0,3.3,4.9,7,6.4c3.7,1.5,13.5,0.3,13.5,0.3s7.1-1.1,9.2-0.8c0,0-11.3-7.1-17.1-14.8
					c-5.8-7.7-5.4-14.1-5.4-14.1s2,10,10.3,17.9c0,0-1.7-5.6-0.6-12.9c0,0,0.3,12.2,2.5,14.3c2.2,2.2,9.5,8.7,10.9,8.8
					c0,0-1.5-2.9-0.8-7.4c0.7-4.5-0.1-11.6-0.1-11.6s1.1,7.7,0.9,11.5c-0.2,3.8,0.4,8.2,3.6,9.7c3.2,1.5,9.9,4.6,10.8,4.8
					c0,0-6.9-6.5-7.5-7.9c0,0,5.3,5.5,8.4,7.7c1.3,0.9,2.9,1.3,4.4,1.8c1.6,0.5,3.5,1.1,5,1.3c0,0-3.5-0.3-5.4-0.7
					c-1-0.2-2-0.3-3-0.3c-3.5,0-10.8,0-12.3,0.3c1-0.3,5.4-1.4,12.4-1.1c0,0-5.4-1.6-11.9-4.7c-0.5-0.3-1.1-0.5-1.6-0.9
					C193.1,234.2,191.5,233.4,188.5,233.7z"/>
			</defs>
			<use xlink:href="#XMLID_422_"  style="overflow:visible;fill:#C6AC75;"/>
			<clipPath id="XMLID_510_">
				<use xlink:href="#XMLID_422_"  style="overflow:visible;"/>
			</clipPath>
		</g>
		<g id="XMLID_360_">
			<g id="XMLID_361_">
				<defs>
					<path id="XMLID_362_" d="M346.3,172.9c-6.8-7-10.1-5.2-12.2-4.8c-2.4,0.5-5.9,4.6-3.6,9.3c0.5,1,1.3,1.8,2.4,2.2
						c1.1,0.4,2.7,0.5,3.8-1.5c2.1-3.6-2-5.6-2-5.6s3.9-4.3,9.1,1c4.4,4.5,6.7,8.4,4.8,12.6C348.6,186.1,352.9,179.6,346.3,172.9z"
						/>
				</defs>
				<use xlink:href="#XMLID_362_"  style="overflow:visible;fill:#C6AC75;"/>
				<clipPath id="XMLID_511_">
					<use xlink:href="#XMLID_362_"  style="overflow:visible;"/>
				</clipPath>
				<polygon id="XMLID_420_" class="st2" points="334.8,165.8 328.1,173.7 328.1,165.8 				"/>
				<polygon id="XMLID_419_" class="st2" points="335.3,165.8 328.1,174.3 328.1,173.7 334.8,165.8 				"/>
				<polygon id="XMLID_418_" class="st2" points="335.9,165.8 328.1,175 328.1,174.3 335.3,165.8 				"/>
				<polygon id="XMLID_417_" class="st2" points="336.4,165.8 328.1,175.7 328.1,175 335.9,165.8 				"/>
				<polygon id="XMLID_416_" class="st2" points="337,165.8 328.1,176.3 328.1,175.7 336.4,165.8 				"/>
				<polygon id="XMLID_415_" class="st2" points="337.5,165.8 328.1,177 328.1,176.3 337,165.8 				"/>
				<polygon id="XMLID_414_" class="st2" points="338.1,165.8 328.1,177.6 328.1,177 337.5,165.8 				"/>
				<polygon id="XMLID_413_" class="st2" points="338.6,165.8 328.1,178.3 328.1,177.6 338.1,165.8 				"/>
				<polygon id="XMLID_412_" class="st2" points="339.2,165.8 328.1,179 328.1,178.3 338.6,165.8 				"/>
				<polygon id="XMLID_411_" class="st2" points="339.7,165.8 328.1,179.6 328.1,179 339.2,165.8 				"/>
				<polygon id="XMLID_410_" class="st2" points="340.3,165.8 328.1,180.3 328.1,179.6 339.7,165.8 				"/>
				<polygon id="XMLID_409_" class="st2" points="340.8,165.8 328.1,180.9 328.1,180.3 340.3,165.8 				"/>
				<polygon id="XMLID_408_" class="st2" points="341.4,165.8 328.1,181.6 328.1,180.9 340.8,165.8 				"/>
				<polygon id="XMLID_407_" class="st2" points="341.9,165.8 328.1,182.2 328.1,181.6 341.4,165.8 				"/>
				<polygon id="XMLID_406_" class="st2" points="342.5,165.8 328.1,182.9 328.1,182.2 341.9,165.8 				"/>
				<polygon id="XMLID_405_" class="st2" points="343,165.8 328.1,183.6 328.1,182.9 342.5,165.8 				"/>
				<polygon id="XMLID_404_" class="st2" points="343.6,165.8 328.1,184.2 328.1,183.6 343,165.8 				"/>
				<polygon id="XMLID_403_" class="st2" points="344.1,165.8 328.1,184.9 328.1,184.2 343.6,165.8 				"/>
				<polygon id="XMLID_402_" class="st2" points="344.7,165.8 328.4,185.2 328.1,185 328.1,184.9 344.1,165.8 				"/>
				<polygon id="XMLID_401_" class="st2" points="345.2,165.8 328.7,185.5 328.4,185.2 344.7,165.8 				"/>
				<polygon id="XMLID_400_" class="st2" points="345.8,165.8 329.1,185.8 328.7,185.5 345.2,165.8 				"/>
				<polygon id="XMLID_399_" class="st2" points="346.3,165.8 329.4,186 329.1,185.8 345.8,165.8 				"/>
				<polygon id="XMLID_398_" class="st2" points="346.9,165.8 329.9,186.1 329.4,186.1 329.4,186 346.3,165.8 				"/>
				<polygon id="XMLID_397_" class="st2" points="347.4,165.8 330.4,186.1 329.9,186.1 346.9,165.8 				"/>
				<polygon id="XMLID_396_" class="st2" points="348,165.8 331,186.1 330.4,186.1 347.4,165.8 				"/>
				<polygon id="XMLID_395_" class="st2" points="348.6,165.8 331.5,186.1 331,186.1 348,165.8 				"/>
				<polygon id="XMLID_394_" class="st2" points="349.1,165.8 332.1,186.1 331.5,186.1 348.6,165.8 				"/>
				<polygon id="XMLID_393_" class="st2" points="349.7,165.8 332.6,186.1 332.1,186.1 349.1,165.8 				"/>
				<polygon id="XMLID_392_" class="st2" points="350.1,165.8 350.2,165.9 333.2,186.1 332.6,186.1 349.7,165.8 				"/>
				<polygon id="XMLID_391_" class="st2" points="350.2,165.9 350.5,166.1 333.8,186.1 333.2,186.1 				"/>
				<polygon id="XMLID_390_" class="st2" points="350.5,166.1 350.8,166.4 334.3,186.1 333.8,186.1 				"/>
				<polygon id="XMLID_389_" class="st2" points="350.8,166.4 351.1,166.7 334.9,186.1 334.3,186.1 				"/>
				<polygon id="XMLID_388_" class="st2" points="351.1,166.7 351.5,166.9 335.4,186.1 334.9,186.1 				"/>
				<polygon id="XMLID_387_" class="st2" points="351.5,166.9 351.8,167.2 336,186.1 335.4,186.1 				"/>
				<polygon id="XMLID_386_" class="st2" points="351.8,167.2 352.1,167.5 336.5,186.1 336,186.1 				"/>
				<polygon id="XMLID_385_" class="st2" points="352.1,167.5 352.4,167.8 337.1,186.1 336.5,186.1 				"/>
				<polygon id="XMLID_384_" class="st2" points="352.4,167.8 352.8,168 337.6,186.1 337.1,186.1 				"/>
				<polygon id="XMLID_383_" class="st2" points="352.8,168 352.9,168.1 352.9,168.5 338.2,186.1 337.6,186.1 				"/>
				<polygon id="XMLID_382_" class="st2" points="352.9,169.2 338.7,186.1 338.2,186.1 352.9,168.5 				"/>
				<polygon id="XMLID_381_" class="st2" points="352.9,169.8 339.3,186.1 338.7,186.1 352.9,169.2 				"/>
				<polygon id="XMLID_380_" class="st2" points="352.9,170.5 339.8,186.1 339.3,186.1 352.9,169.8 				"/>
				<polygon id="XMLID_379_" class="st2" points="352.9,171.2 340.4,186.1 339.8,186.1 352.9,170.5 				"/>
				<polygon id="XMLID_378_" class="st2" points="352.9,171.8 340.9,186.1 340.4,186.1 352.9,171.2 				"/>
				<polygon id="XMLID_377_" class="st2" points="352.9,172.5 341.5,186.1 340.9,186.1 352.9,171.8 				"/>
				<polygon id="XMLID_376_" class="st2" points="352.9,173.1 342,186.1 341.5,186.1 352.9,172.5 				"/>
				<polygon id="XMLID_375_" class="st2" points="352.9,173.8 342.6,186.1 342,186.1 352.9,173.1 				"/>
				<polygon id="XMLID_374_" class="st2" points="352.9,174.5 343.1,186.1 342.6,186.1 352.9,173.8 				"/>
				<polygon id="XMLID_373_" class="st2" points="352.9,175.1 343.7,186.1 343.1,186.1 352.9,174.5 				"/>
				<polygon id="XMLID_372_" class="st2" points="352.9,175.8 344.2,186.1 343.7,186.1 352.9,175.1 				"/>
				<polygon id="XMLID_371_" class="st2" points="352.9,176.4 344.8,186.1 344.2,186.1 352.9,175.8 				"/>
				<polygon id="XMLID_370_" class="st2" points="352.9,177.1 345.3,186.1 344.8,186.1 352.9,176.4 				"/>
				<polygon id="XMLID_369_" class="st2" points="352.9,177.7 345.9,186.1 345.3,186.1 352.9,177.1 				"/>
				<polygon id="XMLID_368_" class="st2" points="352.9,178.4 346.4,186.1 345.9,186.1 352.9,177.7 				"/>
				<polygon id="XMLID_367_" class="st2" points="352.9,179.1 347,186.1 346.4,186.1 352.9,178.4 				"/>
				<polygon id="XMLID_366_" class="st2" points="352.9,179.7 347.5,186.1 347,186.1 352.9,179.1 				"/>
				<polygon id="XMLID_365_" class="st2" points="352.9,180.4 348.1,186.1 347.5,186.1 352.9,179.7 				"/>
				<polygon id="XMLID_364_" class="st2" points="352.9,181 348.6,186.1 348.1,186.1 352.9,180.4 				"/>
				<polygon id="XMLID_363_" class="st2" points="348.6,186.1 352.9,181 352.9,186.1 				"/>
			</g>
		</g>
		<g id="XMLID_358_">
			<defs>
				<path id="XMLID_359_" d="M232.9,160.1c2.3,0.5,4.7,0.7,7,0.5c4.9-0.4,9.4-2.8,12.9-6.4c8.2-8.4,15.7-17.2,15.7-17.2
					s-8.9,9.7-21,18.6c-2.6,1.9-5.5,3.2-8.7,3.4c-11,0.7-12.5-9.5-12.5-9.5l0.4-0.6c0.9,0.5,2.1,0.7,3.3,0.3c2-0.6,3.2-2.3,2.8-3.8
					c-0.3-1.2-1.6-1.9-3-1.9l0,0l0,0c-0.4,0-0.9,0.1-1.3,0.2c-0.5,0.1-0.9,0.4-1.3,0.6c-1.4,0.5-3,1.3-3.9,2.3
					C221.6,148.3,221.9,157.5,232.9,160.1z"/>
			</defs>
			<use xlink:href="#XMLID_359_"  style="overflow:visible;fill:#C6AC75;"/>
			<clipPath id="XMLID_512_">
				<use xlink:href="#XMLID_359_"  style="overflow:visible;"/>
			</clipPath>
		</g>
		<g id="XMLID_356_">
			<defs>
				<path id="XMLID_357_" d="M200.8,273.2c-1-0.8-2.6-0.4-3.6,0.8c-0.6,0.8-0.9,1.7-0.8,2.5l-0.6,0.1c0,0-9-5.5-0.7-15.4
					c8.3-10,20.1-8.3,20.1-8.3s-10.6-1.8-18.7,4.9c-3.4,2.8-5.6,6.7-6.4,11c-1.5,8.7,5,11.7,6.7,11.1c1-0.4,2-1.3,2.8-2.1
					c0.3-0.2,0.6-0.4,0.8-0.7c0.2-0.3,0.4-0.6,0.5-0.9c0,0,0,0,0,0l0,0C201.7,274.9,201.6,273.8,200.8,273.2z"/>
			</defs>
			<use xlink:href="#XMLID_357_"  style="overflow:visible;fill:#C6AC75;"/>
			<clipPath id="XMLID_513_">
				<use xlink:href="#XMLID_357_"  style="overflow:visible;"/>
			</clipPath>
		</g>
		<g id="XMLID_354_">
			<path id="XMLID_355_" class="st0" d="M322.2,300.4c1.8-2.2,1.9-10.3-2.8-12.9c-4.7-2.6-10.8-1.7-12.1,3.6c0,0,5.2-3.1,7,0.5
				c0,0-6.2-1.5-5.7,3.3c0,0,4-1.8,5.6,1.7c1.6,3.5-1.2,6.5-2.9,6.9c0,0,4.5-3.9,0.6-6.8c-3.9-2.9-1,2.1-5.2,3.4
				c-4.2,1.3-7.9-1.5-7.6-5c0,0,1.5,5.5,6.7,3.5c3.6-1.3,2.6-2.3,1.3-3.6c-1.2-1.2-1.8-3-1.5-4.7c0.3-1.6,1.1-3,2.1-3.9
				c2.9-2.6,6.3-2.3,8.4-1.5c-0.9-1.6-1-2.6-1.1-3.9c-0.4-3.6,1.1-7.1,4-9.3c8.2-6.1,21.2-2.1,21.2-2.1c-7.4-0.6-12.3,0.9-15.2,2.4
				c-2.8,1.5-5.6,3.9-5.5,7.1c0,0.8,0.4,1.9,0.8,2.5c1.2,1.6,3.2,2.7,4.6,2.2c2.6-1,5.8-3.3,5.8-3.3c-1.3,3.2-1.5,5.6-1.4,7
				c0,1.2,0.8,2.3,1.9,2.6c0.8,0.2,1.8,0.1,2.8-1c0.2-0.3-0.1-0.7-0.4-0.5l0,0c-1.1,0.4-2-0.9-1.2-1.8c16.5-18.2,40.5-0.5,40.5-0.5
				c-19.7-9.7-31.7-2.3-33.2,2.9c-0.8,2.7,2.3,6.2,5.1,6.6c2.1,0.3,6.7-0.8,6.7-0.8s-0.5,0.9-0.5,2.3c0,2.1,2.2,3.4,4,2.5
				c3.3-1.5,8-3.2,12.5-3.1c3.7,0.1,8.9,1.2,12.3,2.7c2.7,1.2,4.1,2.2,6.8,3c4.9,1.4,5.9,0.9,5.9,0.9s-19.4-38.3-56.3-41.5
				c-28.4-2.5-39.4,13-41.3,21.1l0,0c0,0-0.4,2.2-0.5,5c-0.2,4.7,0.9,9.3,3.5,13.3c2.1,3.3,5.5,6.5,10.4,6.2
				C318.5,306.7,320.4,302.6,322.2,300.4z"/>
		</g>
		<g id="XMLID_349_">
			<defs>
				<path id="XMLID_350_" d="M258.5,134.9c7.3-3.3,24.2-8.3,24.2-8.3s4.9-1.7,12.3-2.5c-4.8,1.3-9.3,3.5-14.1,6.3
					c-12.3,7.4-16.6,20.1-16.6,20.1s-4.1,11.8-3.7,18.2c0.4,6.4,2.8,6.7,2.8,6.7c5,1.1,5-5.1,4.5-7.5c-0.3-1.4-0.8-4.4,1.3-2
					c2.4,2.5,4.5,0.8,4.5,0.8s2.1-1.2,0.2-5.1c-1.9-3.9,2.6-1.5,2.6-1.5s6.4,2.2,7.1-1.8c0.7-4-3.5-8.8-3.8-9.2
					c-2.6-3.1,2-3.4,2-3.4l2.4,0c3.3-1.7,1.3-4.9,1.3-6.6c0-1.7,0.2-1.8,3-1.5c2.8,0.3,4.8-6.2,4.8-6.2s6.3-5.9,16.7-6.5
					c10.4-0.5,22,8.3,22,8.3l0,0c0.5,0.5,1,0.9,1.5,1.4c-16.1-1.7-35.8,11.9-22,28.7c0,0,3.7,4.8,9.3-0.2c0,0,3.1-3.1,1.8-6.7
					c0,0-2,3.5-6.3,2c-4.3-1.5-4.8-5.1-2.4-7.5c0,0-1.9,4.2,1.9,5.5c3.8,1.3,5.1-0.2,5.5-1.4c0,0-4.8-4.7,2.3-11.1
					c7.2-6.5,21.2,0.2,19.8,7.5c-0.4,1.3-0.8,1.7-0.8,1.7s-6.3-2.6-6.4,4.1c0,6.2,5.4,7.6,8.5,6.7c2.1-0.6,5.9-3,7.1-7.2
					c1.6,3.1,3.3,8,3.8,14.9c0.1,0.9,0.1,1.7,0.2,2.6c0,4.7-1.3,14.4-11.7,19.2c-14.7,6.7-12.7-0.7-12.7-0.7s-3.1-3.4-6.3,0.9
					c0,0-1.3-3.9-5.7-3.6c0,0-5.4-1.3-2.7-8.5c0,0-9.3,1.7-7,13.3c0,0-2.9,2.7,1.9,7c5,4.5,18.2,7.2,30,1.8
					c-4.7,3.2-10.7,5.1-22,5.2c-6.2,0.1-12.3-1.4-17.6-4.6c-4.6-2.8-9.3-7.1-11.9-14c0,0,13.9,5.4,18.9-6.9
					c5-12.3-8.6-18.6-8.6-18.6s-12.2-5-18.5,10.7c-3.5,8.8,1,17.2,7,24.2c5.3,6.1,12.1,10.8,19.8,13c6.3,1.8,15.5,2.6,24,0.4
					c22.6-5.8,28.2-20,28.2-32.1c0-6.5-1.9-29.9-16.9-43.1c-2.3-2-4.3-3.8-6.2-5.4c0,0,0.1,0,0.1,0c0.1-0.1-5.7-5.6-10.6-10.3
					c-0.5-0.4-1-1-1.2-2.6c-0.1-0.7,0.1-2-0.8-2.8c-0.5-0.5-1.1-0.4-1.3,0.2c0,0.1,0,0.1-0.1,0.2c0,0-0.4-1.7,1.1-3.7
					c0.7-0.9,1.1-1.8,1.3-2.5c0.2-0.8,0.3-1.7,0-2.6c-0.2-0.6-0.5-1.2-1.1-0.9c-0.2,0.1-0.4,0.3-0.6,0.5c-0.5,0.7-1.6,2.9-2.2,3.7
					c-0.7,1-0.3-1.6-0.3-1.5c0,0.1,0.1-2.1,2.6-4.6c2.5-2.4,2.9-3.1,2.6-5.1c-0.2-1.6-1.9-1.6-2.7-0.7c-0.8,1-1.5,1.8-1.5,1.8
					c0,0-1.1,1.2-0.6-0.7c0.6-1.9,3.6-2.6,3.6-2.6c0,0,2.1-0.5,3.9-2.3c2-1.9,1.2-3.6,1.1-3.7c0,0-0.6-1.9-2.9-0.7
					c-0.5,0.3-1.1,0.7-1.6,1.1c-0.4,0.3-0.7,0.5-1.1,0.5c-0.4,0-0.5-0.5,0-1c1.4-1.3,2.9-2,6.3-4.3c1.1-0.7,1.1-0.8,1.2-1.5
					c0.1-0.5-0.4-1-0.9-1.2c-0.3-0.1-0.6-0.1-0.9-0.2c0,0-1.2,0.3-0.3-0.9c0.8-1.3,4.3-2.9,3.9-3.9c-0.1-0.3,0,0-0.6-0.8
					c-0.2-0.3-0.5-1.1-2.8,0.3c-2.4,1.7-3.1,1.8-3.5,1.2c-0.3-0.5-1.6-0.9-2.9,0.5c-1.3,1.4-2,3.1-2,3.1c0,0-1.3,2.9-1.7,1.8
					c-0.5-1.1,1.7-6.1-1.1-5.4c-1.6,0.4-2.9,2-3.5,3.1c-0.7,1.1-1.3,3.2-1.2,3.9c0.1,1,0.4,2.1,1,3.7c0.2,0.4,0.2,0.9,0.1,1.5
					c-0.1,0.7-0.3,1.4-1.2,1.8c-0.8,0.3-1.2,1.3-1.4,2.1c-0.1,0.4-0.1,0.8,0,1.2c0.1,0.4,0.2,0.8,0.5,1c0.7,0.6,2.8,2.9,2.5,6.2
					c0,0,0.1,0.6-1,0.1c-0.4-0.2-0.6-0.2-1,0.1c-0.4,0.3-0.7,1.2-0.5,2.2c0.1,1,0.5,1.7,1,2.3c0.7,0.9,1.5,1.7,2.3,2.5
					c0,0,1.9,1.5,1.1,2.4c-0.9,0.9-1.2,2,0.3,3.9c1.1,1.3,2.6,1.4,3.5,1.5c0.7,0.1,1.4,0.5,2,1.1c0.9,0.9,1.7,2.1,2.4,3.3
					c-4.6-3-8.4-4.6-13.1-6.2c-4.2-1.4-9-2.9-13.8-4.5c-16.6-9.3-11.5-11.3-11.5-11.3c2.7-1,3.2-5.5-0.6-5.5c-3.8,0-4.1,3.2-4.1,3.2
					c-3.6-0.8-3.1,2.6-3.1,2.6c-0.4,3.1,2.1,5.8,6,8.3c0,1.4-1.2,2.3-5.4,1.7c0,0-8.3,0.9-15.6-6.7c0,0,10-3.5,6.3-12.8
					c-3.8-9.3-14.5-7.8-19.8-1.3c-4.6,7.3,0.9,15.3,4.2,17.8c3.3,2.5,5.8,7.8,41.3,9.1c0,0-44,8.5-50.5-16.1c0,0-6.5,2.3-3.8,10.8
					c0,0-12.6,2.3-10.8,13.6C235.1,139.9,251.2,138.1,258.5,134.9z M323.4,119.2C323.4,119.2,323.4,119.3,323.4,119.2
					c-1.3-1-3.9-1.9-3.9-1.9c1.2-1,2.8,0.7,2.8,0.7c-0.1,0.1-2.5-3.8-2.8-5.5c-0.4-1.3-1.6-3-3-4.4c-0.1-0.1,0-0.2,0.1-0.2
					c1.2,0.3,2.7,2.7,2.7,2.7c-0.3-0.6-0.4-4.1-0.4-4.1c0-5.4-1.6-8.2-2.5-9.4c0-0.1,0-0.2,0.1-0.2c1.8,1.5,2.7,5,2.7,5
					c2.7-9.1-3.7-9.8,0-17.5c-2.5,5.1,1.6,11,1.7,10.8c3.1-6.7,4.5-11.1,4.8-12.6c0-0.1,0.1-0.1,0.2-0.1c0.4,1.6-0.7,4.5-0.8,4.8
					c1.8-2.6,3.7-2.9,5.8-5c0.1-0.1,0.1,0,0.1,0.1c-2.1,2.1-4.5,3.6-6.6,6.9c0,0.1,0,0.1,0.1,0.1c1.2-1.1,4.9-2.4,6.1-2.5
					c0.1,0,0.1,0.1,0,0.1c-1.2,0.4-4.7,1.8-6.4,3.6c-1.8,1.5-3.6,7.3-3.5,7.9c2.1-3.2,5.7-3.5,6.8-3.4c0.1,0,0.1,0.1,0,0.1
					c-1,0.3-2.9,1-3.5,1.3c-0.1,0.1-0.3,0.1-0.4,0.2c-0.5,0.3-2,1.3-2.9,3.1c-1.5,2.2-1.3,8.7-1.1,8.6c0,0,0.8-2.1,2.3-3.5
					c1.2-1,2.3-1.7,2.8-2c0.1,0,0.1,0.1,0.1,0.1c-0.5,0.7-1.9,1.7-2.9,2.8c-1.2,1.2-1.7,2.2-1.9,4.5c-0.3,2.6,2.9,7.6,3,7.4
					c0,0-0.9-3.3,0.7-5.1c0.9-1.1,1.6-2.3,1.8-2.8c0-0.1,0.1,0,0.1,0.1c-0.1,0.6-0.7,1.5-1.7,3.3
					C322.3,115.7,323.1,118.4,323.4,119.2z M301.2,124.8c-2,0.6-11.9,3.1-12.2,9.5c0,0-1-3.6,1.3-5.3c0,0-11.5,3.6-8.6,13.1
					c0,0-2.3-3.1-0.4-7.7c0,0-11.4,10.9-3,20.4c0,0-6.7-3.6-2.4-15.4c0,0-8.9,8.9-5.8,22.7c0,0.2-0.1,0.3-0.2,0.2
					c-0.7-0.4-2.3-5.7-1.4-10.6c0,0-3,7.6-4.3,18.1C264.1,169.8,261.7,132.9,301.2,124.8z"/>
			</defs>
			<use xlink:href="#XMLID_350_"  style="overflow:visible;fill:#C6AC75;"/>
			<clipPath id="XMLID_514_">
				<use xlink:href="#XMLID_350_"  style="overflow:visible;"/>
			</clipPath>
		</g>
		<g id="XMLID_325_">
			<g id="XMLID_345_">
				<defs>
					<path id="XMLID_346_" d="M424.7,331.7c-1.5,1.5-2.6,3.4-2.5,5.9c0.2,7.7,3.2,9.3,4.9,10.7c1.7,1.5,7.9,1.8,10.1-1.7
						c2.2-3.5,1.7-8.3-2.4-9.5c0,0,2.2,4.1-0.6,5.4c0,0,1.4-4.8-2.4-4.5c0,0,1.3,3.2-1.5,4.3c-2.8,1.1-5-1.1-5.3-2.5
						c0,0,2.9,3.6,5.3,0.7c2.4-2.9-1.6-0.9-2.4-4.2c-0.9-3.3,1.5-6.1,4.1-5.7c0,0-4.3,1-3,5.1c1.3,4.1,2.3,0.8,4.4,0
						c2.2-0.8,4.1-1,5.9-0.9c0.8,0.8,1.6,1.8,2.3,3.1c0.3,0.4,0.5,0.8,0.2,1.8c-0.1,0.4-0.6,1.3,0,1.9c0.3,0.3,0.9,0.4,1.2,0
						c0,0,0.1-0.1,0.1-0.1c0,0,0,1-1.5,2.3c-0.7,0.6-1.1,1.3-1.3,1.8c-0.2,0.6-0.2,1.3,0.1,1.9c0.2,0.4,0.6,0.7,1.1,0.4
						c0.2-0.1,0.3-0.3,0.4-0.5c0.3-0.6,1.3-2.1,1.8-2.7c0.7-0.6,0.3,0.9,0.3,0.9s-0.1,1.2-1.8,3.3c-1.7,2.2-1.7,3-0.8,4.2
						c0.8,1,2.2,0.2,2.5-0.6c0.3-0.8,0.6-1.5,0.6-1.5s0.6-1,0.7,0.2c0.1,1.2-2,2.8-2,2.8s-1.5,1.2-1.8,3.2c-0.3,2.2,1.6,2.6,1.6,2.6
						s1.6,0.4,2.3-1.4l0.4-1.3c0.1-0.3,0.3-0.6,0.5-0.8c0.3-0.2,0.6-0.1,0.6,0.4c-0.2,1.3-0.9,2.3-0.9,5.3c0,1,0.3,1.8,0.7,2.1
						c0.5,0.5,1.1,0.4,1.3-0.3l0.4-1.4c0,0,0.3-0.8,0.8,0c0.5,0.7,1.9,3.8,3.3,3.1c0.2-0.1,0.4-0.3,0.4-0.6c0.1-0.3,0-0.8-0.5-1.6
						c-0.9-1.4-0.1-2.1,0.5-2.1c0.5-0.1,1.4-0.7,1.1-1.7c-0.3-0.9-0.9-1.7-0.9-1.7s-0.8-0.9,0.1-0.8c0.9,0.1,2.8,1,4-0.5
						c0.6-0.8,0.5-1.5,0.2-1.9c-0.2-0.3-0.5-0.6-0.9-0.8c-0.5-0.2-1.6-0.7-2.7-0.9c-0.3-0.1-0.5-0.2-0.7-0.4
						c-0.2-0.3-0.3-0.6,0.3-1.1c0.5-0.4,0.5-0.9,0.4-1.2c-0.1-0.2-0.2-0.3-0.3-0.4c-0.2-0.1-0.4-0.2-0.7-0.3c-0.7,0-3.3-0.4-3.6-2.1
						c0,0-0.2-0.3,0.9-0.2c0.4,0,0.6-0.1,0.9-0.2c0.4-0.2,0.5-0.7,0.3-1.1c-0.2-0.4-0.6-0.7-1-1l-2.1-1c0,0-1.7-0.7-0.8-1.2
						c0.9-0.5,1.3-1,0.3-2c-0.7-0.7-2-0.9-2.8-1.1c-0.6-0.1-1.1-0.4-1.4-0.9l-2.7-3.9c0.8,0.1,1.6,0.3,2.3,0.5c1,0.7,2,1.3,2.8,1.9
						c2.2,1.5,4.2,3.2,6.1,5.2c4.8,5,16.4,15.8,27.7,18.7c14.8,3.8,40.1-4.6,47.9-27c6.8-22.6-10.6-29.8-10.6-29.8
						c-4.3-1.7-8.9-2.2-11.6-1.1c-4.9,2-7,6.6-7.1,11.9c-0.1,3.7,0.6,6.7,5.7,8.9c9.6,4,15.4-5.4,15.4-5.4c2.2,3,1.8,4.8,2,8.3
						c0.2,2.9-1.2,5.8-3.8,7.2c-9,5.2-13.6-2.3-15.1-5.3c-0.2-0.5-0.9-0.5-1.2,0c-7.6,12.9,8,16.7,8,16.7c-5.5,4.4-12.2,5-15.1,2.8
						c-2.4-1.8-4-3.8-3.6-8.1c1.6-20.7-17.2-22.9-17.2-22.9c-0.7-4.2,2.8-7.6,4.8-9.2c0.5-0.3,0.2-1.1-0.3-1.1
						c-22.5-0.7-24.6,16.6-24.6,16.6C436.3,316.9,424.7,331.7,424.7,331.7L424.7,331.7z M444.1,340.5
						C444.1,340.4,444.1,340.4,444.1,340.5c0.9,0.8,3.1,1.3,3.1,1.3c-1.3,0.5-2.4-0.5-2.4-0.5s1.6,2.2,1.9,3.1
						c0.3,0.7,1.5,1.5,2.8,2c0.1,0,0,0.1,0,0.1c-1.1,0.1-2.6-1-2.6-1c0.2,0.3,0.6,2.1,0.6,2.1c0.8,2.9,3.3,3.6,4.4,3.7
						c0.1,0,0.1,0.1,0,0.1c-2,0.1-3.8-1.4-3.8-1.4c0.3,4.8,6.6,5.6,7.9,5.7c0,0,0.1,0.1,0,0.1c-2.9,1.1-6.9-2.2-6.9-2.2
						c0.6,4.1,3.3,5.9,4,6.3c0,0,0,0.1,0,0.1c-1.3-0.1-2.6-1.4-2.7-1.6c-0.1,0.4,0.4,2.7,1,4.4c0,0.1-0.1,0.1-0.1,0
						c-0.7-1.6-1.6-3.5-1.8-5.4c0-0.1-0.1-0.1-0.1,0c-0.2,0.9-1.5,3.4-1.9,4.2c0,0.1-0.1,0-0.1,0c0.2-0.9,1.3-3.3,1.5-4.8
						c0.2-1.4-0.8-4.6-1-4.8c-0.6,2.2-3,4-3.8,4.6c0,0-0.1,0-0.1-0.1c0.5-0.7,1.7-1.9,2-2.3c0.1-0.1,0.2-0.2,0.2-0.3
						c0.3-0.4,1-1.4,1.3-2.6c0.4-1.5-0.7-4.8-0.7-4.8s-0.5,1.3-1.6,2.4c-0.9,0.9-1.6,1.6-2,1.9c0,0-0.1,0-0.1-0.1
						c0.3-0.6,1.2-1.6,2-2.4c0.9-1,1.2-1.5,1.3-2.9c0.1-1.3-2-4.2-2-4.2s0.2,1.9-1.2,3.1c-0.9,0.8-1.5,1.6-1.6,2c0,0.1-0.1,0-0.1,0
						c0.1-0.4,0.5-1.1,1.6-2.3C444.3,342.5,444.1,341,444.1,340.5z"/>
				</defs>
				<use xlink:href="#XMLID_346_"  style="overflow:visible;fill:#C6AC75;"/>
				<clipPath id="XMLID_515_">
					<use xlink:href="#XMLID_346_"  style="overflow:visible;"/>
				</clipPath>
			</g>
			<g id="XMLID_341_">
				<defs>
					<path id="XMLID_342_" d="M546.6,257.1c1.9-0.1,3.6-1.3,4.6-2.9c4.4-7.3-0.9-18.4-10.7-26.1c-1.1-0.9-2.3-1.7-3.6-2.3
						c-4.5-2.2-9.5-3.6-11.4-3.9c6.3,0.9,16.7,4.8,28.9,12.3c3.1,1.9,6.1,4.6,9,7.6c1,2,2,4.6,2.6,7.9c0.3,0.9,0.4,1.9-0.9,3.6
						c-0.5,0.7-1.9,2-1.1,3.5c0.4,0.9,1.4,1.2,2.3,0.8c0.1,0,0.2-0.1,0.3-0.2c0,0-0.7,1.9-4.4,3.4c-1.8,0.7-2.9,1.7-3.5,2.6
						c-0.8,1-1.2,2.3-1,3.6c0.1,0.9,0.6,1.8,1.8,1.5c0.4-0.1,0.8-0.3,1.1-0.6c1-0.9,3.8-3.2,5.2-3.8c1.7-0.8-0.1,1.9-0.1,1.9
						s-1,2.1-5.6,5.1c-4.6,2.9-5.2,4.5-4.2,7.3c0.9,2.4,4,1.7,5,0.5c1.2-1.4,2.2-2.4,2.2-2.4s1.9-1.5,1.2,0.9
						c-0.6,2.3-5.6,3.9-5.6,3.9s-3.6,1.2-5.5,4.9c-2,4,1.2,5.9,1.2,5.9s2.7,1.8,5.2-1.1l1.6-2.3c0.4-0.5,0.9-0.9,1.5-1.1
						c0.6-0.2,1.2,0.3,0.7,1.2c-1.1,2.3-3.1,3.7-5,9.3c-0.6,1.8-0.6,3.6-0.1,4.5c0.7,1.3,1.9,1.5,2.7,0.3l1.8-2.4c0,0,1-1.3,1.6,0.5
						c0.5,1.7,1.2,8.3,4.2,8c0.5-0.1,0.9-0.3,1.2-0.8c0.3-0.6,0.6-1.6,0.1-3.3c-0.8-3.2,1.2-3.9,2.3-3.7c1,0.2,3.1-0.5,3-2.4
						c0-1.9-0.7-3.7-0.7-3.7s-0.9-2.3,0.7-1.5c1.6,0.8,4.6,3.7,7.8,1.8c1.7-1.1,1.8-2.5,1.6-3.5c-0.2-0.8-0.6-1.5-1.2-2
						c-0.8-0.8-2.5-2.3-4.5-3.5c-0.5-0.3-0.9-0.8-1-1.3c-0.2-0.6-0.2-1.4,1.2-1.8c1.3-0.4,1.6-1.3,1.6-2c0-0.4-0.1-0.7-0.3-1
						c-0.2-0.3-0.7-0.7-1.2-1c-1.4-0.6-5.8-2.9-5.3-6.3c0,0-0.1-0.6,1.8,0.1c0.7,0.2,1.1,0.3,1.8,0.1c0.8-0.2,1.3-0.9,1.2-1.9
						c-0.1-0.9-0.6-1.7-1.2-2.4l-3.2-3.3c0,0-2.7-2.4-0.7-2.8c2-0.4,3.1-1,1.9-3.6c-0.8-1.8-3.1-3.1-4.5-3.9c-1-0.6-1.8-1.6-2.1-2.7
						l-2-7.1c11.9,14.3,21.9,35,33.3,43c15.1,10.5,26.7-6.4,26.7-6.4c-3.1,1.8-18.5,10.8-29.5-2.9c13.2,12.7,29.5,2.9,30.5-1.1
						c1.2-5,2.6-12.3-1.9-17.7c-6-7.2-12-6.8-15.6-5.4c-1.1,0.2-2,0.7-2.7,1.4c-0.6,0.4-0.9,0.6-0.9,0.6s0.1,0,0.3,0
						c-0.4,0.6-0.7,1.3-0.7,2c0,2.3,2.4,4.2,5.3,4.2c1.6,0,3.1-0.6,4-1.5l0,0c2.5,2.8,1.6,16.5-11,14.7
						c-12.3-1.8-21.7-18.7-29.5-29.5c-7.8-10.8-24.1-21.9-32.1-24.7c-8.5-2.9-22.7-5.3-37.9-1.8c-11.6,3.2-15.7,11.3-17.1,15.7
						c-1.3,4.2-1.3,14.3,4.9,18.3c5,3.3,10.9,3.6,16.3-0.9c4.7-3.9,3.6-10,1.9-12.8c-1.8-2.8-7.2-5.8-11.2-0.9
						c-2.8,2.9-1.4,6.4,1.1,6.8c1.6,0.2,2.6-1,2.6-1c2,0.7,1.7,3.5,0.8,4.5c-1.4,1.6-4.1,1-6.1,0.2c-7.3-2.9-5.3-11.5-5.3-11.5
						s1.5-11.1,16.4-15.2c4-1.1,8.2-0.4,11.6,2c6.6,4.7,9.4,10,9.4,10c8.4,13.8-3.5,15.2-3.5,15.2c-2.5-1.6-4.1,0.1-3.2,4.2
						c0.9,4.1,6.2,2.7,6.2,2.7s1,5,6.1,5c5.2,0,8.5-6.1,8.5-6.1C545.2,257,545.9,257.1,546.6,257.1z M569,255.9c0-0.1,0.1-0.1,0.2,0
						c1,2,4.8,4.5,4.8,4.5c-2.7,0.2-4.2-2.5-4.2-2.5s1.5,5.2,1.6,7c0.1,1.5,1.8,3.8,4,5.5c0.1,0.1,0,0.2-0.1,0.2
						c-2.1-0.6-4.2-3.6-4.2-3.6c0.1,0.7-0.2,4.4-0.2,4.4c-0.4,5.9,3.9,8.8,5.8,9.8c0.1,0.1,0,0.2-0.1,0.2c-3.8-1.2-6.2-5.1-6.2-5.1
						c-2.6,9.1,8.8,14.9,11,15.9c0.1,0,0.1,0.2,0,0.2c-6.1,0.2-11.5-8.6-11.5-8.6c-1.6,8.1,2.3,13.1,3.4,14.3c0.1,0.1,0,0.2-0.1,0.2
						c-2.5-1-4-4.4-4.1-4.7c-0.5,0.6-1.1,5.3-0.9,8.9c0,0.1-0.2,0.1-0.2,0c-0.3-3.5-0.7-7.5,0.2-11.3c0-0.1-0.1-0.2-0.2-0.1
						c-1,1.6-5,5.5-6.3,6.6c-0.1,0.1-0.2,0-0.1-0.1c1-1.5,4.6-5.3,5.9-7.9c1.3-2.5,1.5-9,1.3-9.6c-2.6,3.7-8.3,5.6-10.1,6.1
						c-0.1,0-0.2-0.1-0.1-0.2c1.4-0.9,4.4-2.4,5.3-2.9c0.2-0.1,0.4-0.2,0.6-0.3c0.8-0.5,2.8-2,4-4c1.6-2.5,1.8-9.5,1.8-9.5
						s-1.8,2-4.6,3.4c-2.2,1.1-4.1,2-4.9,2.3c-0.1,0-0.2-0.1-0.1-0.2c0.8-0.9,3.4-2.2,5.3-3.3c2.2-1.2,3.3-2.1,4.4-4.5
						c1.1-2.4-1.1-9.2-1.1-9.2s-0.9,3.7-4.3,4.9c-2.2,0.8-3.8,2.1-4.4,2.6c-0.1,0.1-0.2,0-0.2-0.1c0.4-0.7,1.7-1.8,4.5-3.3
						C568.1,259.9,568.8,256.8,569,255.9z"/>
				</defs>
				<use xlink:href="#XMLID_342_"  style="overflow:visible;fill:#C6AC75;"/>
				<clipPath id="XMLID_516_">
					<use xlink:href="#XMLID_342_"  style="overflow:visible;"/>
				</clipPath>
			</g>
			<g id="XMLID_337_">
				<defs>
					<path id="XMLID_338_" d="M652.5,242.8c0,0,1.8-0.3,2.5,0c0.8,0.3,2.1-1.1-0.2-1.9c-1.5-0.5-2.5-0.5-3-0.5
						c-0.3,0-0.7-0.2-0.7-0.6c0-0.3,0.2-0.5,0.8-0.6c1.4-0.1,5.4,0.6,9.6,2.5c4.3,1.9,11.1,4.5,11.1,4.5s4.2,1.4,6.2-0.1
						c0.4-0.3,0.8-0.4,1.3-0.3c1.2,0.1,3.4,0.3,4.2,0.1c1.3-0.4,4-2.6,0.7-4.7c-1.9-1.2-3.3-1.7-4-1.7c-1.2-0.1-2.3-0.9-2.5-2.1
						c0-0.1,0-0.2,0-0.2c-0.1-1.1,1.3-1,2.2-0.8c0.9,0.2,1.9,0.3,2.9,0.3c1.3,0,2.8-0.2,3.4-0.9c1-1.2,1.1-1.2,1.1-3.4
						c0-1.6,1-3.1,1.5-3.7c0.3-0.4,0.6-0.9,0.7-1.4c0.2-0.8,0.2-1.8-0.7-2.7c-1.7-1.6-4-0.5-4.2-0.3c-0.1,0.1-2.4-3.4-5.2-1.3
						c-1.7,1.3-1.9,2.5-2.1,3.1c-0.2,0.8-0.5,1.6-1.1,2.3c-0.8,0.8-1.9,1.7-3.3,1.8c-2.9,0.3-3-3.1-0.6-4.9
						c2.4-1.8,8.8-7.2,10.5-9.9c1.1-1.7,1.3-3.4,1.2-3.8c-0.1-0.4-0.5-1.9-2.8-1.5c-2.2,0.3-3.4,0.1-3.2-2.5
						c0.3-3.4-1.2-5.6-1.2-5.6s-0.4-1.1-2-1.3c-1.5-0.2-2.2-0.3-2.7-0.8c-0.6-0.5-1.9,0.3-2.2,2.2c-0.2,1.9-1.5,3-2.7,3
						c-1.2,0-2.1-0.5-2.6-2c-0.5-1.5-2.6-1.7-4.2-0.2s-2.3,4.6-2.2,7c0.1,1.7,0.3,4.4,0.1,5.8c-0.1,0.9-0.5,1.7-1.2,2.2
						c-0.7,0.5-1.5,0.7-2.1-0.8c-0.3-0.8-0.4-1.8-0.3-2.7c0.2-1.5,0.6-4.4,0.5-5.9c-0.2-2.1,0-4.6-4.2-6.6c0,0-2.1,12.2-6.5,19.9
						c-3.8,6.7-10.1,19.1-29.3,20.6c0.4-0.2,0.8-0.2,1.2-0.4c0,0,22.1-10.4,17.4-28.3c0,0-1-5-5.4-4.7c0,0,6.1,5.2-0.4,15.9
						c1.5-2.8,4.5-10.3-2.7-17.6c-1-1-2.4-1.6-3.9-1.6l-3,0.1c0,0-2.9-0.7-1.4-2.4c0,0-5.3-3.1-7.7,7.2c0,0,11.7,9.1-4.8,24.6
						c3.4-3.4,12-13.4,4.9-20.6c0,0-3.5-4.6-8.9,0.2c0,0-3,2.9-1.8,6.4c0,0,1.9-3.4,6-1.9c4.1,1.4,4.6,4.9,2.3,7.2
						c0,0,1.9-4-1.8-5.3c-3.7-1.2-4.9,0.1-5.2,1.3c0,0,4.6,4.5-2.2,10.6c-6.8,6.2-20.3-0.2-18.9-7.2c0.4-1.2,0.7-1.6,0.7-1.6
						s6.1,2.5,6.1-4c0-5.9-5.2-7.3-8.2-6.4c-1.7,0.5-4.7,2.3-6.2,5.4c-2.2-6-2.6-13.6,2-22.8c0,0,4.3,7.3,11.2,5
						c1.5-0.4,3-1.2,4.6-2.8c6.9-6.8,0.3-17.3-8.4-17.2c-5-0.3-7.3,0.9-9.9,2.8c-5.9,4.3-8.8,11.7-9.1,19
						c-0.4,10.4,2.9,20.6,8.2,26.7c0.3,0.3,0.6,0.6,0.9,0.9c3.9,3.8,6.9,10.2,25.3,16.9c9.4,3.3,21.9,0.4,28.1-1.5
						c1.2,0.8,2.9,1.7,5.1,1.9c0,0,2.1,0.7,1.9-2.3c0,0-0.4-1.9,3.5-0.7c2.9,0.8,5.3,0.9,6.4,0.8c0.5,0,1-0.2,1.4-0.4
						c0.5-0.3,0.8-0.8-0.2-1.4c-1-0.6-1.6-0.6-1.9-0.6c-0.3,0-0.6-0.1-0.8-0.4c-0.2-0.3-0.1-0.6,1-0.5l8.5,1.4
						C650,243.7,653.2,243.9,652.5,242.8z M648.2,234.6c-0.5,0.3-1,0.6-1.6,0.9c-6.5,3.2-11.9,4.7-11.9,4.7c7-0.3,11.4,0.8,12.4,1.1
						c-1.5-0.3-8.8-0.3-12.3-0.3c-1,0-2,0.1-3,0.3c-1.9,0.4-5.4,0.7-5.4,0.7c1.5-0.2,3.4-0.8,5-1.3c1.5-0.5,3.1-0.9,4.4-1.8
						c3.1-2.2,8.4-7.7,8.4-7.7c-0.5,1.4-7.5,7.9-7.5,7.9c0.9-0.3,7.6-3.3,10.8-4.8c3.2-1.5,3.8-5.8,3.6-9.7
						c-0.2-3.8,0.9-11.5,0.9-11.5s-0.8,7.1-0.1,11.6c0.7,4.5-0.8,7.4-0.8,7.4c1.4-0.1,8.7-6.7,10.9-8.8c2.2-2.2,2.5-14.3,2.5-14.3
						c1.1,7.4-0.6,12.9-0.6,12.9c8.4-7.9,10.3-17.9,10.3-17.9s0.4,6.5-5.4,14.1c-5.8,7.7-17.1,14.8-17.1,14.8
						c2.1-0.3,9.2,0.8,9.2,0.8s9.9,1.2,13.5-0.3c3.7-1.5,7-6.4,7-6.4c-1.6,4.7-5.5,6.7-5.5,6.7c5-0.6,8.3-4.3,8.3-4.3
						c-1.3,1.9-3.5,3.6-3.5,3.6c0.9-0.3,4.3,0.1,4.3,0.1s-4.9,0.7-8.7,1.4c-3.8,0.7-13.4,0.6-13.4,0.6s3.2,1.7,7.9,4.6
						c4.7,2.9,8.4,3.3,8.4,3.3c-7.3-0.5-13-5-13-5c-6.4-4.5-8.9-3.6-12.9-4.1C650.4,233.4,648.8,234.2,648.2,234.6z"/>
				</defs>
				<use xlink:href="#XMLID_338_"  style="overflow:visible;fill:#C6AC75;"/>
				<clipPath id="XMLID_517_">
					<use xlink:href="#XMLID_338_"  style="overflow:visible;"/>
				</clipPath>
			</g>
			<g id="XMLID_335_">
				<defs>
					<path id="XMLID_336_" d="M609,160.1c-2.3,0.5-4.7,0.7-7,0.5c-4.9-0.4-9.4-2.8-12.9-6.4c-8.2-8.4-15.7-17.2-15.7-17.2
						s8.9,9.7,21,18.6c2.6,1.9,5.5,3.2,8.7,3.4c11,0.7,12.5-9.5,12.5-9.5l-0.4-0.6c-0.9,0.5-2.1,0.7-3.3,0.3c-2-0.6-3.2-2.3-2.8-3.8
						c0.3-1.2,1.6-1.9,3-1.9l0,0l0,0c0.4,0,0.9,0.1,1.3,0.2c0.5,0.1,0.9,0.4,1.3,0.6c1.4,0.5,3,1.3,3.9,2.3
						C620.3,148.3,620,157.5,609,160.1z"/>
				</defs>
				<use xlink:href="#XMLID_336_"  style="overflow:visible;fill:#C6AC75;"/>
				<clipPath id="XMLID_518_">
					<use xlink:href="#XMLID_336_"  style="overflow:visible;"/>
				</clipPath>
			</g>
			<g id="XMLID_333_">
				<defs>
					<path id="XMLID_334_" d="M641.1,273.2c1-0.8,2.6-0.4,3.6,0.8c0.6,0.8,0.9,1.7,0.8,2.5l0.6,0.1c0,0,9-5.5,0.7-15.4
						c-8.3-10-20.1-8.3-20.1-8.3s10.6-1.8,18.7,4.9c3.4,2.8,5.6,6.7,6.4,11c1.5,8.7-5,11.7-6.7,11.1c-1-0.4-2-1.3-2.8-2.1
						c-0.3-0.2-0.6-0.4-0.8-0.7c-0.2-0.3-0.4-0.6-0.5-0.9c0,0,0,0,0,0l0,0C640.2,274.9,640.3,273.8,641.1,273.2z"/>
				</defs>
				<use xlink:href="#XMLID_334_"  style="overflow:visible;fill:#C6AC75;"/>
				<clipPath id="XMLID_519_">
					<use xlink:href="#XMLID_334_"  style="overflow:visible;"/>
				</clipPath>
			</g>
			<g id="XMLID_331_">
				<path id="XMLID_332_" class="st0" d="M519.7,300.4c-1.8-2.2-1.9-10.3,2.8-12.9c4.7-2.6,10.8-1.7,12.1,3.6c0,0-5.2-3.1-7,0.5
					c0,0,6.2-1.5,5.7,3.3c0,0-4-1.8-5.6,1.7c-1.6,3.5,1.2,6.5,2.9,6.9c0,0-4.5-3.9-0.6-6.8c3.9-2.9,1,2.1,5.2,3.4
					c4.2,1.3,7.9-1.5,7.6-5c0,0-1.5,5.5-6.7,3.5c-3.6-1.3-2.6-2.3-1.3-3.6c1.2-1.2,1.8-3,1.5-4.7c-0.3-1.6-1.1-3-2.1-3.9
					c-2.9-2.6-6.3-2.3-8.4-1.5c0.9-1.6,1-2.6,1.1-3.9c0.4-3.6-1.1-7.1-4-9.3c-8.2-6.1-21.2-2.1-21.2-2.1c7.4-0.6,12.3,0.9,15.2,2.4
					c2.8,1.5,5.6,3.9,5.5,7.1c0,0.8-0.4,1.9-0.8,2.5c-1.2,1.6-3.2,2.7-4.6,2.2c-2.6-1-5.8-3.3-5.8-3.3c1.3,3.2,1.5,5.6,1.4,7
					c0,1.2-0.8,2.3-1.9,2.6c-0.8,0.2-1.8,0.1-2.8-1c-0.2-0.3,0.1-0.7,0.4-0.5l0,0c1.1,0.4,2-0.9,1.2-1.8
					c-16.5-18.2-40.5-0.5-40.5-0.5c19.7-9.7,31.7-2.3,33.2,2.9c0.8,2.7-2.3,6.2-5.1,6.6c-2.1,0.3-6.7-0.8-6.7-0.8s0.5,0.9,0.5,2.3
					c0,2.1-2.2,3.4-4,2.5c-3.3-1.5-8-3.2-12.5-3.1c-3.7,0.1-8.9,1.2-12.3,2.7c-2.7,1.2-4.1,2.2-6.8,3c-4.9,1.4-5.9,0.9-5.9,0.9
					s19.4-38.3,56.3-41.5c28.4-2.5,39.4,13,41.3,21.1l0,0c0,0,0.4,2.2,0.5,5c0.2,4.7-0.9,9.3-3.5,13.3c-2.1,3.3-5.5,6.5-10.4,6.2
					C523.4,306.7,521.5,302.6,519.7,300.4z"/>
			</g>
			<g id="XMLID_326_">
				<defs>
					<path id="XMLID_327_" d="M608.8,127.3c1.8-11.3-10.8-13.6-10.8-13.6c2.8-8.5-3.8-10.8-3.8-10.8c-6.5,24.6-50.5,16.1-50.5,16.1
						c35.4-1.3,38-6.6,41.3-9.1c3.3-2.5,8.9-10.5,4.2-17.8c-5.3-6.6-16.1-8-19.8,1.3s6.3,12.8,6.3,12.8c-7.3,7.5-15.6,6.7-15.6,6.7
						c-4.2,0.6-5.4-0.4-5.4-1.7c4-2.5,6.4-5.2,6-8.3c0,0,0.5-3.4-3.1-2.6c0,0-0.3-3.2-4.1-3.2c-3.8,0-3.3,4.5-0.6,5.5
						c0,0,5.1,2-11.5,11.3c-4.8,1.7-9.6,3.1-13.8,4.5c-4.7,1.6-8.6,3.3-13.1,6.2c0.8-1.1,1.5-2.3,2.4-3.3c0.6-0.6,1.3-1,2-1.1
						c0.9-0.1,2.4-0.2,3.5-1.5c1.5-1.9,1.2-3,0.3-3.9c-0.9-0.9,1.1-2.3,1.1-2.4c0.8-0.8,1.6-1.6,2.3-2.5c0.4-0.6,0.8-1.4,1-2.3
						c0.2-1-0.1-1.9-0.5-2.2c-0.3-0.2-0.6-0.3-1-0.1c-1.1,0.5-1-0.1-1-0.1c-0.2-3.3,1.8-5.6,2.5-6.2c0.3-0.2,0.5-0.7,0.5-1
						c0.1-0.3,0.1-0.7,0-1.2c-0.1-0.7-0.5-1.7-1.4-2.1c-0.9-0.4-1.1-1.1-1.2-1.8c-0.1-0.6,0-1.1,0.1-1.5c0.6-1.6,1-2.7,1-3.7
						c0.1-0.7-0.6-2.8-1.2-3.9c-0.6-1.1-1.9-2.7-3.5-3.1c-2.8-0.7-0.6,4.3-1.1,5.4c-0.3,1.1-1.6-1.8-1.7-1.8c0,0-0.7-1.7-2-3.1
						c-1.3-1.4-2.6-1-2.9-0.5c-0.3,0.6-1,0.5-3.5-1.2c-2.3-1.5-2.7-0.6-2.8-0.3c-0.6,0.8-0.5,0.6-0.6,0.8c-0.4,1,3.1,2.6,3.9,3.9
						c0.9,1.2-0.3,0.9-0.3,0.9c-0.3,0.1-0.6,0.1-0.9,0.2c-0.5,0.2-1,0.7-0.9,1.2c0.1,0.6,0.1,0.7,1.2,1.5c3.4,2.4,4.9,3,6.3,4.3
						c0.5,0.6,0.4,1,0,1c-0.4,0-0.8-0.2-1.1-0.5c-0.5-0.4-1-0.8-1.6-1.1c-2.3-1.2-2.9,0.7-2.9,0.7c0,0.1-0.9,1.8,1.1,3.7
						c1.8,1.8,3.9,2.3,3.9,2.3c0,0,3,0.6,3.6,2.6c0.6,1.9-0.6,0.7-0.6,0.7c0,0-0.6-0.8-1.5-1.8c-0.8-0.9-2.5-0.9-2.7,0.7
						c-0.3,2,0.1,2.7,2.6,5.1c2.4,2.5,2.5,4.6,2.6,4.6c0,0,0.4,2.5-0.3,1.5c-0.5-0.8-1.7-3-2.2-3.7c-0.1-0.2-0.3-0.4-0.6-0.5
						c-0.6-0.3-0.9,0.3-1.1,0.9c-0.2,0.8-0.2,1.8,0,2.6c0.2,0.7,0.6,1.6,1.3,2.5c1.5,2,1.1,3.7,1.1,3.7c0-0.1,0-0.1-0.1-0.2
						c-0.2-0.6-0.8-0.6-1.3-0.2c-0.8,0.8-0.7,2.1-0.8,2.8c-0.2,1.6-0.7,2.2-1.2,2.6c-4.9,4.7-10.7,10.2-10.6,10.3c0,0,0.1,0,0.1,0
						c-1.9,1.6-4,3.4-6.2,5.4c-15,13.3-16.9,36.7-16.9,43.1c0,12.1,5.6,26.4,28.2,32.1c8.5,2.2,17.7,1.4,24-0.4
						c7.8-2.2,14.6-6.9,19.8-13c6-7,10.5-15.4,7-24.2c-6.3-15.8-18.5-10.7-18.5-10.7s-13.7,6.3-8.6,18.6c5,12.3,18.9,6.9,18.9,6.9
						c-2.6,6.9-7.3,11.3-11.9,14c-5.3,3.2-11.4,4.7-17.6,4.6c-11.4-0.2-17.3-2.1-22-5.2c11.8,5.4,25,2.8,30-1.8c4.8-4.3,1.9-7,1.9-7
						c2.3-11.7-7-13.3-7-13.3c2.7,7.2-2.7,8.5-2.7,8.5c-4.4-0.2-5.7,3.6-5.7,3.6c-3.2-4.3-6.3-0.9-6.3-0.9s2,7.4-12.7,0.7
						c-10.4-4.8-11.7-14.5-11.7-19.2c0-0.9,0.1-1.7,0.2-2.6c0.4-6.9,2.2-11.8,3.8-14.9c1.2,4.2,5,6.6,7.1,7.2
						c3.1,0.9,8.6-0.5,8.5-6.7c0-6.8-6.4-4.1-6.4-4.1s-0.4-0.4-0.8-1.7c-1.4-7.3,12.6-13.9,19.8-7.5c7.2,6.5,2.3,11.1,2.3,11.1
						c0.4,1.2,1.7,2.7,5.5,1.4c3.8-1.3,1.9-5.5,1.9-5.5c2.4,2.4,1.9,6-2.4,7.5c-4.3,1.5-6.3-2-6.3-2c-1.3,3.6,1.8,6.7,1.8,6.7
						c5.6,5,9.3,0.2,9.3,0.2c13.8-16.8-5.9-30.4-22-28.7c0.5-0.5,1-1,1.5-1.4l0,0c0,0,11.7-8.9,22-8.3c10.4,0.5,16.7,6.5,16.7,6.5
						s2,6.5,4.8,6.2c2.8-0.3,3-0.3,3,1.5c0,1.7-2.1,5,1.3,6.6l2.4,0c0,0,4.5,0.3,2,3.4c-0.3,0.4-4.5,5.2-3.8,9.2
						c0.7,4,7.1,1.8,7.1,1.8s4.6-2.5,2.6,1.5c-1.9,3.9,0.2,5.1,0.2,5.1s2.2,1.6,4.5-0.8c2.2-2.4,1.7,0.6,1.3,2
						c-0.6,2.4-0.5,8.6,4.5,7.5c0,0,2.4-0.3,2.8-6.7c0.4-6.4-3.7-18.2-3.7-18.2s-4.4-12.7-16.6-20.1c-4.8-2.9-9.3-5-14.1-6.3
						c7.4,0.8,12.3,2.5,12.3,2.5s16.9,5.1,24.2,8.3C590.7,138.1,606.8,139.9,608.8,127.3z M518.3,113.4c-1-1.8-1.6-2.7-1.7-3.3
						c0-0.1,0.1-0.1,0.1-0.1c0.2,0.5,0.8,1.6,1.8,2.8c1.5,1.7,0.7,5.1,0.7,5.1c0.1,0.2,3.3-4.9,3-7.4c-0.2-2.4-0.8-3.3-1.9-4.5
						c-1-1.1-2.4-2.1-2.9-2.8c0-0.1,0-0.2,0.1-0.1c0.4,0.3,1.6,1,2.8,2c1.6,1.3,2.3,3.5,2.3,3.5c0.2,0,0.4-6.4-1.1-8.6
						c-1-1.7-2.4-2.7-2.9-3.1c-0.1-0.1-0.3-0.1-0.4-0.2c-0.6-0.3-2.5-1-3.5-1.3c-0.1,0-0.1-0.1,0-0.1c1,0,4.7,0.2,6.8,3.4
						c0.2-0.6-1.6-6.3-3.5-7.9c-1.7-1.8-5.2-3.2-6.4-3.6c-0.1,0-0.1-0.1,0-0.1c1.2,0.1,4.9,1.4,6.1,2.5c0.1,0.1,0.1,0,0.1-0.1
						c-2.1-3.4-4.5-4.9-6.6-6.9c-0.1-0.1,0-0.2,0.1-0.1c2.2,2.1,4,2.3,5.8,5c0-0.3-1.1-3.2-0.8-4.8c0-0.1,0.1,0,0.2,0.1
						c0.3,1.5,1.7,5.9,4.8,12.6c0,0.2,4.1-5.7,1.7-10.8c3.7,7.8-2.8,8.4,0,17.5c0,0,0.9-3.5,2.7-5c0.1,0,0.1,0.1,0.1,0.2
						c-0.9,1.2-2.4,4.1-2.5,9.4c0.1,0-0.1,3.4-0.4,4.1c0,0,1.5-2.4,2.7-2.7c0.1,0,0.1,0.1,0.1,0.2c-1.4,1.4-2.6,3.2-3,4.4
						c-0.4,1.7-2.8,5.6-2.8,5.5c0,0,1.7-1.7,2.8-0.7c0,0-2.6,0.9-3.8,2c-0.1,0-0.1,0-0.1-0.1C518.8,118.4,519.6,115.7,518.3,113.4z
						 M577.7,169.8c-1.3-10.5-4.3-18.1-4.3-18.1c0.9,5-0.7,10.3-1.4,10.6c-0.1,0.1-0.3-0.1-0.2-0.2c3.1-13.8-5.8-22.7-5.8-22.7
						c4.3,11.8-2.4,15.4-2.4,15.4c8.3-9.5-3-20.4-3-20.4c1.8,4.5-0.4,7.7-0.4,7.7c2.9-9.5-8.6-13.1-8.6-13.1
						c2.3,1.7,1.3,5.3,1.3,5.3c-0.3-6.4-10.2-8.9-12.2-9.5C580.2,132.9,577.7,169.8,577.7,169.8z"/>
				</defs>
				<use xlink:href="#XMLID_327_"  style="overflow:visible;fill:#C6AC75;"/>
				<clipPath id="XMLID_520_">
					<use xlink:href="#XMLID_327_"  style="overflow:visible;"/>
				</clipPath>
			</g>
		</g>
		<g id="XMLID_264_">
			<g id="XMLID_265_">
				<defs>
					<path id="XMLID_266_" d="M504.8,178.1c1.2,2,2.7,2,3.8,1.5c1.1-0.4,1.9-1.2,2.4-2.2c2.4-4.8-1.2-8.8-3.6-9.3
						c-2.2-0.4-5.4-2.2-12.2,4.8c-6.6,6.8-2.3,13.2-2.3,13.2c-1.8-4.1,0.4-8.1,4.8-12.6c5.2-5.3,9.1-1,9.1-1
						S502.7,174.4,504.8,178.1z"/>
				</defs>
				<use xlink:href="#XMLID_266_"  style="overflow:visible;fill:#C6AC75;"/>
				<clipPath id="XMLID_521_">
					<use xlink:href="#XMLID_266_"  style="overflow:visible;"/>
				</clipPath>
				<polygon id="XMLID_324_" class="st3" points="501.1,165.8 488.7,180.6 488.7,165.8 				"/>
				<polygon id="XMLID_323_" class="st3" points="501.5,165.8 488.7,181 488.7,180.6 501.1,165.8 				"/>
				<polygon id="XMLID_322_" class="st3" points="501.9,165.8 488.7,181.5 488.7,181 501.5,165.8 				"/>
				<polygon id="XMLID_321_" class="st3" points="502.2,165.8 488.7,181.9 488.7,181.5 501.9,165.8 				"/>
				<polygon id="XMLID_320_" class="st3" points="502.6,165.8 488.7,182.3 488.7,181.9 502.2,165.8 				"/>
				<polygon id="XMLID_319_" class="st3" points="502.9,165.8 488.7,182.7 488.7,182.3 502.6,165.8 				"/>
				<polygon id="XMLID_318_" class="st3" points="503.3,165.8 488.7,183.1 488.7,182.7 502.9,165.8 				"/>
				<polygon id="XMLID_317_" class="st3" points="503.6,165.8 488.7,183.6 488.7,183.1 503.3,165.8 				"/>
				<polygon id="XMLID_316_" class="st3" points="504,165.8 488.7,184 488.7,183.6 503.6,165.8 				"/>
				<polygon id="XMLID_315_" class="st3" points="504.3,165.8 488.7,184.4 488.7,184 504,165.8 				"/>
				<polygon id="XMLID_314_" class="st3" points="504.7,165.8 488.7,184.8 488.7,184.4 504.3,165.8 				"/>
				<polygon id="XMLID_313_" class="st3" points="505,165.8 488.7,185.3 488.7,184.8 504.7,165.8 				"/>
				<polygon id="XMLID_312_" class="st3" points="505.4,165.8 488.7,185.7 488.7,185.3 505,165.8 				"/>
				<polygon id="XMLID_311_" class="st3" points="505.7,165.8 488.7,186.1 488.7,186.1 488.7,185.7 505.4,165.8 				"/>
				<polygon id="XMLID_310_" class="st3" points="506.1,165.8 489.1,186.1 488.7,186.1 505.7,165.8 				"/>
				<polygon id="XMLID_309_" class="st3" points="506.5,165.8 489.4,186.1 489.1,186.1 506.1,165.8 				"/>
				<polygon id="XMLID_308_" class="st3" points="506.8,165.8 489.8,186.1 489.4,186.1 506.5,165.8 				"/>
				<polygon id="XMLID_307_" class="st3" points="507.2,165.8 490.2,186.1 489.8,186.1 506.8,165.8 				"/>
				<polygon id="XMLID_306_" class="st3" points="507.5,165.8 490.5,186.1 490.2,186.1 507.2,165.8 				"/>
				<polygon id="XMLID_305_" class="st3" points="507.9,165.8 490.9,186.1 490.5,186.1 507.5,165.8 				"/>
				<polygon id="XMLID_304_" class="st3" points="508.2,165.8 491.2,186.1 490.9,186.1 507.9,165.8 				"/>
				<polygon id="XMLID_303_" class="st3" points="508.6,165.8 491.6,186.1 491.2,186.1 508.2,165.8 				"/>
				<polygon id="XMLID_302_" class="st3" points="508.9,165.8 491.9,186.1 491.6,186.1 508.6,165.8 				"/>
				<polygon id="XMLID_301_" class="st3" points="509.3,165.8 492.3,186.1 491.9,186.1 508.9,165.8 				"/>
				<polygon id="XMLID_300_" class="st3" points="509.6,165.8 492.6,186.1 492.3,186.1 509.3,165.8 				"/>
				<polygon id="XMLID_299_" class="st3" points="510,165.8 493,186.1 492.6,186.1 509.6,165.8 				"/>
				<polygon id="XMLID_298_" class="st3" points="510.3,165.8 493.3,186.1 493,186.1 510,165.8 				"/>
				<polygon id="XMLID_297_" class="st3" points="510.7,165.8 493.7,186.1 493.3,186.1 510.3,165.8 				"/>
				<polygon id="XMLID_296_" class="st3" points="511.1,165.8 494,186.1 493.7,186.1 510.7,165.8 				"/>
				<polygon id="XMLID_295_" class="st3" points="511.4,165.8 494.4,186.1 494,186.1 511.1,165.8 				"/>
				<polygon id="XMLID_294_" class="st3" points="511.8,165.8 494.8,186.1 494.4,186.1 511.4,165.8 				"/>
				<polygon id="XMLID_293_" class="st3" points="512.1,165.8 495.1,186.1 494.8,186.1 511.8,165.8 				"/>
				<polygon id="XMLID_292_" class="st3" points="512.5,165.8 495.5,186.1 495.1,186.1 512.1,165.8 				"/>
				<polygon id="XMLID_291_" class="st3" points="512.8,165.8 495.8,186.1 495.5,186.1 512.5,165.8 				"/>
				<polygon id="XMLID_290_" class="st3" points="513.2,165.8 496.2,186.1 495.8,186.1 512.8,165.8 				"/>
				<polygon id="XMLID_289_" class="st3" points="513.5,165.9 496.5,186.1 496.2,186.1 513.2,165.8 513.5,165.8 				"/>
				<polygon id="XMLID_288_" class="st3" points="513.5,166.3 496.9,186.1 496.5,186.1 513.5,165.9 				"/>
				<polygon id="XMLID_287_" class="st3" points="513.5,166.7 497.2,186.1 496.9,186.1 513.5,166.3 				"/>
				<polygon id="XMLID_286_" class="st3" points="513.5,167.1 497.6,186.1 497.2,186.1 513.5,166.7 				"/>
				<polygon id="XMLID_285_" class="st3" points="513.5,167.6 497.9,186.1 497.6,186.1 513.5,167.1 				"/>
				<polygon id="XMLID_284_" class="st3" points="513.5,168 498.3,186.1 497.9,186.1 513.5,167.6 				"/>
				<polygon id="XMLID_283_" class="st3" points="513.5,168.4 498.6,186.1 498.3,186.1 513.5,168 				"/>
				<polygon id="XMLID_282_" class="st3" points="513.5,168.8 499,186.1 498.6,186.1 513.5,168.4 				"/>
				<polygon id="XMLID_281_" class="st3" points="513.5,169.3 499.4,186.1 499,186.1 513.5,168.8 				"/>
				<polygon id="XMLID_280_" class="st3" points="513.5,169.7 499.7,186.1 499.4,186.1 513.5,169.3 				"/>
				<polygon id="XMLID_279_" class="st3" points="513.5,170.1 500.1,186.1 499.7,186.1 513.5,169.7 				"/>
				<polygon id="XMLID_278_" class="st3" points="513.5,170.5 500.4,186.1 500.1,186.1 513.5,170.1 				"/>
				<polygon id="XMLID_277_" class="st3" points="513.5,170.9 500.8,186.1 500.4,186.1 513.5,170.5 				"/>
				<polygon id="XMLID_276_" class="st3" points="513.5,171.4 501.1,186.1 500.8,186.1 513.5,170.9 				"/>
				<polygon id="XMLID_275_" class="st3" points="513.5,171.8 501.5,186.1 501.1,186.1 513.5,171.4 				"/>
				<polygon id="XMLID_274_" class="st3" points="513.5,172.2 501.8,186.1 501.5,186.1 513.5,171.8 				"/>
				<polygon id="XMLID_273_" class="st3" points="513.5,172.6 502.2,186.1 501.8,186.1 513.5,172.2 				"/>
				<polygon id="XMLID_272_" class="st3" points="513.5,173 502.5,186.1 502.2,186.1 513.5,172.6 				"/>
				<polygon id="XMLID_271_" class="st3" points="513.5,173.5 502.9,186.1 502.5,186.1 513.5,173 				"/>
				<polygon id="XMLID_270_" class="st3" points="513.5,173.9 503.2,186.1 502.9,186.1 513.5,173.5 				"/>
				<polygon id="XMLID_269_" class="st3" points="513.5,174.3 503.6,186.1 503.2,186.1 513.5,173.9 				"/>
				<polygon id="XMLID_268_" class="st3" points="513.5,174.7 504,186.1 503.6,186.1 513.5,174.3 				"/>
				<polygon id="XMLID_267_" class="st3" points="504,186.1 513.5,174.7 513.5,186.1 				"/>
			</g>
		</g>
		<g id="XMLID_203_">
			<g id="XMLID_204_">
				<defs>
					<path id="XMLID_205_" d="M611.6,149.2c1.2,0.4,2.5,0.2,3.3-0.3l0.4,0.6c0,0-1.5,10.2-12.5,9.5c-3.2-0.2-6.2-1.5-8.7-3.4
						c-12.1-8.9-21-18.6-21-18.6s7.5,8.8,15.7,17.2c3.4,3.5,8,6,12.9,6.4c2.4,0.2,4.7,0,7-0.5c11-2.5,11.3-11.8,9.7-13.5
						c-1-1-2.6-1.8-3.9-2.3c-0.4-0.2-0.8-0.5-1.3-0.6c-0.4-0.1-0.9-0.2-1.3-0.2c0,0,0,0,0,0l0,0c-1.5,0-2.7,0.7-3,1.9
						C608.3,146.9,609.6,148.6,611.6,149.2z"/>
				</defs>
				<use xlink:href="#XMLID_205_"  style="overflow:visible;fill:#C6AC75;"/>
				<clipPath id="XMLID_522_">
					<use xlink:href="#XMLID_205_"  style="overflow:visible;"/>
				</clipPath>
				<path id="XMLID_263_" class="st4" d="M573.1,137.1L573.1,137.1L573.1,137.1z"/>
				<polygon id="XMLID_262_" class="st4" points="574.1,137.1 573.1,138.3 573.1,137.1 				"/>
				<polygon id="XMLID_261_" class="st4" points="575.2,137.1 573.1,139.6 573.1,138.3 574.1,137.1 				"/>
				<polygon id="XMLID_260_" class="st4" points="576.2,137.1 573.1,140.8 573.1,139.6 575.2,137.1 				"/>
				<polygon id="XMLID_259_" class="st4" points="577.3,137.1 573.1,142.1 573.1,140.8 576.2,137.1 				"/>
				<polygon id="XMLID_258_" class="st4" points="578.4,137.1 573.1,143.4 573.1,142.1 577.3,137.1 				"/>
				<polygon id="XMLID_257_" class="st4" points="579.4,137.1 573.1,144.6 573.1,143.4 578.4,137.1 				"/>
				<polygon id="XMLID_256_" class="st4" points="580.5,137.1 573.1,145.9 573.1,144.6 579.4,137.1 				"/>
				<polygon id="XMLID_255_" class="st4" points="581.5,137.1 573.1,147.1 573.1,145.9 580.5,137.1 				"/>
				<polygon id="XMLID_254_" class="st4" points="582.6,137.1 573.1,148.4 573.1,147.1 581.5,137.1 				"/>
				<polygon id="XMLID_253_" class="st4" points="583.6,137.1 573.1,149.6 573.1,148.4 582.6,137.1 				"/>
				<polygon id="XMLID_252_" class="st4" points="584.7,137.1 573.2,150.7 573.1,150.6 573.1,149.6 583.6,137.1 				"/>
				<polygon id="XMLID_251_" class="st4" points="585.7,137.1 573.8,151.2 573.2,150.7 584.7,137.1 				"/>
				<polygon id="XMLID_250_" class="st4" points="586.8,137.1 574.5,151.8 573.8,151.2 585.7,137.1 				"/>
				<polygon id="XMLID_249_" class="st4" points="587.9,137.1 575.1,152.3 574.5,151.8 586.8,137.1 				"/>
				<polygon id="XMLID_248_" class="st4" points="588.9,137.1 575.7,152.8 575.1,152.3 587.9,137.1 				"/>
				<polygon id="XMLID_247_" class="st4" points="590,137.1 576.3,153.3 575.7,152.8 588.9,137.1 				"/>
				<polygon id="XMLID_246_" class="st4" points="591,137.1 576.9,153.8 576.3,153.3 590,137.1 				"/>
				<polygon id="XMLID_245_" class="st4" points="592.1,137.1 577.6,154.4 576.9,153.8 591,137.1 				"/>
				<polygon id="XMLID_244_" class="st4" points="593.1,137.1 578.2,154.9 577.6,154.4 592.1,137.1 				"/>
				<polygon id="XMLID_243_" class="st4" points="594.2,137.1 578.8,155.4 578.2,154.9 593.1,137.1 				"/>
				<polygon id="XMLID_242_" class="st4" points="595.2,137.1 579.4,155.9 578.8,155.4 594.2,137.1 				"/>
				<polygon id="XMLID_241_" class="st4" points="596.3,137.1 580,156.4 579.4,155.9 595.2,137.1 				"/>
				<polygon id="XMLID_240_" class="st4" points="597.3,137.1 580.6,157 580,156.4 596.3,137.1 				"/>
				<polygon id="XMLID_239_" class="st4" points="598.4,137.1 581.3,157.5 580.6,157 597.3,137.1 				"/>
				<polygon id="XMLID_238_" class="st4" points="599.5,137.1 581.9,158 581.3,157.5 598.4,137.1 				"/>
				<polygon id="XMLID_237_" class="st4" points="600.5,137.1 582.5,158.5 581.9,158 599.5,137.1 				"/>
				<polygon id="XMLID_236_" class="st4" points="601.6,137.1 583.1,159 582.5,158.5 600.5,137.1 				"/>
				<polygon id="XMLID_235_" class="st4" points="602.6,137.1 583.7,159.6 583.1,159 601.6,137.1 				"/>
				<polygon id="XMLID_234_" class="st4" points="603.7,137.1 584.4,160.1 583.7,159.6 602.6,137.1 				"/>
				<polygon id="XMLID_233_" class="st4" points="604.7,137.1 585,160.6 584.4,160.1 603.7,137.1 				"/>
				<polygon id="XMLID_232_" class="st4" points="605.8,137.1 585.9,160.8 585.2,160.8 585,160.6 604.7,137.1 				"/>
				<polygon id="XMLID_231_" class="st4" points="606.8,137.1 587,160.8 585.9,160.8 605.8,137.1 				"/>
				<polygon id="XMLID_230_" class="st4" points="607.9,137.1 588,160.8 587,160.8 606.8,137.1 				"/>
				<polygon id="XMLID_229_" class="st4" points="609,137.1 589.1,160.8 588,160.8 607.9,137.1 				"/>
				<polygon id="XMLID_228_" class="st4" points="610,137.1 590.1,160.8 589.1,160.8 609,137.1 				"/>
				<polygon id="XMLID_227_" class="st4" points="611.1,137.1 591.2,160.8 590.1,160.8 610,137.1 				"/>
				<polygon id="XMLID_226_" class="st4" points="612.1,137.1 592.2,160.8 591.2,160.8 611.1,137.1 				"/>
				<polygon id="XMLID_225_" class="st4" points="613.2,137.1 593.3,160.8 592.2,160.8 612.1,137.1 				"/>
				<polygon id="XMLID_224_" class="st4" points="614.2,137.1 594.3,160.8 593.3,160.8 613.2,137.1 				"/>
				<polygon id="XMLID_223_" class="st4" points="615.3,137.1 595.4,160.8 594.3,160.8 614.2,137.1 				"/>
				<polygon id="XMLID_222_" class="st4" points="616.3,137.1 596.5,160.8 595.4,160.8 615.3,137.1 				"/>
				<polygon id="XMLID_221_" class="st4" points="617.4,137.1 597.5,160.8 596.5,160.8 616.3,137.1 				"/>
				<polygon id="XMLID_220_" class="st4" points="617.9,137.1 618.2,137.4 598.6,160.8 597.5,160.8 617.4,137.1 				"/>
				<polygon id="XMLID_219_" class="st4" points="618.2,137.4 618.8,137.9 599.6,160.8 598.6,160.8 				"/>
				<polygon id="XMLID_218_" class="st4" points="618.8,137.9 619.5,138.4 600.7,160.8 599.6,160.8 				"/>
				<polygon id="XMLID_217_" class="st4" points="619.5,138.4 620,138.8 620,139 601.7,160.8 600.7,160.8 				"/>
				<polygon id="XMLID_216_" class="st4" points="620,140.3 602.8,160.8 601.7,160.8 620,139 				"/>
				<polygon id="XMLID_215_" class="st4" points="620,141.5 603.8,160.8 602.8,160.8 620,140.3 				"/>
				<polygon id="XMLID_214_" class="st4" points="620,142.8 604.9,160.8 603.8,160.8 620,141.5 				"/>
				<polygon id="XMLID_213_" class="st4" points="620,144.1 606,160.8 604.9,160.8 620,142.8 				"/>
				<polygon id="XMLID_212_" class="st4" points="620,145.3 607,160.8 606,160.8 620,144.1 				"/>
				<polygon id="XMLID_211_" class="st4" points="620,146.6 608.1,160.8 607,160.8 620,145.3 				"/>
				<polygon id="XMLID_210_" class="st4" points="620,147.8 609.1,160.8 608.1,160.8 620,146.6 				"/>
				<polygon id="XMLID_209_" class="st4" points="620,149.1 610.2,160.8 609.1,160.8 620,147.8 				"/>
				<polygon id="XMLID_208_" class="st4" points="620,150.3 611.2,160.8 610.2,160.8 620,149.1 				"/>
				<polygon id="XMLID_207_" class="st4" points="620,151.6 612.3,160.8 611.2,160.8 620,150.3 				"/>
				<polygon id="XMLID_206_" class="st4" points="612.3,160.8 620,151.6 620,160.8 				"/>
			</g>
		</g>
		<g id="XMLID_142_">
			<g id="XMLID_143_">
				<defs>
					<path id="XMLID_144_" d="M644.9,257.7c-8-6.7-18.7-4.9-18.7-4.9s11.8-1.6,20.1,8.3c8.3,10-0.7,15.4-0.7,15.4l-0.6-0.1
						c0.1-0.8-0.1-1.7-0.8-2.5c-1-1.2-2.7-1.6-3.6-0.8c-0.7,0.6-0.9,1.7-0.4,2.8l0,0c0,0,0,0,0,0c0.1,0.3,0.3,0.6,0.5,0.9
						c0.2,0.3,0.5,0.5,0.8,0.7c0.8,0.8,1.8,1.8,2.8,2.1c1.7,0.7,8.3-2.4,6.7-11.1C650.6,264.5,648.3,260.5,644.9,257.7z"/>
				</defs>
				<use xlink:href="#XMLID_144_"  style="overflow:visible;fill:#C6AC75;"/>
				<clipPath id="XMLID_523_">
					<use xlink:href="#XMLID_144_"  style="overflow:visible;"/>
				</clipPath>
				<polygon id="XMLID_202_" class="st5" points="627.8,251 626.3,252.9 626.3,251 				"/>
				<polygon id="XMLID_201_" class="st5" points="628.6,251 626.3,253.8 626.3,252.9 627.8,251 				"/>
				<polygon id="XMLID_200_" class="st5" points="629.4,251 626.3,254.7 626.3,253.8 628.6,251 				"/>
				<polygon id="XMLID_199_" class="st5" points="630.2,251 626.3,255.7 626.3,254.7 629.4,251 				"/>
				<polygon id="XMLID_198_" class="st5" points="630.9,251 626.3,256.6 626.3,255.7 630.2,251 				"/>
				<polygon id="XMLID_197_" class="st5" points="631.7,251 626.3,257.5 626.3,256.6 630.9,251 				"/>
				<polygon id="XMLID_196_" class="st5" points="632.5,251 626.3,258.4 626.3,257.5 631.7,251 				"/>
				<polygon id="XMLID_195_" class="st5" points="633.3,251 626.3,259.4 626.3,258.4 632.5,251 				"/>
				<polygon id="XMLID_194_" class="st5" points="634.1,251 626.3,260.3 626.3,259.4 633.3,251 				"/>
				<polygon id="XMLID_193_" class="st5" points="634.9,251 626.3,261.2 626.3,260.3 634.1,251 				"/>
				<polygon id="XMLID_192_" class="st5" points="635.6,251 626.3,262.2 626.3,261.2 634.9,251 				"/>
				<polygon id="XMLID_191_" class="st5" points="636.4,251 626.3,263.1 626.3,262.2 635.6,251 				"/>
				<polygon id="XMLID_190_" class="st5" points="637.2,251 626.3,264 626.3,263.1 636.4,251 				"/>
				<polygon id="XMLID_189_" class="st5" points="638,251 626.3,265 626.3,264 637.2,251 				"/>
				<polygon id="XMLID_188_" class="st5" points="638.8,251 626.3,265.9 626.3,265 638,251 				"/>
				<polygon id="XMLID_187_" class="st5" points="639.5,251 626.3,266.8 626.3,265.9 638.8,251 				"/>
				<polygon id="XMLID_186_" class="st5" points="640.3,251 626.3,267.8 626.3,266.8 639.5,251 				"/>
				<polygon id="XMLID_185_" class="st5" points="641.1,251 626.3,268.7 626.3,267.8 640.3,251 				"/>
				<polygon id="XMLID_184_" class="st5" points="641.9,251 626.3,269.6 626.3,268.7 641.1,251 				"/>
				<polygon id="XMLID_183_" class="st5" points="642.7,251 626.3,270.5 626.3,269.6 641.9,251 				"/>
				<polygon id="XMLID_182_" class="st5" points="643.4,251 626.3,271.5 626.3,270.5 642.7,251 				"/>
				<polygon id="XMLID_181_" class="st5" points="644.2,251 626.3,272.4 626.3,271.5 643.4,251 				"/>
				<polygon id="XMLID_180_" class="st5" points="645,251 626.3,273.3 626.3,272.4 644.2,251 				"/>
				<polygon id="XMLID_179_" class="st5" points="645.8,251 626.5,274 626.3,273.8 626.3,273.3 645,251 				"/>
				<polygon id="XMLID_178_" class="st5" points="646.6,251 627,274.4 626.5,274 645.8,251 				"/>
				<polygon id="XMLID_177_" class="st5" points="647.3,251 627.4,274.8 627,274.4 646.6,251 				"/>
				<polygon id="XMLID_176_" class="st5" points="648.1,251 627.9,275.1 627.4,274.8 647.3,251 				"/>
				<polygon id="XMLID_175_" class="st5" points="648.5,251 648.7,251.2 628.4,275.5 627.9,275.1 648.1,251 				"/>
				
					<rect id="XMLID_174_" x="622.9" y="263.3" transform="matrix(0.6428 -0.766 0.766 0.6428 26.2532 583.4457)" class="st5" width="31.7" height="0.6"/>
				
					<rect id="XMLID_173_" x="623.4" y="263.7" transform="matrix(0.6427 -0.7661 0.7661 0.6427 26.191 584.0659)" class="st5" width="31.7" height="0.6"/>
				
					<rect id="XMLID_172_" x="623.8" y="264" transform="matrix(0.6425 -0.7663 0.7663 0.6425 26.1489 584.7244)" class="st5" width="31.7" height="0.6"/>
				
					<rect id="XMLID_171_" x="624.3" y="264.4" transform="matrix(0.6427 -0.7661 0.7661 0.6427 25.9007 584.988)" class="st5" width="31.7" height="0.6"/>
				
					<rect id="XMLID_170_" x="624.8" y="264.8" transform="matrix(0.6431 -0.7658 0.7658 0.6431 25.6265 585.2012)" class="st5" width="31.7" height="0.6"/>
				
					<rect id="XMLID_169_" x="625.2" y="265.2" transform="matrix(0.6428 -0.7661 0.7661 0.6428 25.621 585.9304)" class="st5" width="31.7" height="0.6"/>
				
					<rect id="XMLID_168_" x="625.7" y="265.6" transform="matrix(0.6427 -0.7661 0.7661 0.6427 25.5023 586.4426)" class="st5" width="31.7" height="0.6"/>
				
					<rect id="XMLID_167_" x="626.1" y="266" transform="matrix(0.6427 -0.7661 0.7661 0.6427 25.3715 586.9312)" class="st5" width="31.7" height="0.6"/>
				
					<rect id="XMLID_166_" x="626.6" y="266.3" transform="matrix(0.6432 -0.7657 0.7657 0.6432 25.0616 587.0752)" class="st5" width="31.7" height="0.6"/>
				
					<rect id="XMLID_165_" x="627" y="266.7" transform="matrix(0.6424 -0.7664 0.7664 0.6424 25.2741 588.2245)" class="st5" width="31.7" height="0.6"/>
				
					<rect id="XMLID_164_" x="627.5" y="267.1" transform="matrix(0.6427 -0.7661 0.7661 0.6427 25.0134 588.463)" class="st5" width="31.7" height="0.6"/>
				
					<rect id="XMLID_163_" x="628" y="267.5" transform="matrix(0.6428 -0.766 0.766 0.6428 24.807 588.8058)" class="st5" width="31.7" height="0.6"/>
				<polygon id="XMLID_162_" class="st5" points="654.2,255.9 654.7,256.2 634.4,280.4 634.2,280.4 633.9,280.1 				"/>
				<polygon id="XMLID_161_" class="st5" points="654.7,256.2 654.7,256.3 654.7,257.1 635.2,280.4 634.4,280.4 				"/>
				<polygon id="XMLID_160_" class="st5" points="654.7,258.1 636,280.4 635.2,280.4 654.7,257.1 				"/>
				<polygon id="XMLID_159_" class="st5" points="654.7,259 636.8,280.4 636,280.4 654.7,258.1 				"/>
				<polygon id="XMLID_158_" class="st5" points="654.7,259.9 637.5,280.4 636.8,280.4 654.7,259 				"/>
				<polygon id="XMLID_157_" class="st5" points="654.7,260.8 638.3,280.4 637.5,280.4 654.7,259.9 				"/>
				<polygon id="XMLID_156_" class="st5" points="654.7,261.8 639.1,280.4 638.3,280.4 654.7,260.8 				"/>
				<polygon id="XMLID_155_" class="st5" points="654.7,262.7 639.9,280.4 639.1,280.4 654.7,261.8 				"/>
				<polygon id="XMLID_154_" class="st5" points="654.7,263.6 640.7,280.4 639.9,280.4 654.7,262.7 				"/>
				<polygon id="XMLID_153_" class="st5" points="654.7,264.6 641.4,280.4 640.7,280.4 654.7,263.6 				"/>
				<polygon id="XMLID_152_" class="st5" points="654.7,265.5 642.2,280.4 641.4,280.4 654.7,264.6 				"/>
				<polygon id="XMLID_151_" class="st5" points="654.7,266.4 643,280.4 642.2,280.4 654.7,265.5 				"/>
				<polygon id="XMLID_150_" class="st5" points="654.7,267.4 643.8,280.4 643,280.4 654.7,266.4 				"/>
				<polygon id="XMLID_149_" class="st5" points="654.7,268.3 644.6,280.4 643.8,280.4 654.7,267.4 				"/>
				<polygon id="XMLID_148_" class="st5" points="654.7,269.2 645.3,280.4 644.6,280.4 654.7,268.3 				"/>
				<polygon id="XMLID_147_" class="st5" points="654.7,270.2 646.1,280.4 645.3,280.4 654.7,269.2 				"/>
				<polygon id="XMLID_146_" class="st5" points="654.7,271.1 646.9,280.4 646.1,280.4 654.7,270.2 				"/>
				<polygon id="XMLID_145_" class="st5" points="646.9,280.4 654.7,271.1 654.7,280.4 				"/>
			</g>
		</g>
		<path id="XMLID_2607_" class="st0" d="M219.7,444h-7.1c-1.2,0-2.4-0.1-3.6-0.5c-1.8-0.5-3.2-1.3-4.4-2.7c-0.3-0.3-0.6-0.6-0.9-0.9
			c-1.1-1.4-2.2-2.8-3.2-4.3c-1.4-2-2.7-4-4-6.1c-2.7-4.4-4.9-8.2-5.3-8.9h-7.9v17.7v3c0,0.4,0,0.8,0.1,1.2c0.1,0.6,0.4,1.1,0.7,1.6
			l-6.9-4.4v-36.1c0-0.1,0-0.1,0-0.1v-2.9c0-0.5-0.1-0.9-0.2-1.3c-0.1-0.5-0.4-1.1-0.7-1.5c-1.7-2.2-4.9-2-4.9-2v-0.9h18.3
			c0,0,17.2-0.7,17.2,11.9c0,7.5-5,11-9.6,12.6c0.3,0.6,0.7,1.2,1.1,1.8c1.1,1.8,2.2,3.6,3.3,5.5c1.1,1.8,2.2,3.6,3.4,5.3
			c0.9,1.4,1.9,2.8,3,4.1l1.3,1.5c0.4,0.4,0.7,0.8,1.1,1.2c0.4,0.5,0.8,0.9,1.3,1.4c0.7,0.7,1.6,1.4,2.5,1.9h0.1
			c0,0.1,0.3,0.2,0.8,0.3l1,0.3c1.2,0.4,2.8,0.7,4.2,0.6C220.6,443.1,221.7,443.9,219.7,444z M200.5,408c0-1.1,0.5-12.1-10.6-12.1
			c-0.8,0-3.9-0.2-5.5,1.8c-0.5,0.7-0.9,1.6-0.9,2.8v18.7h6.5C190.7,419.2,200.5,419.1,200.5,408z"/>
		<path id="XMLID_2605_" class="st0" d="M267.8,444h-30.3h-5.8v-0.9c0,0,5.3,0.2,5.8-4.5v-38.2c-0.3-5-5.8-4.8-5.8-4.8v-0.9h5.8h6.1
			h5.7h12.9h3.9v12.4h-1.6c0-6.2-1.3-11.1-9.4-11.1h-5.8c-0.1,0-5.5-0.3-5.7,4.2v18.3h4.8c5.7-0.2,6.4-4.6,6.4-9h1.2v19.3h-1.2
			c0-4.4-0.7-8.7-6.1-8.9h-5.1v18.6c0.3,4.4,5.6,4.1,5.7,4.1h7.5c8.1,0,9.4-6.2,9.4-12.4h1.6V444z"/>
		<path id="XMLID_2603_" class="st0" d="M321.4,422.8v1.4c-0.7,0-1.2,0.1-1.7,0.3c-0.7,0.3-1.4,1.1-1.4,2.8v0.3l-0.1,7.7l0.2,8.8h-2
			c-0.1-1.6-0.7-4-1.9-4c-0.5,0-0.9,0.1-2.3,1.2c-2.8,2.2-5.8,3.5-9.8,3.8c-0.5,0-1.1,0.1-1.6,0.1h-0.2c-6,0-10.6-1.8-14-4.7
			c-4.1-3.2-6.7-8.2-7.8-14.4c-0.3-2-0.5-3.8-0.5-5.7c0-13.7,5.7-20.3,11.3-23.5c2.2-1.3,4.8-2.3,7.5-2.8c0.3,0,0.6-0.1,0.9-0.1
			c1-0.1,2-0.1,3-0.1c5.9,0.1,9,2.2,12.3,4.5c0.5,0.3,1.1,0.9,1.7,0.5c0.3-0.1,0.4-0.3,0.5-0.5c0.3-0.5,0.5-1.2,0.7-1.9l0.2-1.2
			c0-0.2,0-0.3,0-0.3h1.6c-0.2,3.4-0.3,7.8-0.3,15.6v0.3v0.1h-1.7v-0.1c0-0.4-0.1-0.8-0.1-1.2c-0.4-2.4-0.9-4.7-1.9-6.7
			c-0.5-1-1.1-1.9-1.8-2.8c-0.6-0.7-1.3-1.4-2.2-2c-2.8-1.9-6.1-2.9-9.4-2.9c-1.1,0-2.1,0.1-3,0.3c-2.9,0.7-5.4,2.5-7.3,5.1
			c-2.2,3-4.1,7.7-4.8,15.2c-0.5,5.1,0.1,10.2,1.7,15c1.8,5.3,5.1,11.2,11.2,12.6c1.1,0.2,2.3,0.3,3.5,0.3h0.6
			c2.2-0.2,4.4-0.9,6.5-2l0.2-0.1c0.8-0.5,1.3-1.1,1.6-1.6c0.2-0.4,0.3-0.9,0.4-1.6v-0.6v-1.5l-0.1-6.9c0-2.4-0.9-3.7-2.3-4.4
			c-1.1-0.4-2.6-0.5-4.6-0.6v-1.4l5.1,0.2h7.6C318.9,423,320.3,423,321.4,422.8z"/>
		<path id="XMLID_2601_" class="st0" d="M368.3,444h-30.3h-5.8v-0.9c0,0,5.3,0.2,5.8-4.5v-38.2c-0.3-5-5.8-4.8-5.8-4.8v-0.9h5.8h6.1
			h5.7h12.9h3.9v12.4H365c0-6.2-1.3-11.1-9.4-11.1h-5.8c-0.1,0-5.5-0.3-5.7,4.2v18.3h4.8c5.7-0.2,6.4-4.6,6.4-9h1.2v19.3h-1.2
			c0-4.4-0.7-8.7-6.1-8.9h-5.1v18.6c0.3,4.4,5.6,4.1,5.7,4.1h7.5c8.1,0,9.4-6.2,9.4-12.4h1.6V444z"/>
		<path id="XMLID_2599_" class="st0" d="M422.8,394.7v0.9c0,0-5.5-0.2-5.8,4.8V444h-1.6l-29.3-45.3v39.4c0,0.4,0.1,0.8,0.1,1.2
			c0.9,3.9,5.7,3.7,5.7,3.7v0.9h-12.9v-0.9c0,0,4.7,0.2,5.7-3.8c0.1-0.3,0.1-0.7,0.1-1.1v-37.9c-0.3-4.8-5.7-4.4-5.7-4.4v-1.1h11.7
			l24.8,38.4v-32.6c-0.3-5.1-6.3-4.9-6.3-4.9v-0.9H422.8z"/>
		<path id="XMLID_2597_" class="st0" d="M472.1,394.7v14.6h-1.6c0-6.2-1.2-13.3-9.3-13.3h-5.3v42.1v0.3v2.7c0,0.4,0.1,0.8,0.1,1.2
			c0.2,0.6,0.4,1.1,0.7,1.6l-6.9-4.4v-36.1c0-0.1,0-0.1,0-0.1v-0.1v-7.2h-5.3c-8.2,0-9.4,7.1-9.4,13.3h-1.6v-14.6H472.1z"/>
		<path id="XMLID_2595_" class="st0" d="M549.9,443.1v0.9h-17.5v-0.9c0,0,4.9,0.2,5.7-3.9v-0.1c0.1-0.3,0.1-0.6,0.1-0.9v-18.1h-23.2
			v18.2c0.2,5.1,5.7,4.8,5.7,4.8v0.9h-17.5v-0.9c0,0,4.5,0.2,5.5-3.5c0.1-0.1,0.1-0.3,0.1-0.5c0.1-0.3,0.1-0.5,0.1-0.9v-0.5
			c0.1-2.9,0-4.9,0-4.9v-31.8v-2.5c0-0.6,0-1.3-0.1-2c0-0.1-0.1-0.2-0.1-0.3c0-0.1,0-0.1-0.1-0.1c0-0.1,0-0.1,0-0.1
			c-0.1-0.1-0.1-0.1-0.1-0.2l-0.1-0.1v-0.1l-0.1-0.1c0-0.1,0-0.1,0-0.1s0-0.1-0.1-0.1c0-0.1,0-0.1-0.1-0.1v-0.1
			c-0.1-0.1-0.1-0.1-0.1-0.2v-0.1c-0.1-0.1-0.1-0.1-0.1-0.1l6.9,4.4v19.5h23.2v-15.4v-2.4v-2.5c0-0.6,0-1.3-0.1-2
			c0-0.1-0.1-0.2-0.1-0.3c0-0.1,0-0.1-0.1-0.1c0-0.1,0-0.1,0-0.1c-0.1-0.1-0.1-0.1-0.1-0.2l-0.1-0.1v-0.1c0,0,0-0.1-0.1-0.1v-0.1
			c0,0,0-0.1-0.1-0.1c0-0.1,0-0.1-0.1-0.1v-0.1c-0.1-0.1-0.1-0.1-0.1-0.2v-0.1c-0.1-0.1-0.1-0.1-0.1-0.1l6.9,4.4v33.6v0.5v5
			c0,0.5,0.1,0.9,0.2,1.3C545.4,443.3,549.9,443.1,549.9,443.1z"/>
		<path id="XMLID_2593_" class="st0" d="M577.6,443.1v0.9H560v-0.9c0,0,4.6,0.2,5.6-3.5c0.1-0.5,0.2-0.9,0.2-1.3v-40.6
			c0-0.4-0.1-0.8-0.1-1.2c-0.2-0.6-0.4-1.1-0.7-1.6l6.9,4.4v39.2C572.1,443.3,577.6,443.1,577.6,443.1z"/>
		<path id="XMLID_2591_" class="st0" d="M623.5,429.4V444h-35.7v-0.9c0,0,3.2,0.1,4.9-2c0.5-0.7,0.8-1.6,0.9-2.8v-3v-0.1v-37.6
			c0-0.4-0.1-0.8-0.1-1.2c-0.1-0.6-0.4-1.1-0.7-1.6l6.9,4.4v1.5v0.1v37.5c0,0.3,0,0.5,0.1,0.7c0.1,0.9,0.5,1.5,0.9,2
			c1.3,1.5,3.6,1.6,4.5,1.6h0.3h7.1c8.2,0,9.4-7.1,9.4-13.3H623.5z"/>
		<path id="XMLID_2589_" class="st0" d="M670,429.4V444h-35.7v-0.9c0,0,3.2,0.1,4.9-2c0.5-0.7,0.8-1.6,0.9-2.8v-3v-0.1v-37.6
			c0-0.4-0.1-0.8-0.1-1.2c-0.1-0.6-0.4-1.1-0.7-1.6l6.9,4.4v1.5v0.1v37.5c0,0.3,0,0.5,0.1,0.7c0.1,0.9,0.5,1.5,0.9,2
			c1.3,1.5,3.6,1.6,4.5,1.6h0.3h7.1c8.2,0,9.4-7.1,9.4-13.3H670z"/>
		<path id="XMLID_131_" class="st0" d="M482.4,88.2c0,0-0.9-4.3-4.9-2.9c-4.2,1.5-2.9,8.1-2.9,8.1c-3.4-2.8-5.5,0.1-5.5,0.1
			s7.1,6.3,0.2,14.9c-6.9,8.6-13.7,4.8-13.7,4.8s-6.8-5.4-0.8-9.3c6.1-3.9,10.1,2.2,10.1,2.2c6.5-11.5-6.9-13-6.9-13
			c3.7-5.9,1.3-11-0.5-13.7c2.4,0,4.3-1.9,4.3-4.3c0-2.4-1.9-4.3-4.3-4.3c-2.4,0-4.3,1.9-4.3,4.3c0,1.2,0.5,2.3,1.3,3.1
			c-9.2,4.8-8.1,11.8-8.1,11.8c-12.8-6.7-12.4,7.3-12.4,7.3c3.5-2.8,7.3-0.1,7.3-0.1s5.4,5.1,0.9,9.6c-4.5,4.5-9.4,1.2-9.4,1.2
			s-3.9-0.3-4.6-9.9c-0.7-9.6,7.4-14.5,7.4-14.5c-1.1-1-4-2.2-4-2.2c2.7-0.6,6.3-4.4,4.3-8.2c-2-3.8-8.2-2.2-8.2-2.2
			c3.7-5-2.8-11.6-5.6-14.2c1.3-0.5,2.3-1.7,2.3-3.2c0-1.9-1.5-3.4-3.4-3.4s-3.4,1.5-3.4,3.4c0,1.4,0.9,2.7,2.2,3.2
			c-2.8,2.5-9.4,9.2-5.7,14.2c0,0-6.2-1.6-8.2,2.2c-2,3.8,1.6,7.6,4.3,8.2c0,0-2.9,1.2-4,2.2c0,0,8.1,4.9,7.4,14.5
			c-0.7,9.6-4.6,9.9-4.6,9.9s-4.9,3.3-9.4-1.2c-4.5-4.5,0.9-9.6,0.9-9.6s3.8-2.7,7.3,0.1c0,0,0.4-14-12.4-7.3c0,0,1.1-6.9-7.8-11.7
			c0.9-0.8,1.5-2,1.5-3.3c0-2.4-1.9-4.3-4.3-4.3c-2.4,0-4.3,1.9-4.3,4.3c0,2.2,1.7,4.1,3.9,4.3c-1.8,2.6-4.2,7.8-0.5,13.7
			c0,0-13.4,1.4-6.9,13c0,0,4.1-6.1,10.1-2.2c6.1,3.9-0.8,9.3-0.8,9.3s-6.8,3.9-13.7-4.8c-6.9-8.6,0.2-14.9,0.2-14.9
			s-2.2-2.9-5.5-0.1c0,0,1.2-6.6-2.9-8.1c-4-1.4-4.9,2.9-4.9,2.9s-1.2-5.3-11.5-5.2c0,0,8,6.3,18.8,50.6c15.9-3.8,34.4-5.9,54.2-5.9
			c19.8,0,38.3,2.2,54.2,5.9C486.5,84.1,493.8,83,493.8,83C483.5,82.9,482.4,88.2,482.4,88.2z M370.9,127.4
			c-0.3,0.3-0.8,0.5-1.2,0.5c-0.5,0-0.9-0.2-1.2-0.5c-0.3-0.3-0.5-0.8-0.5-1.2c0-0.4,0.2-0.9,0.5-1.2c0.6-0.6,1.8-0.6,2.4,0
			c0.3,0.3,0.5,0.8,0.5,1.2C371.4,126.6,371.2,127.1,370.9,127.4z M382.7,126.1c-0.1,0-0.1,0-0.2,0c-0.9,0-1.6-0.6-1.7-1.5
			c-0.1-1,0.5-1.8,1.5-1.9c0.9-0.1,1.8,0.5,1.9,1.5C384.3,125.1,383.6,126,382.7,126.1z M395.4,124.5c-0.1,0-0.1,0-0.2,0
			c-0.9,0-1.6-0.6-1.7-1.5c-0.1-1,0.5-1.8,1.5-1.9c0.9-0.1,1.8,0.5,1.9,1.5C397,123.5,396.3,124.3,395.4,124.5z M408.1,123.2
			c-0.1,0-0.1,0-0.1,0h0c-0.9,0-1.6-0.7-1.7-1.6c-0.1-0.9,0.6-1.7,1.6-1.8c0.9-0.1,1.7,0.6,1.8,1.6
			C409.7,122.3,409,123.1,408.1,123.2z M420.8,122.8L420.8,122.8c-1,0-1.7-0.8-1.7-1.7c0-1,0.8-1.7,1.7-1.7c0.9,0,1.7,0.8,1.7,1.7
			C422.5,122,421.7,122.8,420.8,122.8z M433.6,123.5c-0.1,0-0.1,0-0.2,0c-0.9-0.1-1.6-0.9-1.5-1.8c0.1-0.9,0.9-1.6,1.8-1.5
			c0.9,0.1,1.6,0.9,1.5,1.8C435.2,122.8,434.5,123.5,433.6,123.5z M446.4,124.9c-0.1,0-0.1,0-0.2,0c-0.9-0.1-1.6-1-1.5-1.9
			c0.1-0.9,1-1.6,1.9-1.5c0.9,0.1,1.6,1,1.5,1.9C448,124.3,447.2,124.9,446.4,124.9z M459.1,126.6c-0.1,0-0.2,0-0.2,0
			c-1-0.1-1.6-1-1.5-1.9c0.1-1,1-1.6,1.9-1.5c1,0.1,1.6,1,1.5,1.9C460.7,126,460,126.6,459.1,126.6z M473.1,127.9
			c-0.3,0.3-0.8,0.5-1.2,0.5c-0.4,0-0.9-0.2-1.2-0.5c-0.3-0.3-0.5-0.8-0.5-1.2c0-0.5,0.2-0.9,0.5-1.2c0.6-0.6,1.8-0.6,2.4,0
			c0.3,0.3,0.5,0.8,0.5,1.2C473.6,127.2,473.4,127.6,473.1,127.9z"/>
	</g>
	<g id="XMLID_129_">
		<path id="XMLID_130_" class="st0" d="M437.5,256l-32.5,42.4l-1,1.3c0.3,0.4,0.7,0.9,1,1.3l1-1.3l33.5-43.7H437.5z"/>
	</g>
	<g id="XMLID_127_">
		<path id="XMLID_128_" class="st0" d="M432.2,256l-29.8,38.9l-1,1.3c0.3,0.4,0.7,0.8,1,1.3l1-1.3l30.8-40.2H432.2z"/>
	</g>
	<g id="XMLID_124_">
		<path id="XMLID_126_" class="st0" d="M459,256h-0.2l-43.7,57l-1,1.3c0.3,0.5,0.6,1,0.9,1.4l1-1.3l44.8-58.4H459z"/>
		<path id="XMLID_125_" class="st0" d="M476.1,233.3l-14,18.3v1.3v1.3l13.4-17.5l1.9-2.5c0.3-1.5,0.8-2.9,1.3-4.3L476.1,233.3z"/>
	</g>
	<path id="XMLID_123_" class="st0" d="M398.2,245.7c-0.1-0.1-0.1-0.3-0.2-0.5"/>
	<g id="XMLID_120_">
		<path id="XMLID_122_" class="st0" d="M453.5,256l-40.8,53.2l-1,1.3c0.3,0.5,0.6,0.9,0.9,1.4l1-1.3l41.9-54.6H453.5z"/>
		<path id="XMLID_121_" class="st0" d="M486.3,213.1l-1,1.3l-26.2,34.2l2.1-0.1l18.9-24.6l7.4-9.7
			C487.1,213.8,486.7,213.4,486.3,213.1z"/>
	</g>
	<g id="XMLID_118_">
		<path id="XMLID_119_" class="st0" d="M392.3,245.6l-17,22.1l-0.9,1.2c0.4,0.3,0.8,0.6,1.3,0.9l0.9-1.2l17-22.2L392.3,245.6z"/>
	</g>
	<g id="XMLID_115_">
		<path id="XMLID_117_" class="st0" d="M448.2,256l-38,49.5l-1,1.3c0.3,0.5,0.6,0.9,0.9,1.4l1-1.3l39-50.9H448.2z"/>
		<path id="XMLID_116_" class="st0" d="M483.3,210.2l-1,1.3l-27.2,35.5c0.3,0.4,0.7,0.8,1.2,1l27.1-35.4l1-1.3
			C484,210.9,483.6,210.5,483.3,210.2z"/>
	</g>
	<g id="XMLID_112_">
		<path id="XMLID_114_" class="st0" d="M459.1,151.5l-0.5,0.7l-27.6,36c0.2,0.6,0.4,1.2,0.6,1.8l28.8-37.6l0.5-0.6
			C460.3,151.7,459.7,151.6,459.1,151.5z"/>
		<path id="XMLID_113_" class="st0" d="M388.7,243.4l-16.8,21.9l-0.9,1.2c0.4,0.3,0.9,0.6,1.3,0.9l0.9-1.2l16.9-22L388.7,243.4z"/>
	</g>
	<g id="XMLID_109_">
		<path id="XMLID_111_" class="st0" d="M442.8,256l-35.2,45.9l-1,1.3c0.3,0.4,0.6,0.9,1,1.3l1-1.3l36.2-47.2H442.8z"/>
		<path id="XMLID_110_" class="st0" d="M480.4,207l-1,1.3L454.3,241v2.6l26.1-34.1l1-1.3C481.1,207.8,480.7,207.4,480.4,207z"/>
	</g>
	<g id="XMLID_106_">
		<path id="XMLID_108_" class="st0" d="M454.4,150.8l-0.7,0.9l-24.9,32.5c0.3,0.4,0.7,0.9,0.9,1.4l25.8-33.7l0.7-0.9
			C455.6,151,455,150.9,454.4,150.8z"/>
		<path id="XMLID_107_" class="st0" d="M385.7,241.4v-1L368.4,263l-1,1.2c0.4,0.3,0.9,0.5,1.3,0.8l1-1.2l16.8-21.9L385.7,241.4z"/>
	</g>
	<g id="XMLID_104_">
		<path id="XMLID_105_" class="st0" d="M477.7,203.5l-1,1.3L454.3,234v2.6l23.4-30.5l1-1.3C478.3,204.4,478,204,477.7,203.5z"/>
	</g>
	<g id="XMLID_100_">
		<path id="XMLID_103_" class="st0" d="M426.9,182.3l23.6-30.8l0.8-1c-0.6-0.1-1.2-0.2-1.8-0.2l-0.8,1.1l-23,30
			C426.2,181.5,426.5,181.9,426.9,182.3z"/>
		<polygon id="XMLID_102_" class="st0" points="400.1,216.9 400.1,217.3 400.4,216.9 		"/>
		<path id="XMLID_101_" class="st0" d="M385.7,233.5l-21,27.4l-1,1.3c0.4,0.2,0.9,0.5,1.4,0.8l1-1.2l19.6-25.5V233.5z"/>
	</g>
	<g id="XMLID_98_">
		<path id="XMLID_99_" class="st0" d="M475.3,199.7l-1,1.4l-19.9,26v2.6l20.8-27.2l1-1.3C475.9,200.7,475.6,200.2,475.3,199.7z"/>
	</g>
	<g id="XMLID_95_">
		<path id="XMLID_97_" class="st0" d="M423.5,179.7l22.1-28.8l0.9-1.1c-0.6-0.1-1.2-0.1-1.8-0.2l-0.9,1.2L422.1,179
			C422.6,179.2,423.1,179.5,423.5,179.7z"/>
		<path id="XMLID_96_" class="st0" d="M385.7,226.6L360.8,259l-1,1.3c0.4,0.2,0.9,0.4,1.5,0.7l1-1.3l23.4-30.5V226.6z"/>
	</g>
	<g id="XMLID_92_">
		<path id="XMLID_94_" class="st0" d="M432.1,251.6l0-2.4l-32.4,42.3l-1,1.3c0.3,0.4,0.7,0.8,1,1.3l1-1.3l31.4-41V251.6z"/>
		<path id="XMLID_93_" class="st0" d="M473.2,195.6l-1.1,1.4l-17.8,23.2v2.6l18.5-24.2l1.1-1.4C473.7,196.7,473.4,196.1,473.2,195.6
			z"/>
	</g>
	<g id="XMLID_88_">
		<line id="XMLID_91_" class="st0" x1="388.7" y1="215.6" x2="388.7" y2="218.2"/>
		<path id="XMLID_90_" class="st0" d="M385.7,219.6l-20.1,26.3l-2.6,3.4c-1.1,3-2.8,6-5.2,9.1l-0.7,0.9l0.2,0.1l7.1-9.3l21.3-27.9
			V219.6z"/>
		<path id="XMLID_89_" class="st0" d="M419.6,177.9l21-27.5l0.9-1.2c-0.6-0.1-1.2-0.1-1.8-0.2l-0.9,1.2l-20.8,27.1
			C418.6,177.5,419.1,177.7,419.6,177.9z"/>
	</g>
	<g id="XMLID_85_">
		<path id="XMLID_87_" class="st0" d="M436.5,236.5c0.3,0.4,0.7,0.8,1.1,1.2l2.3-3v-2.6L436.5,236.5z"/>
		<path id="XMLID_86_" class="st0" d="M471.3,191l-1.2,1.5l-15.9,20.7v2.6l16.5-21.6l1.1-1.5C471.8,192.2,471.5,191.6,471.3,191z"/>
	</g>
	<g id="XMLID_81_">
		<path id="XMLID_84_" class="st0" d="M409.7,184c-0.5-0.1-1.1-0.3-1.7-0.4l-7.9,10.3v2.6L409.7,184z"/>
		<path id="XMLID_83_" class="st0" d="M415.3,176.6l20.4-26.7l0.9-1.1c-0.6-0.1-1.2-0.1-1.9-0.1l-0.8,1.1l-20.3,26.5
			C414.1,176.4,414.7,176.5,415.3,176.6z"/>
		<path id="XMLID_82_" class="st0" d="M385.7,212.7l-19.6,25.6l-1.4,1.9c0,0.9-0.1,1.8-0.2,2.8l1.6-2.1l19.5-25.5V212.7z"/>
	</g>
	<g id="XMLID_78_">
		<polygon id="XMLID_80_" class="st0" points="439.9,227.7 439.9,225.1 433.6,233.3 434.7,234.5 		"/>
		<path id="XMLID_79_" class="st0" d="M469.9,186l-1.2,1.6l-14.3,18.7v2.6l14.8-19.4l1.2-1.6C470.2,187.3,470,186.7,469.9,186z"/>
	</g>
	<g id="XMLID_74_">
		<path id="XMLID_77_" class="st0" d="M404.7,183.5c-0.9,0-1.6,0.1-2.2,0.3l-2.5,3.2v2.6L404.7,183.5z"/>
		<path id="XMLID_76_" class="st0" d="M385.7,205.8l-20.6,26.9l-1.1,1.5c0.2,0.7,0.3,1.4,0.4,2.1l1.2-1.6l20.1-26.2V205.8z"/>
		<path id="XMLID_75_" class="st0" d="M410.6,175.9l20.2-26.4l0.8-1c-0.6,0-1.3-0.1-1.9-0.1l-0.7,0.9l-20.3,26.4
			C409.3,175.7,409.9,175.8,410.6,175.9z"/>
	</g>
	<g id="XMLID_71_">
		<path id="XMLID_73_" class="st0" d="M435.9,223.5l-4.8,6.3c0.3,0.5,0.6,0.9,1,1.3l5.9-7.7H435.9z"/>
		<path id="XMLID_72_" class="st0" d="M468.8,180.5l-1.3,1.8l-13.2,17.2v2.6l13.5-17.7l1.3-1.7C469,181.9,468.9,181.2,468.8,180.5z"
			/>
	</g>
	<g id="XMLID_68_">
		<path id="XMLID_70_" class="st0" d="M385.7,198.8l-22.3,29.1l-1,1.3c0.2,0.6,0.4,1.1,0.7,1.7l1-1.4l21.6-28.2V198.8z"/>
		<path id="XMLID_69_" class="st0" d="M405.4,175.7l20.5-26.7l0.6-0.8c-0.6,0-1.3-0.1-1.9-0.1l-0.5,0.7l-20.6,26.9H405.4z"/>
	</g>
	<g id="XMLID_64_">
		<polygon id="XMLID_67_" class="st0" points="438.7,215.5 439.9,213.8 439.9,211.3 436.7,215.5 		"/>
		<path id="XMLID_66_" class="st0" d="M468.3,174.2l-1.5,1.9l-12.5,16.3v2.6l12.7-16.5l1.4-1.9C468.4,175.8,468.3,175,468.3,174.2z"
			/>
		<path id="XMLID_65_" class="st0" d="M430.6,223.5l-2.1,2.7c0.3,0.4,0.5,0.8,0.8,1.3c0,0.1,0.1,0.1,0.1,0.1l3.1-4.1H430.6z"/>
	</g>
	<g id="XMLID_61_">
		<path id="XMLID_63_" class="st0" d="M385.7,191.9l-24.4,31.8l-1,1.2c0.3,0.5,0.6,1,0.8,1.5l1-1.3l23.6-30.7V191.9z"/>
		<path id="XMLID_62_" class="st0" d="M400.1,175.7l20.8-27.2l0.3-0.4c-0.3,0-0.5,0-0.8,0c-0.4,0-0.8,0-1.2,0l-0.4,0.5l-20.7,27.1
			H400.1z"/>
	</g>
	<g id="XMLID_57_">
		<polygon id="XMLID_60_" class="st0" points="433.4,215.5 439.9,206.9 439.9,204.3 431.4,215.5 		"/>
		<path id="XMLID_59_" class="st0" d="M426.8,223.5c0.1,0.1,0.1,0.2,0.2,0.3l0.3-0.3H426.8z"/>
		<path id="XMLID_58_" class="st0" d="M466.8,169.3l-14.9,19.4l1,0.6l0.3,0.2l13.5-17.6l1.6-2.1c0-1,0.1-1.9,0.2-2.8L466.8,169.3z"
			/>
	</g>
	<g id="XMLID_54_">
		<path id="XMLID_56_" class="st0" d="M394.8,175.7l20.5-26.7l0.6-0.8c-0.7,0-1.4,0.1-2,0.1l-0.7,1l-20.3,26.5H394.8z"/>
		<path id="XMLID_55_" class="st0" d="M385.7,186.6c0-0.3,0-0.6-0.2-1.1c0-0.1-0.1-0.1-0.1-0.2L358.8,220l-0.9,1.2
			c0.3,0.4,0.6,0.9,1,1.3l0.9-1.2l25.9-33.8V186.6z"/>
	</g>
	<g id="XMLID_50_">
		<polygon id="XMLID_53_" class="st0" points="428.1,215.5 439.9,200 439.9,197.6 439.9,197.4 426.1,215.5 		"/>
		<line id="XMLID_52_" class="st0" x1="425.5" y1="218.8" x2="425.7" y2="218.5"/>
		<path id="XMLID_51_" class="st0" d="M467.6,161.2l-19.3,25.2l1.3,0.8l17.5-22.9l1.9-2.5c0.2-1.3,0.4-2.4,0.6-3.4L467.6,161.2z"/>
	</g>
	<g id="XMLID_47_">
		<path id="XMLID_49_" class="st0" d="M381.7,183.2l-25.7,33.5l-1,1.2c0.3,0.4,0.7,0.8,1.1,1.2l0.9-1.2l26.3-34.3
			C382.8,183.3,382.2,183.2,381.7,183.2z"/>
		<path id="XMLID_48_" class="st0" d="M389.5,175.7l20-26.1l0.9-1.2c-0.7,0-1.4,0.1-2.1,0.1l-1,1.3l-19.8,25.9H389.5z"/>
	</g>
	<g id="XMLID_44_">
		<path id="XMLID_46_" class="st0" d="M468.5,153.1l-0.1,0.1l-23.7,31l1.3,0.8l22.9-29.8l1.4-1.8C470,153.4,469.4,153.3,468.5,153.1
			z"/>
		<path id="XMLID_45_" class="st0" d="M422.7,215.5l17.2-22.4V191c0-0.2,0-0.3,0-0.5L431,202c-1.3,3.9-3.8,7.1-7.3,9.5l-2.4,3.1
			c0.2,0.3,0.3,0.5,0.5,0.8H422.7z"/>
	</g>
	<g id="XMLID_41_">
		<path id="XMLID_43_" class="st0" d="M384.2,175.7l19.6-25.5l1-1.4c-0.7,0.1-1.4,0.1-2.1,0.2l-1.1,1.4l-19.4,25.3H384.2z"/>
		<path id="XMLID_42_" class="st0" d="M377.9,183.2v-2l-5.2,6.8l-2.8,3.7c-0.8,2.1-1.7,4.1-2.7,6.2l4.1-5.4l7.2-9.3L377.9,183.2z"/>
	</g>
	<g id="XMLID_38_">
		<path id="XMLID_40_" class="st0" d="M463.9,152.3l-0.3,0.5l-22.4,29.2l1.3,0.8l22.9-29.9l0.3-0.3
			C465.1,152.5,464.5,152.4,463.9,152.3z"/>
		<path id="XMLID_39_" class="st0" d="M438.9,187.4v-0.3c-0.1-0.3-0.2-0.7-0.2-1.1v-1l-6.6,8.6c0,0.4,0.1,0.8,0.1,1.2
			c0,0.5-0.1,0.9-0.1,1.4L438.9,187.4z"/>
	</g>
	<path id="XMLID_37_" class="st0" d="M377.9,175.7h1l19.1-24.9l1.1-1.4c-0.7,0.1-1.4,0.2-2.2,0.2l-1.1,1.4l-21.5,28l-1.9,2.5
		c-0.2,1.1-0.4,2.3-0.6,3.4l2.1-2.8l3.9-5.1V175.7z"/>
	<g id="XMLID_34_">
		<polygon id="XMLID_36_" class="st0" points="400.1,207.8 400.1,208.9 400.2,208.9 400.2,207.6 		"/>
		<path id="XMLID_35_" class="st0" d="M409.6,198l6.4-8.3c-0.2-0.6-0.5-1.1-0.8-1.6l-6.9,9L409.6,198z"/>
	</g>
	<g id="XMLID_32_">
		<path id="XMLID_33_" class="st0" d="M413.1,200.3l3.8-5c0-0.8-0.1-1.7-0.2-2.4l-5,6.5L413.1,200.3z"/>
	</g>
	<g id="XMLID_29_">
		<path id="XMLID_31_" class="st0" d="M400.2,200.8L400.2,200.8L400.2,200.8l-0.1,2.6l0.1-0.1v-1.4
			C400.2,201.5,400.2,201.2,400.2,200.8z"/>
		<path id="XMLID_30_" class="st0" d="M406,195.7l7.5-9.7c-0.4-0.4-0.8-0.7-1.2-1l-7.6,9.9L406,195.7z"/>
	</g>
	<path id="XMLID_26_" class="st0" d="M458.9,251.6c-1,0-6.1-0.2-7.3-4.8c-0.2-0.5-0.3-1.2-0.3-1.8v-6.8v-0.6V192l-9.4-6
		c0,0.1,0.1,0.1,0.2,0.2v0.1c0.1,0.1,0.1,0.2,0.2,0.3v0.1c0.1,0,0.1,0.1,0.1,0.2c0.1,0,0.1,0.1,0.1,0.1v0.1c0.1,0,0.1,0.1,0.1,0.1
		v0.1l0.1,0.1c0,0.1,0,0.2,0.1,0.3c0,0,0,0.1,0,0.2c0.1,0.1,0.1,0.1,0.1,0.2c0,0.1,0.1,0.3,0.1,0.4c0.2,0.8,0.2,1.8,0.2,2.7v3.4v3.2
		v21h-17.7l1.1,1.8H443V244c-0.4-0.1-0.9-0.2-1.2-0.3l-1.4-0.5c-0.6-0.2-1.1-0.4-1.1-0.5h-0.1c-1.3-0.6-2.5-1.6-3.4-2.6
		c-0.6-0.5-1.2-1.2-1.7-1.8c-0.5-0.6-1-1.1-1.6-1.6l-1.7-2c-1.5-1.7-2.7-3.7-4-5.6c-1.6-2.4-3.1-4.8-4.7-7.2c-1.6-2.5-3-4.9-4.5-7.4
		c-0.5-0.8-1-1.6-1.5-2.5c6.2-2.2,13-6.9,13-17.1c0-15.3-18.7-16.1-22.6-16.1c-0.5,0-0.7,0-0.7,0H381v1.3c0,0,0.1,0,0.2,0
		c0.8,0,4.4,0.1,6.4,2.7c0.4,0.5,0.7,1.3,0.9,2c0.2,0.6,0.3,1.2,0.3,1.8v3.9c0,0,0,0,0,0.1v49.1l9.4,6c-0.5-0.6-0.8-1.4-1-2.2
		c-0.2-0.5-0.2-1.1-0.2-1.6v-4v-24h10.7c0.5,0.9,3.5,6.1,7.1,12.1c1.7,2.8,3.6,5.6,5.4,8.3c1.4,2,2.7,3.9,4.3,5.9
		c0.4,0.5,0.7,0.9,1.2,1.3c1.6,1.8,3.7,3,6,3.7c1.6,0.5,3.2,0.6,4.9,0.6h6.3c0,0.2,0,0.3,0,0.5v0.1c-1,5.1-6.6,5.3-7.5,5.3
		c-0.1,0-0.1,0-0.1,0v1.3H459v-1.3C459,251.6,459,251.6,458.9,251.6z M405.9,212H397v-25.5c0.1-1.6,0.5-2.8,1.3-3.8
		c1.8-2.2,5-2.4,6.7-2.4c0.3,0,0.6,0,0.8,0c15,0,14.4,14.8,14.4,16.4C420.2,211.9,406.9,212,405.9,212z"/>
	<path id="XMLID_25_" class="st0" d="M405.6,256l-17.5,22.8l-1,1.2c0.4,0.4,0.7,0.7,1.1,1.1l1-1.2l18.4-24H405.6z"/>
	<g id="XMLID_23_">
		<path id="XMLID_24_" class="st0" d="M414.6,245c0,0.6,0.2,1,0.4,1.4l5.3-6.9c-0.3-0.5-0.7-0.9-1-1.3l-4.7,6.1V245z"/>
	</g>
	<g id="XMLID_17_">
		<path id="XMLID_22_" class="st0" d="M403.3,208.9h2.6c1.1,0,3.4-0.2,5.6-1.3v-4.7l-9.4-6c0,0.1,0.1,0.1,0.2,0.2v0.1
			c0.1,0.1,0.1,0.2,0.2,0.3v0.1c0.1,0,0.1,0.1,0.1,0.2c0.1,0,0.1,0.1,0.1,0.1s0,0,0,0.1l0.1,0.1v0.1l0.1,0.1c0,0.1,0,0.2,0.1,0.3
			c0,0,0,0.1,0,0.2c0.1,0.1,0.1,0.1,0.1,0.2c0,0.1,0.1,0.3,0.1,0.4c0.2,0.8,0.2,1.8,0.2,2.7v3.4V208.9z"/>
		<path id="XMLID_21_" class="st0" d="M407.1,252.9"/>
		<path id="XMLID_20_" class="st0" d="M402.9,247"/>
		<line id="XMLID_19_" class="st0" x1="403.8" y1="252.9" x2="400" y2="250.5"/>
		<path id="XMLID_18_" class="st0" d="M419.3,252.9v-1.3c0,0-0.1,0-0.2,0c-1.2,0-7.3-0.3-7.6-6.5v-18.8c-2.4-3.9-4.5-7.5-5.6-9.4
			h-2.7v20.7c0,0,0.2,2.7,0,6.7v0.7c0,0.5,0,0.8-0.1,1.2c-0.1,0.3-0.1,0.5-0.2,0.6c0,0.1-0.1,0.1-0.1,0.2c0,0-1.3,2.3-2.2,2.9
			c-1.6,1.2-4.5,1.7-5,1.7c-0.1,0-0.2,0-0.2,0v1.3H419.3z"/>
	</g>
	<g id="XMLID_14_">
		<path id="XMLID_16_" class="st0" d="M421.9,241.7l-4.9,6.4c0.6,0.2,1.1,0.3,1.7,0.3l4.3-5.6c-0.3-0.3-0.6-0.6-0.8-0.9
			C422.1,241.9,422,241.8,421.9,241.7z"/>
		<path id="XMLID_15_" class="st0" d="M411,256l-19.8,25.9l-1,1.3c0.4,0.4,0.7,0.8,1.1,1.2l1-1.3l20.7-27H411z"/>
	</g>
	<g id="XMLID_12_">
		<path id="XMLID_13_" class="st0" d="M400.3,256l-15.3,19.9l-0.9,1.2c0.4,0.4,0.8,0.7,1.2,1.1l1-1.2l16.1-21H400.3z"/>
	</g>
	<g id="XMLID_10_">
		<path id="XMLID_11_" class="st0" d="M395.5,256H395L381.9,273l-1,1.2c0.4,0.3,0.8,0.7,1.2,1l0.9-1.2L397,256H395.5z"/>
	</g>
	<g id="XMLID_7_">
		<path id="XMLID_9_" class="st0" d="M416.3,256L394,285l-1,1.3c0.4,0.4,0.7,0.8,1.1,1.2l1-1.3l23.1-30.2H416.3z"/>
		<path id="XMLID_8_" class="st0" d="M422.1,248.4l0.3,0v2.2l3.8-4.9c-0.4-0.3-0.8-0.6-1.2-1L422.1,248.4z"/>
	</g>
	<path id="XMLID_6_" class="st0" d="M422.4,254.9v1h-0.8l-24.7,32.2l-1,1.3c0.3,0.4,0.7,0.8,1,1.2l1-1.3l32-41.8
		c-0.5-0.2-1-0.4-1.5-0.6L422.4,254.9z"/>
	<g id="XMLID_3_">
		<path id="XMLID_5_" class="st0" d="M395.6,248.5c0.2,0,0.6,0,1.1-0.1l-0.2-0.1l-0.6-0.4l-0.5,0.6L395.6,248.5z"/>
		<path id="XMLID_4_" class="st0" d="M392.4,252.9v-0.4l-13.7,17.9l-0.9,1.2c0.4,0.3,0.8,0.7,1.2,1l0.9-1.2l12.5-16.3V252.9z"/>
	</g>
	<g id="XMLID_1_">
		<path id="XMLID_2_" class="st0" d="M414.6,202.9v2.1c1-1.3,1.8-2.9,2.2-5.1l-2.2,2.8V202.9z"/>
	</g>
</g>
</svg>
