<?xml version="1.0" encoding="utf-8"?>
<!-- Generator: Adobe Illustrator 21.0.0, SVG Export Plug-In . SVG Version: 6.00 Build 0)  -->
<svg version="1.1" id="Слой_1" xmlns="http://www.w3.org/2000/svg" xmlns:xlink="http://www.w3.org/1999/xlink" x="0px" y="0px"
	 viewBox="0 0 422.5 118.5" style="enable-background:new 0 0 422.5 118.5;" xml:space="preserve">
<style type="text/css">
	.st0{fill:#FFFFFF;}
	.st1{font-family:'MyriadPro-Regular';}
	.st2{font-size:26px;}
	.st3{letter-spacing:-2;}
	.st4{clip-path:url(#SVGID_2_);fill:#FFFFFF;}
	.st5{clip-path:url(#SVGID_4_);fill:#FFFFFF;}
</style>
<text transform="matrix(1 0 0 1 355.4336 72.4842)"><tspan x="0" y="0" class="st0 st1 st2 st3">g r </tspan><tspan x="23.8" y="0" class="st0 st1 st2 st3">o</tspan><tspan x="35.4" y="0" class="st0 st1 st2 st3"> </tspan><tspan x="38.4" y="0" class="st0 st1 st2 st3">u</tspan><tspan x="50.1" y="0" class="st0 st1 st2 st3"> </tspan><tspan x="53" y="0" class="st0 st1 st2">p</tspan></text>
<g>
	<defs>
		<rect id="SVGID_1_" width="422.5" height="118.5"/>
	</defs>
	<clipPath id="SVGID_2_">
		<use xlink:href="#SVGID_1_"  style="overflow:visible;"/>
	</clipPath>
	<rect x="35.9" y="82.5" class="st4" width="7.9" height="35.5"/>
	<path class="st4" d="M91.7,118H81.6L65.3,91.1h-0.2c0.3,4.7,0.5,8.1,0.5,10.2V118h-7.1V82.5h10l16.3,26.6H85
		c-0.3-4.6-0.4-7.9-0.4-9.8V82.5h7.1V118z"/>
	<polygon class="st4" points="120.9,118 112.9,118 112.9,88.8 102.8,88.8 102.8,82.5 131,82.5 131,88.8 120.9,88.8 	"/>
	<polygon class="st4" points="163.6,118 142.1,118 142.1,82.5 163.6,82.5 163.6,88.7 150,88.7 150,96.5 162.7,96.5 162.7,102.6 
		150,102.6 150,111.8 163.6,111.8 	"/>
	<polygon class="st4" points="176.7,118 176.7,82.5 184.6,82.5 184.6,111.8 199.8,111.8 199.8,118 	"/>
	<polygon class="st4" points="211.6,118 211.6,82.5 219.5,82.5 219.5,111.8 234.7,111.8 234.7,118 	"/>
	<polygon class="st4" points="268.1,118 246.5,118 246.5,82.5 268.1,82.5 268.1,88.7 254.4,88.7 254.4,96.5 267.1,96.5 267.1,102.6 
		254.4,102.6 254.4,111.8 268.1,111.8 	"/>
	<path class="st4" d="M297,88.2c-3,0-5.3,1.1-6.9,3.2c-1.6,2.1-2.5,5.1-2.5,8.9c0,7.9,3.1,11.9,9.4,11.9c2.6,0,5.8-0.6,9.6-1.9v6.3
		c-3.1,1.2-6.5,1.8-10.3,1.8c-5.5,0-9.6-1.6-12.5-4.7c-2.9-3.1-4.3-7.6-4.3-13.5c0-3.7,0.7-6.9,2.1-9.7c1.4-2.8,3.5-4.9,6.1-6.4
		c2.7-1.5,5.8-2.2,9.3-2.2c3.6,0,7.3,0.8,11,2.5l-2.6,6.1c-1.4-0.6-2.8-1.2-4.2-1.7S298.4,88.2,297,88.2"/>
	<polygon class="st4" points="334.3,118 326.3,118 326.3,88.8 316.1,88.8 316.1,82.5 344.4,82.5 344.4,88.8 334.3,88.8 	"/>
	<path class="st4" d="M385.9,82.5v23c0,2.6-0.6,4.9-1.9,6.9c-1.2,2-3,3.5-5.4,4.5c-2.3,1.1-5.1,1.6-8.3,1.6c-4.8,0-8.6-1.2-11.2-3.5
		c-2.7-2.3-4-5.5-4-9.6V82.5h7.9v21.7c0,2.7,0.6,4.7,1.7,6c1.2,1.3,3.1,1.9,5.8,1.9c2.6,0,4.5-0.6,5.7-1.9c1.2-1.3,1.8-3.3,1.8-6.1
		V82.5H385.9z"/>
	<path class="st4" d="M422.5,108.1c0,3.2-1.2,5.7-3.7,7.6c-2.4,1.8-5.8,2.8-10.2,2.8c-4,0-7.5-0.7-10.6-2.1v-7
		c2.5,1.1,4.7,1.8,6.4,2.3c1.8,0.4,3.4,0.7,4.8,0.7c1.7,0,3.1-0.3,4-0.9c0.9-0.6,1.4-1.6,1.4-2.8c0-0.7-0.2-1.3-0.6-1.9
		c-0.4-0.5-1-1.1-1.8-1.6c-0.8-0.5-2.4-1.3-4.9-2.4c-2.3-1-4-2-5.2-2.9c-1.1-0.9-2.1-2-2.7-3.3c-0.7-1.2-1-2.7-1-4.4
		c0-3.1,1.1-5.6,3.4-7.4c2.2-1.8,5.4-2.7,9.3-2.7c1.9,0,3.8,0.2,5.6,0.7c1.8,0.4,3.6,1.1,5.5,1.8l-2.6,5.9c-2-0.8-3.7-1.3-5-1.6
		c-1.3-0.3-2.6-0.5-3.9-0.5c-1.5,0-2.7,0.3-3.5,1c-0.8,0.7-1.2,1.5-1.2,2.6c0,0.7,0.2,1.2,0.5,1.7c0.3,0.5,0.8,1,1.5,1.4
		c0.7,0.5,2.4,1.3,5,2.5c3.5,1.6,5.9,3.2,7.2,4.8C421.8,103.9,422.5,105.8,422.5,108.1"/>
</g>
<path class="st0" d="M27.6,71.9L27.6,71.9L27.6,71.9L27.6,71.9z M28.6,72.1l27.1-5.8l-20.4,6.9L28.6,72.1z M48.2,62.7l0.5-0.2l0-0.1
	l9.6-1.5l2.9,3.5l-31,6.6L48.2,62.7z M59.2,60.7l4.4-0.7L61.9,64L59.2,60.7z M64.4,59.9l4.2-0.7l-5.6,4L64.4,59.9z M46.1,56.4
	l1.8,5.6l-18.1,8.4L46.1,56.4z M46.7,55.9l4.4-3.8l6.7,8.1l-9.3,1.5L46.7,55.9z M6.2,53.2l1.3-3l15.8,18.1L6.2,53.2z M2.1,44L7,49.6
	l-1.3,3.1L2.1,44z M42,41l8.7,10.5l-4.2,3.6L42,41z M1.9,42.8l8.7-1.7l-3.3,7.9L1.9,42.8z M41,40.3l4.9,15.4L27.9,71.1L41,40.3z
	 M7.8,49.5l3.6-8.7l9.4-1.9l5.7,32L7.8,49.5z M36.7,37.6l3.8,0.9l0,0l0.1,0.3l-0.3,0.2l0.3,0.3l-11.9,28L36.7,37.6z M74.3,36.7
	l-4.6,21.6l-5,0.8L74.3,36.7z M21.5,38.8l10.8-2.2l3.7,0.8l-8.8,33.1L21.5,38.8z M34,36.3l2.5-0.5l-0.3,1L34,36.3z M36.8,36.9
	l0.3-1.3l6.9-0.9L41.5,38L36.8,36.9z M20.6,34l10,2.3l-9.3,1.9L20.6,34z M14.9,32.6l0,0.1l5,1.1l0.8,4.4l-8.9,1.8L14.9,32.6z
	 M41.4,39.3l0.1-0.2l0.1-0.1l32.2-7.2L51.2,51.1L41.4,39.3z M51.6,51.7l23.5-20.2l0.2,0L75,33.2L63.9,59.3l-5.2,0.8L51.6,51.7z
	 M45.2,34.6l29.6-4l0.3,0.1l-0.1,0.1l-32.6,7.3L45.2,34.6z M54.2,23.4l19,6.7l-27.5,3.7L54.2,23.4z M44.1,19.8l9.5,3.3l-8.8,10.8
	l-7.7,1l-0.3-0.4l0.4,0.2L44.1,19.8z M54.7,22.8l3.1-3.9l14.6,10.1L54.7,22.8z M15.3,32.1L16,12l3.8,21.1L15.3,32.1z M17.7,10.5
	l25.7,9.1l-6.8,14.8L17.7,10.5z M7.1,15.1l8-4.7L2.5,38.9L7.1,15.1z M20.5,33.2l-4.1-23.2l0.1,0l19.9,25l-4,0.8L20.5,33.2z
	 M44.4,19.2l4.8-10.5l8.3,9.7L54,22.6L44.4,19.2z M55.3,6.2l16.8,14.7l3.2,8.2L55.3,6.2z M16.9,9.5L16.9,9.5L19,8.7l25.9-5.1
	l3.8,4.5l-5,10.9L16.9,9.5z M74.9,29.9L58.5,18.6l-9-10.6l2.2-4.8l23.6,26.9L74.9,29.9z M45.7,3.5l5-1l0.5,0.1L49,7.4L45.7,3.5z
	 M43.5,0.9l5.4,1.2l-3.8,0.7L43.5,0.9z M42.5,0.7L44.4,3L24,7L42.5,0.7z M42.7,0l-0.1,0.3L42.5,0L18.8,8l-2.7,0.5L16,8.5l-0.2,0.2
	l-0.1,0l0,0l-0.3,0l0,0.3l-0.1,0l0,0.3l-8.8,5.2l0.2,0.3l-0.3-0.1l-5.2,27l0.3,0.1L1.9,42l13.4-30.4l-0.7,20.8l0.3,0l0,0.1l-0.6-0.3
	l-3.4,8l-9.5,1.9l-0.2-0.2l-0.3,0.2l-0.3,0.1l4.5,10.8L5.4,53l-0.2,0.3l21.7,19.2l0.2-0.3L27,72.5l8.2,1.3l0.1-0.3l0.1,0.3L61.7,65
	l-0.1-0.2l0.2,0.2l0.5-0.4l0,0l7.5-5.4l0.4,0.1l5.4-25.8l1-2.4l-0.3-0.1l0.3-0.1l-4-10.2l-0.3,0.1l0.2-0.3L52.4,2.7l0.1-0.6L42.7,0z
	"/>
<g>
	<defs>
		<rect id="SVGID_3_" width="422.5" height="118.5"/>
	</defs>
	<clipPath id="SVGID_4_">
		<use xlink:href="#SVGID_3_"  style="overflow:visible;"/>
	</clipPath>
	<path class="st5" d="M77.6,30.8c0,1.1-0.9,1.9-1.9,1.9c-1.1,0-1.9-0.9-1.9-1.9c0-1.1,0.9-1.9,1.9-1.9
		C76.7,28.8,77.6,29.7,77.6,30.8"/>
	<path class="st5" d="M42.8,38.6c0,1.1-0.9,1.9-1.9,1.9c-1.1,0-1.9-0.9-1.9-1.9c0-1.1,0.9-1.9,1.9-1.9
		C41.9,36.7,42.8,37.5,42.8,38.6"/>
	<path class="st5" d="M64.1,64.4c0,1.1-0.9,1.9-1.9,1.9c-1.1,0-1.9-0.9-1.9-1.9s0.9-1.9,1.9-1.9C63.2,62.5,64.1,63.4,64.1,64.4"/>
	<path class="st5" d="M29.1,71.4c0,1.1-0.9,1.9-1.9,1.9s-1.9-0.9-1.9-1.9s0.9-1.9,1.9-1.9S29.1,70.4,29.1,71.4"/>
	<path class="st5" d="M3.8,42.2c0,1.1-0.9,1.9-1.9,1.9S0,43.2,0,42.2c0-1.1,0.9-1.9,1.9-1.9S3.8,41.1,3.8,42.2"/>
	<path class="st5" d="M17.8,9c0,1.1-0.9,1.9-1.9,1.9S14,10.1,14,9c0-1.1,0.9-1.9,1.9-1.9S17.8,7.9,17.8,9"/>
	<path class="st5" d="M53.3,2.2c0,1.1-0.9,1.9-1.9,1.9c-1.1,0-1.9-0.9-1.9-1.9c0-1.1,0.9-1.9,1.9-1.9C52.5,0.3,53.3,1.1,53.3,2.2"/>
	<path class="st5" d="M59.7,18.5c0,0.9-0.7,1.6-1.6,1.6c-0.9,0-1.6-0.7-1.6-1.6c0-0.9,0.7-1.6,1.6-1.6C59,16.9,59.7,17.6,59.7,18.5"
		/>
	<path class="st5" d="M50,62.5c0,0.9-0.7,1.6-1.6,1.6c-0.9,0-1.6-0.7-1.6-1.6c0-0.9,0.7-1.6,1.6-1.6C49.3,60.9,50,61.6,50,62.5"/>
	<path class="st5" d="M16.3,32.7c0,0.9-0.7,1.6-1.6,1.6c-0.9,0-1.6-0.7-1.6-1.6c0-0.9,0.7-1.6,1.6-1.6
		C15.6,31.1,16.3,31.8,16.3,32.7"/>
	<path class="st5" d="M38.5,35.5c0,0.9-0.7,1.6-1.6,1.6c-0.9,0-1.6-0.7-1.6-1.6c0-0.9,0.7-1.6,1.6-1.6
		C37.8,33.9,38.5,34.6,38.5,35.5"/>
	<path class="st5" d="M8,53.2c0,0.9-0.7,1.6-1.6,1.6c-0.9,0-1.6-0.7-1.6-1.6c0-0.9,0.7-1.6,1.6-1.6C7.3,51.6,8,52.3,8,53.2"/>
</g>
</svg>
