<?xml version="1.0" encoding="utf-8"?>
<!-- Generator: Adobe Illustrator 21.0.2, SVG Export Plug-In . SVG Version: 6.00 Build 0)  -->
<svg version="1.1" id="Capa_1" xmlns="http://www.w3.org/2000/svg" xmlns:xlink="http://www.w3.org/1999/xlink" x="0px" y="0px"
	 viewBox="0 0 725 221.4" style="enable-background:new 0 0 725 221.4;" xml:space="preserve">
<style type="text/css">
	.st0{fill:url(#SVGID_1_);}
	.st1{fill:url(#SVGID_2_);}
	.st2{fill:url(#SVGID_3_);}
	.st3{font-family:'Play-Regular';}
	.st4{font-size:197.956px;}
</style>
<g>
	
		<linearGradient id="SVGID_1_" gradientUnits="userSpaceOnUse" x1="58.1488" y1="143.8562" x2="221.3834" y2="143.8562" gradientTransform="matrix(1 0 0 -1 0 224)">
		<stop  offset="0" style="stop-color:#3FACFF"/>
		<stop  offset="0.2071" style="stop-color:#3EB0FE"/>
		<stop  offset="0.4342" style="stop-color:#3BBEFB"/>
		<stop  offset="0.6708" style="stop-color:#35D4F5"/>
		<stop  offset="0.9126" style="stop-color:#2DF2ED"/>
		<stop  offset="1" style="stop-color:#2AFFEA"/>
	</linearGradient>
	<path class="st0" d="M65,76.8c17.2,39.8,55.5,50.2,89.4,59.3c21.6,5.8,42.3,11.5,55.2,24.2c26.4-52.4,7.1-116.9-44.5-146
		C134.3-3.1,98.7-4.1,68.3,8.4C62.1,18.6,50.8,43.9,65,76.8z"/>
	
		<linearGradient id="SVGID_2_" gradientUnits="userSpaceOnUse" x1="2.762546e-03" y1="84.2" x2="78" y2="84.2" gradientTransform="matrix(1 0 0 -1 0 224)">
		<stop  offset="0" style="stop-color:#3FACFF"/>
		<stop  offset="0.2071" style="stop-color:#3EB0FE"/>
		<stop  offset="0.4342" style="stop-color:#3BBEFB"/>
		<stop  offset="0.6708" style="stop-color:#35D4F5"/>
		<stop  offset="0.9126" style="stop-color:#2DF2ED"/>
		<stop  offset="1" style="stop-color:#2AFFEA"/>
	</linearGradient>
	<path class="st1" d="M40.9,151C14,122,9.6,89.1,10.6,66.6c0.1-1.2,0.1-2.4,0.2-3.5c-24.9,52.1-5.5,115.2,45.5,144
		c7,4,14.3,7.1,21.7,9.4C75.7,202.4,67.4,179.6,40.9,151z"/>
	
		<linearGradient id="SVGID_3_" gradientUnits="userSpaceOnUse" x1="25.438" y1="103.1923" x2="201.6" y2="103.1923" gradientTransform="matrix(1 0 0 -1 0 224)">
		<stop  offset="0" style="stop-color:#3FACFF"/>
		<stop  offset="0.2071" style="stop-color:#3EB0FE"/>
		<stop  offset="0.4342" style="stop-color:#3BBEFB"/>
		<stop  offset="0.6708" style="stop-color:#35D4F5"/>
		<stop  offset="0.9126" style="stop-color:#2DF2ED"/>
		<stop  offset="1" style="stop-color:#2AFFEA"/>
	</linearGradient>
	<path class="st2" d="M150.4,150.6c-35.3-9.6-79.2-21.4-99.2-67.9c-10.9-25.2-9.1-46.9-4.4-62.5c-5.1,3.6-10,7.7-14.5,12.3
		c-2.4,6.6-6.3,19.9-6.8,36.2c-0.9,27.9,8,52.2,26.4,72.1c32.3,34.9,40.3,62.9,41.7,79.3c41,6.4,83.4-10.8,108-46.2
		C192.1,161.9,172.6,156.6,150.4,150.6z"/>
	<text transform="matrix(1 0 0 1 235 174.2129)" class="st3 st4">IMKT</text>
</g>
</svg>
