<svg id="svg" version="1.1" width="400" height="90.0105152471083" xmlns="http://www.w3.org/2000/svg" xmlns:xlink="http://www.w3.org/1999/xlink" style="display: block;"><g id="svgg"><path id="path0" d="" stroke="none" fill="#000000" fill-rule="evenodd"></path><path id="path1" d="" stroke="none" fill="#555555" fill-rule="evenodd"></path><path id="path2" d="M0.601 1.765 C 0.480 2.079,0.608 2.334,0.885 2.331 C 1.026 2.329,1.022 2.289,0.869 2.192 C 0.751 2.118,0.703 1.932,0.762 1.778 C 0.821 1.625,0.831 1.500,0.786 1.500 C 0.740 1.500,0.657 1.619,0.601 1.765 M0.187 2.546 C -0.048 2.781,-0.058 3.333,0.172 3.333 C 0.266 3.333,0.392 3.202,0.451 3.042 C 0.511 2.881,0.627 2.704,0.710 2.648 C 0.793 2.592,0.752 2.504,0.618 2.453 C 0.484 2.401,0.290 2.444,0.187 2.546 M399.705 74.500 C 399.705 74.821,399.740 74.952,399.782 74.792 C 399.823 74.631,399.823 74.369,399.782 74.208 C 399.740 74.048,399.705 74.179,399.705 74.500 M399.773 76.250 C 399.799 76.571,399.747 76.833,399.660 76.833 C 399.572 76.833,399.500 76.918,399.500 77.020 C 399.500 77.150,399.577 77.143,399.750 77.000 C 400.009 76.785,400.104 75.667,399.864 75.667 C 399.789 75.667,399.748 75.929,399.773 76.250 M390.042 77.615 C 390.202 77.657,390.465 77.657,390.625 77.615 C 390.785 77.573,390.654 77.539,390.333 77.539 C 390.012 77.539,389.881 77.573,390.042 77.615 " stroke="none" fill="#808080" fill-rule="evenodd"></path><path id="path3" d="M1.407 0.630 C 1.137 0.814,0.465 2.355,0.429 2.873 C 0.398 3.330,0.474 3.380,1.205 3.378 C 1.363 3.378,1.456 3.436,1.412 3.507 C 1.334 3.634,2.619 4.333,2.931 4.333 C 3.018 4.333,3.365 4.521,3.702 4.750 C 4.040 4.979,4.512 5.167,4.751 5.167 C 4.990 5.167,5.145 5.234,5.094 5.316 C 4.989 5.486,5.375 5.667,5.847 5.667 C 6.023 5.667,6.167 5.742,6.167 5.833 C 6.167 5.925,6.354 6.000,6.583 6.000 C 6.813 6.000,7.000 6.061,7.000 6.135 C 7.000 6.209,7.319 6.399,7.708 6.557 C 8.098 6.716,8.629 6.955,8.889 7.090 C 9.148 7.224,9.504 7.333,9.680 7.333 C 9.856 7.333,10.000 7.398,10.000 7.477 C 10.000 7.647,11.297 8.167,11.719 8.167 C 11.879 8.167,12.054 8.279,12.106 8.417 C 12.159 8.554,12.329 8.667,12.484 8.667 C 12.640 8.667,12.839 8.739,12.928 8.828 C 13.016 8.916,13.329 9.007,13.623 9.030 C 13.917 9.052,14.195 9.167,14.240 9.285 C 14.286 9.403,14.471 9.500,14.652 9.500 C 14.832 9.500,15.027 9.575,15.083 9.667 C 15.140 9.758,15.323 9.833,15.489 9.833 C 15.656 9.833,15.886 9.946,16.000 10.083 C 16.114 10.221,16.381 10.333,16.594 10.333 C 16.806 10.333,17.027 10.408,17.083 10.500 C 17.140 10.592,17.361 10.667,17.575 10.667 C 17.789 10.667,18.008 10.779,18.060 10.917 C 18.116 11.063,18.366 11.167,18.661 11.167 L 19.167 11.167 19.167 12.907 C 19.167 13.887,19.239 14.692,19.333 14.750 C 19.425 14.807,19.500 15.001,19.500 15.182 C 19.500 15.363,19.613 15.554,19.750 15.606 C 19.887 15.659,20.000 15.854,20.000 16.040 C 20.000 16.226,20.187 16.552,20.417 16.765 C 20.646 16.977,20.833 17.229,20.833 17.325 C 20.833 17.421,20.913 17.500,21.011 17.500 C 21.109 17.500,21.437 17.762,21.739 18.083 C 22.042 18.404,22.449 18.667,22.645 18.667 C 22.849 18.667,23.000 18.773,23.000 18.917 C 23.000 19.072,23.157 19.167,23.417 19.167 C 23.646 19.167,23.833 19.242,23.833 19.333 C 23.833 19.438,24.833 19.500,26.500 19.500 C 28.167 19.500,29.167 19.438,29.167 19.333 C 29.167 19.242,29.354 19.167,29.583 19.167 C 29.843 19.167,30.000 19.072,30.000 18.917 C 30.000 18.773,30.151 18.667,30.355 18.667 C 30.551 18.667,30.958 18.404,31.261 18.083 C 31.563 17.762,31.891 17.500,31.989 17.500 C 32.087 17.500,32.167 17.421,32.167 17.323 C 32.167 17.224,32.257 17.204,32.375 17.278 C 32.584 17.409,33.797 17.603,35.487 17.775 C 35.985 17.826,36.496 17.972,36.624 18.100 C 36.766 18.243,37.209 18.333,37.762 18.333 C 38.260 18.333,38.667 18.408,38.667 18.500 C 38.667 18.592,38.723 18.658,38.792 18.647 C 39.307 18.566,40.835 18.697,40.761 18.816 C 40.625 19.036,41.088 19.167,42.004 19.167 C 42.449 19.167,42.860 19.242,42.917 19.333 C 42.973 19.425,43.409 19.502,43.885 19.505 C 44.380 19.508,44.888 19.615,45.074 19.755 C 45.253 19.891,45.751 20.000,46.189 20.000 C 46.624 20.000,47.027 20.075,47.083 20.167 C 47.140 20.258,47.600 20.333,48.105 20.333 C 48.700 20.333,49.112 20.422,49.274 20.583 C 49.434 20.743,49.845 20.833,50.419 20.833 C 50.911 20.833,51.360 20.908,51.417 21.000 C 51.473 21.092,51.919 21.167,52.406 21.167 C 52.991 21.167,53.363 21.252,53.500 21.417 C 53.637 21.582,54.009 21.667,54.594 21.667 C 55.081 21.667,55.527 21.742,55.583 21.833 C 55.640 21.925,56.169 22.000,56.760 22.000 C 57.530 22.000,57.822 22.059,57.792 22.208 C 57.763 22.351,58.040 22.431,58.667 22.461 C 59.171 22.486,59.733 22.574,59.917 22.657 C 60.100 22.739,60.622 22.851,61.077 22.905 C 61.531 22.959,61.977 23.077,62.068 23.168 C 62.159 23.259,62.616 23.333,63.083 23.333 C 63.551 23.333,64.010 23.410,64.103 23.503 C 64.197 23.597,64.680 23.713,65.178 23.762 C 65.676 23.811,66.155 23.922,66.242 24.009 C 66.329 24.096,66.829 24.167,67.353 24.167 C 67.933 24.167,68.331 24.243,68.371 24.362 C 68.407 24.472,68.889 24.590,69.468 24.632 C 70.036 24.673,70.500 24.773,70.500 24.853 C 70.500 24.934,70.955 25.000,71.512 25.000 C 72.123 25.000,72.610 25.086,72.742 25.218 C 72.861 25.338,73.325 25.454,73.771 25.477 C 74.218 25.499,74.608 25.589,74.639 25.676 C 74.669 25.762,75.144 25.833,75.692 25.833 C 76.357 25.833,76.774 25.917,76.940 26.083 C 77.094 26.237,77.503 26.333,78.002 26.333 C 78.448 26.333,78.860 26.408,78.917 26.500 C 78.973 26.592,79.457 26.667,79.992 26.667 C 80.703 26.667,80.990 26.734,81.060 26.917 C 81.131 27.101,81.422 27.167,82.161 27.167 C 82.720 27.167,83.167 27.241,83.167 27.333 C 83.167 27.425,83.585 27.500,84.095 27.500 C 84.698 27.500,85.111 27.588,85.274 27.750 C 85.435 27.911,85.847 28.000,86.429 28.000 C 86.926 28.000,87.333 28.075,87.333 28.167 C 87.333 28.259,87.771 28.333,88.313 28.333 C 88.980 28.333,89.359 28.413,89.500 28.583 C 89.637 28.748,90.009 28.833,90.594 28.833 C 91.081 28.833,91.527 28.908,91.583 29.000 C 91.640 29.092,92.124 29.167,92.659 29.167 C 93.369 29.167,93.657 29.234,93.727 29.417 C 93.796 29.597,94.078 29.667,94.735 29.667 C 95.237 29.667,95.693 29.742,95.750 29.833 C 95.807 29.925,96.291 30.000,96.825 30.000 C 97.536 30.000,97.823 30.067,97.894 30.250 C 97.964 30.434,98.255 30.500,98.995 30.500 C 99.554 30.500,100.000 30.574,100.000 30.667 C 100.000 30.758,100.418 30.833,100.929 30.833 C 101.532 30.833,101.945 30.921,102.107 31.083 C 102.268 31.244,102.680 31.333,103.262 31.333 C 103.760 31.333,104.167 31.408,104.167 31.500 C 104.167 31.592,104.606 31.667,105.151 31.667 L 106.134 31.667 106.192 33.278 C 106.232 34.375,106.316 34.911,106.458 34.958 C 106.573 34.997,106.667 35.160,106.667 35.322 C 106.667 36.126,108.960 38.833,109.641 38.833 C 109.819 38.833,110.008 38.946,110.060 39.083 C 110.113 39.221,110.346 39.333,110.578 39.333 C 110.810 39.333,111.000 39.408,111.000 39.500 C 111.000 39.604,111.972 39.667,113.583 39.667 C 115.194 39.667,116.167 39.604,116.167 39.500 C 116.167 39.408,116.357 39.333,116.589 39.333 C 116.821 39.333,117.054 39.221,117.106 39.083 C 117.159 38.946,117.330 38.833,117.486 38.833 C 117.643 38.833,117.923 38.691,118.110 38.517 C 118.444 38.205,118.454 38.205,118.679 38.517 C 118.804 38.691,119.003 38.833,119.120 38.833 C 119.237 38.833,119.333 38.914,119.333 39.012 C 119.333 39.243,119.757 39.667,119.988 39.667 C 120.086 39.667,120.167 39.747,120.167 39.845 C 120.167 40.076,120.591 40.500,120.821 40.500 C 120.920 40.500,121.000 40.581,121.000 40.681 C 121.000 40.780,121.555 41.411,122.234 42.083 C 122.913 42.756,123.531 43.418,123.609 43.555 C 123.838 43.960,127.006 47.167,127.177 47.167 C 127.263 47.167,127.333 47.241,127.333 47.332 C 127.333 47.423,129.021 49.195,131.083 51.270 C 133.146 53.345,134.833 55.095,134.833 55.160 C 134.833 55.224,135.021 55.377,135.250 55.500 C 135.479 55.623,135.667 55.823,135.667 55.945 C 135.667 56.067,135.742 56.167,135.833 56.167 C 136.050 56.167,137.333 57.450,137.333 57.667 C 137.333 57.758,137.414 57.833,137.512 57.833 C 137.743 57.833,138.167 58.257,138.167 58.488 C 138.167 58.586,138.239 58.667,138.327 58.667 C 138.532 58.667,140.667 60.806,140.667 61.012 C 140.667 61.097,140.779 61.167,140.917 61.167 C 141.054 61.167,141.167 61.247,141.167 61.345 C 141.167 61.576,141.591 62.000,141.821 62.000 C 141.920 62.000,142.000 62.080,142.000 62.179 C 142.000 62.409,142.424 62.833,142.655 62.833 C 142.753 62.833,142.833 62.914,142.833 63.012 C 142.833 63.243,143.257 63.667,143.488 63.667 C 143.586 63.667,143.667 63.741,143.667 63.831 C 143.667 64.091,144.211 64.659,144.367 64.562 C 144.445 64.514,144.488 64.549,144.462 64.639 C 144.437 64.728,144.815 65.203,145.301 65.693 C 147.543 67.950,150.000 70.545,150.000 70.656 C 150.000 70.722,150.188 70.877,150.417 71.000 C 150.646 71.123,150.833 71.277,150.833 71.343 C 150.833 71.541,152.306 72.972,152.407 72.871 C 152.458 72.820,152.500 72.862,152.500 72.965 C 152.500 73.197,154.271 75.000,154.500 75.000 C 154.592 75.000,154.667 75.080,154.667 75.179 C 154.667 75.409,155.091 75.833,155.321 75.833 C 155.420 75.833,155.500 75.914,155.500 76.012 C 155.500 76.243,155.924 76.667,156.155 76.667 C 156.253 76.667,156.333 76.747,156.333 76.845 C 156.333 77.076,156.757 77.500,156.988 77.500 C 157.086 77.500,157.167 77.576,157.167 77.670 C 157.167 77.763,157.629 78.299,158.195 78.862 L 159.224 79.884 159.184 82.502 C 159.150 84.695,159.186 85.162,159.405 85.381 C 159.549 85.525,159.667 85.798,159.667 85.988 C 159.667 86.178,159.742 86.333,159.833 86.333 C 159.925 86.333,160.000 86.486,160.000 86.672 C 160.000 86.858,160.112 87.054,160.250 87.106 C 160.387 87.159,160.500 87.271,160.500 87.355 C 160.500 87.614,162.340 89.333,162.618 89.333 C 162.762 89.333,162.976 89.465,163.093 89.625 C 163.284 89.886,163.655 89.917,166.584 89.917 C 169.512 89.917,169.883 89.886,170.074 89.625 C 170.191 89.465,170.391 89.331,170.518 89.328 C 170.829 89.321,171.333 88.926,171.333 88.690 C 171.333 88.585,171.414 88.500,171.512 88.500 C 171.743 88.500,172.167 88.076,172.167 87.845 C 172.167 87.747,172.279 87.667,172.417 87.667 C 172.554 87.667,172.667 87.554,172.667 87.417 C 172.667 87.279,172.742 87.167,172.833 87.167 C 172.925 87.167,173.000 86.979,173.000 86.750 C 173.000 86.491,173.094 86.333,173.250 86.333 C 173.400 86.333,173.500 86.180,173.500 85.950 C 173.500 85.739,173.582 85.485,173.681 85.385 C 173.781 85.286,173.905 84.430,173.957 83.485 C 174.052 81.761,174.369 81.000,174.992 81.000 C 175.088 81.000,175.167 80.930,175.167 80.845 C 175.167 80.759,175.335 80.636,175.542 80.571 C 175.748 80.507,176.082 80.277,176.284 80.060 C 176.486 79.844,176.711 79.667,176.785 79.667 C 176.859 79.667,177.122 79.479,177.369 79.250 C 177.617 79.021,177.865 78.833,177.921 78.833 C 177.978 78.833,178.128 78.740,178.256 78.625 C 178.757 78.176,178.990 78.000,179.084 78.000 C 179.138 78.000,179.356 77.813,179.569 77.583 C 179.781 77.354,180.037 77.167,180.137 77.167 C 180.236 77.167,180.497 76.988,180.715 76.770 C 180.933 76.552,181.275 76.321,181.475 76.258 C 181.675 76.195,181.795 76.073,181.743 75.988 C 181.690 75.903,181.784 75.833,181.951 75.833 C 182.118 75.833,182.395 75.646,182.567 75.417 C 182.739 75.188,182.986 75.000,183.115 75.000 C 183.244 75.000,183.620 74.737,183.950 74.417 C 184.281 74.096,184.654 73.833,184.781 73.833 C 184.907 73.833,185.054 73.721,185.106 73.583 C 185.159 73.446,185.307 73.333,185.434 73.333 C 185.562 73.333,185.667 73.258,185.667 73.167 C 185.667 73.075,185.775 73.000,185.908 73.000 C 186.041 73.000,186.210 72.906,186.283 72.791 C 186.357 72.677,186.623 72.476,186.875 72.347 C 187.127 72.217,187.333 72.019,187.333 71.907 C 187.333 71.794,187.508 71.659,187.721 71.606 C 187.934 71.552,188.334 71.300,188.609 71.046 C 189.130 70.564,189.575 70.245,190.000 70.049 C 190.137 69.986,190.437 69.761,190.665 69.550 C 190.893 69.339,191.141 69.167,191.215 69.167 C 191.289 69.167,191.523 68.979,191.735 68.750 C 191.948 68.521,192.189 68.333,192.271 68.333 C 192.353 68.333,192.622 68.146,192.869 67.917 C 193.117 67.688,193.397 67.500,193.493 67.500 C 193.588 67.500,193.667 67.387,193.667 67.250 C 193.667 67.111,193.815 67.000,194.000 67.000 C 194.183 67.000,194.333 66.925,194.333 66.833 C 194.333 66.742,194.448 66.667,194.589 66.667 C 194.729 66.667,194.885 66.560,194.935 66.430 C 194.985 66.299,195.282 66.071,195.596 65.922 C 195.910 65.773,196.167 65.580,196.167 65.492 C 196.167 65.405,196.263 65.333,196.380 65.333 C 196.497 65.333,196.698 65.187,196.827 65.009 C 196.955 64.831,197.122 64.722,197.197 64.769 C 197.272 64.815,197.333 64.774,197.333 64.677 C 197.333 64.579,197.418 64.500,197.523 64.500 C 197.627 64.500,197.886 64.313,198.098 64.083 C 198.310 63.854,198.600 63.667,198.742 63.667 C 198.884 63.667,199.000 63.592,199.000 63.500 C 199.000 63.408,199.112 63.333,199.250 63.333 C 199.387 63.333,199.500 63.221,199.500 63.083 C 199.500 62.946,199.612 62.833,199.750 62.833 C 199.887 62.833,200.000 62.758,200.000 62.667 C 200.000 62.575,200.109 62.500,200.242 62.500 C 200.376 62.500,200.658 62.331,200.870 62.125 C 201.082 61.919,201.648 61.487,202.127 61.167 C 202.607 60.846,203.000 60.527,203.000 60.458 C 203.000 60.390,203.095 60.333,203.210 60.333 C 203.326 60.333,203.622 60.146,203.869 59.917 C 204.117 59.688,204.389 59.500,204.475 59.500 C 204.561 59.500,204.674 59.387,204.727 59.250 C 204.780 59.112,204.910 59.000,205.017 59.000 C 205.124 59.000,205.374 58.831,205.571 58.625 C 205.769 58.419,206.190 58.105,206.507 57.929 C 206.824 57.752,207.197 57.489,207.336 57.345 C 207.601 57.070,208.081 56.742,208.500 56.550 C 208.852 56.389,209.167 56.056,209.167 55.845 C 209.167 55.747,209.327 55.667,209.523 55.667 C 209.718 55.667,210.052 55.479,210.265 55.250 C 210.477 55.021,210.729 54.833,210.825 54.833 C 210.921 54.833,211.000 54.758,211.000 54.667 C 211.000 54.575,211.115 54.500,211.255 54.500 C 211.396 54.500,211.554 54.387,211.606 54.250 C 211.659 54.112,211.775 54.000,211.863 54.000 C 211.951 54.000,212.128 53.906,212.256 53.792 C 212.802 53.302,212.995 53.167,213.148 53.167 C 213.236 53.167,213.457 52.979,213.637 52.750 C 213.817 52.521,214.087 52.333,214.238 52.333 C 214.388 52.333,214.554 52.221,214.606 52.083 C 214.659 51.946,214.789 51.833,214.895 51.833 C 215.001 51.833,215.228 51.646,215.400 51.417 C 215.573 51.188,215.853 51.000,216.023 51.000 C 216.194 51.000,216.333 50.925,216.333 50.833 C 216.333 50.742,216.446 50.667,216.583 50.667 C 216.721 50.667,216.833 50.581,216.833 50.477 C 216.833 50.221,217.348 49.845,217.708 49.839 C 217.869 49.836,218.000 49.721,218.000 49.583 C 218.000 49.446,218.112 49.333,218.250 49.333 C 218.387 49.333,218.500 49.258,218.500 49.167 C 218.500 49.075,218.595 49.000,218.710 49.000 C 218.826 49.000,219.122 48.812,219.369 48.583 C 219.617 48.354,219.897 48.167,219.993 48.167 C 220.088 48.167,220.167 48.054,220.167 47.917 C 220.167 47.760,220.325 47.667,220.589 47.667 C 220.821 47.667,221.054 47.779,221.106 47.917 C 221.159 48.054,221.344 48.167,221.518 48.167 C 221.691 48.167,221.833 48.242,221.833 48.333 C 221.833 48.425,222.050 48.500,222.316 48.500 C 222.596 48.500,222.839 48.607,222.896 48.757 C 223.036 49.120,227.973 49.099,228.112 48.734 C 228.162 48.605,228.382 48.500,228.601 48.500 C 228.821 48.500,229.000 48.425,229.000 48.333 C 229.000 48.242,229.152 48.167,229.339 48.167 C 229.525 48.167,229.720 48.054,229.773 47.917 C 229.826 47.779,229.941 47.667,230.030 47.667 C 230.246 47.667,230.667 47.234,230.667 47.012 C 230.667 46.914,230.747 46.833,230.845 46.833 C 231.068 46.833,231.500 46.413,231.500 46.196 C 231.500 46.108,231.612 45.992,231.750 45.940 C 231.887 45.887,232.000 45.724,232.000 45.577 C 232.000 44.969,233.438 44.495,233.750 45.000 C 233.807 45.092,234.355 45.169,234.968 45.172 C 235.683 45.175,236.199 45.265,236.407 45.422 C 236.618 45.581,237.125 45.667,237.865 45.667 C 238.511 45.667,239.000 45.739,239.000 45.833 C 239.000 45.929,239.521 46.000,240.230 46.000 C 241.119 46.000,241.517 46.069,241.667 46.250 C 241.814 46.428,242.205 46.500,243.020 46.500 C 243.673 46.500,244.167 46.572,244.167 46.667 C 244.167 46.763,244.688 46.833,245.396 46.833 C 246.286 46.833,246.683 46.902,246.833 47.083 C 246.981 47.261,247.372 47.333,248.187 47.333 C 248.840 47.333,249.333 47.405,249.333 47.500 C 249.333 47.597,249.892 47.667,250.677 47.667 C 251.425 47.667,251.979 47.733,251.927 47.816 C 251.779 48.055,252.279 48.167,253.504 48.167 C 254.133 48.167,254.693 48.242,254.750 48.333 C 254.807 48.425,255.366 48.500,255.992 48.500 C 256.851 48.500,257.155 48.562,257.227 48.750 C 257.300 48.942,257.616 49.000,258.578 49.000 C 259.304 49.000,259.833 49.070,259.833 49.167 C 259.833 49.263,260.355 49.333,261.066 49.333 C 262.007 49.333,262.320 49.392,262.394 49.583 C 262.466 49.772,262.772 49.833,263.652 49.833 C 264.291 49.833,264.853 49.897,264.901 49.975 C 264.950 50.053,265.528 50.163,266.187 50.218 C 266.846 50.273,267.463 50.397,267.559 50.492 C 267.655 50.588,268.266 50.667,268.917 50.667 C 269.567 50.667,270.181 50.748,270.280 50.847 C 270.379 50.946,270.976 51.064,271.605 51.109 C 272.235 51.155,272.775 51.261,272.806 51.346 C 272.836 51.431,273.411 51.500,274.083 51.500 C 274.823 51.500,275.330 51.572,275.367 51.683 C 275.400 51.784,275.950 51.906,276.589 51.955 C 277.227 52.003,277.825 52.098,277.917 52.165 C 278.008 52.231,278.608 52.302,279.248 52.323 C 279.889 52.343,280.463 52.440,280.524 52.539 C 280.585 52.637,281.223 52.753,281.942 52.796 C 282.662 52.839,283.275 52.940,283.306 53.020 C 283.336 53.101,283.917 53.167,284.597 53.167 L 285.833 53.167 285.833 55.000 C 285.833 56.111,285.899 56.833,286.000 56.833 C 286.092 56.833,286.167 56.978,286.167 57.155 C 286.167 57.332,286.279 57.589,286.417 57.726 C 286.554 57.864,286.667 58.084,286.667 58.215 C 286.667 58.346,286.854 58.594,287.083 58.766 C 287.313 58.938,287.500 59.174,287.500 59.290 C 287.500 59.405,287.600 59.500,287.722 59.500 C 287.844 59.500,288.044 59.687,288.167 59.917 C 288.289 60.146,288.489 60.333,288.611 60.333 C 288.734 60.333,288.833 60.407,288.833 60.497 C 288.833 60.587,289.021 60.707,289.250 60.765 C 289.479 60.822,289.667 60.936,289.667 61.018 C 289.667 61.100,289.848 61.167,290.069 61.167 C 290.291 61.167,290.503 61.260,290.542 61.375 C 290.641 61.674,295.692 61.674,295.792 61.375 C 295.830 61.260,296.042 61.167,296.264 61.167 C 296.485 61.167,296.667 61.100,296.667 61.018 C 296.667 60.936,296.854 60.822,297.083 60.765 C 297.313 60.707,297.500 60.587,297.500 60.497 C 297.500 60.407,297.600 60.333,297.722 60.333 C 297.844 60.333,298.044 60.146,298.167 59.917 C 298.289 59.688,298.489 59.500,298.611 59.500 C 298.734 59.500,298.833 59.422,298.833 59.328 C 298.833 59.112,299.788 58.167,300.006 58.167 C 300.094 58.167,300.167 58.279,300.167 58.417 C 300.167 58.571,300.323 58.667,300.573 58.667 C 300.797 58.667,301.027 58.742,301.083 58.833 C 301.140 58.925,301.360 59.000,301.573 59.000 C 301.785 59.000,302.053 59.112,302.167 59.250 C 302.281 59.387,302.546 59.500,302.757 59.500 C 302.967 59.500,303.164 59.574,303.194 59.665 C 303.225 59.756,303.465 59.848,303.728 59.870 C 303.991 59.892,304.243 60.005,304.288 60.121 C 304.332 60.238,304.534 60.333,304.736 60.333 C 304.938 60.333,305.249 60.443,305.426 60.578 C 305.604 60.713,305.919 60.825,306.125 60.828 C 306.331 60.831,306.500 60.908,306.500 61.000 C 306.500 61.092,306.688 61.167,306.917 61.167 C 307.146 61.167,307.333 61.233,307.333 61.315 C 307.333 61.396,307.596 61.512,307.917 61.572 C 308.237 61.633,308.500 61.753,308.500 61.841 C 308.500 61.928,308.669 62.002,308.875 62.005 C 309.081 62.008,309.396 62.121,309.574 62.255 C 309.751 62.390,310.070 62.500,310.282 62.500 C 310.494 62.500,310.667 62.575,310.667 62.667 C 310.667 62.758,310.822 62.833,311.012 62.833 C 311.202 62.833,311.470 62.946,311.607 63.083 C 311.745 63.221,312.077 63.333,312.345 63.333 C 312.614 63.333,312.833 63.408,312.833 63.500 C 312.833 63.592,313.013 63.667,313.232 63.667 C 313.452 63.667,313.674 63.779,313.727 63.917 C 313.783 64.063,314.033 64.167,314.328 64.167 C 314.606 64.167,314.833 64.242,314.833 64.333 C 314.833 64.425,315.013 64.500,315.232 64.500 C 315.452 64.500,315.674 64.612,315.727 64.750 C 315.782 64.895,316.032 65.000,316.318 65.000 C 316.591 65.000,316.860 65.075,316.917 65.167 C 316.973 65.258,317.195 65.333,317.409 65.333 C 317.623 65.333,317.841 65.446,317.894 65.583 C 317.946 65.721,318.175 65.833,318.402 65.833 C 318.628 65.833,318.860 65.908,318.917 66.000 C 318.973 66.092,319.240 66.167,319.510 66.167 C 319.834 66.167,320.000 66.251,320.000 66.417 C 320.000 66.633,320.523 66.768,321.042 66.686 C 321.110 66.676,321.167 66.742,321.167 66.833 C 321.167 66.925,321.346 67.000,321.566 67.000 C 321.785 67.000,322.008 67.113,322.060 67.250 C 322.113 67.388,322.342 67.500,322.568 67.500 C 322.795 67.500,323.027 67.575,323.083 67.667 C 323.140 67.758,323.372 67.833,323.598 67.833 C 323.825 67.833,324.054 67.946,324.106 68.083 C 324.159 68.221,324.333 68.333,324.492 68.333 C 324.757 68.333,325.476 68.618,326.206 69.011 C 326.365 69.096,326.646 69.167,326.831 69.167 C 327.016 69.167,327.167 69.238,327.167 69.326 C 327.167 69.413,327.429 69.534,327.750 69.594 C 328.071 69.655,328.333 69.770,328.333 69.852 C 328.333 69.933,328.502 70.002,328.708 70.005 C 328.915 70.008,329.229 70.121,329.407 70.255 C 329.585 70.390,329.904 70.500,330.115 70.500 C 330.327 70.500,330.500 70.575,330.500 70.667 C 330.500 70.758,330.655 70.833,330.845 70.833 C 331.035 70.833,331.303 70.946,331.440 71.083 C 331.578 71.221,331.873 71.333,332.095 71.333 C 332.318 71.333,332.500 71.408,332.500 71.500 C 332.500 71.592,332.669 71.669,332.875 71.672 C 333.081 71.675,333.396 71.787,333.574 71.922 C 333.751 72.057,334.070 72.167,334.282 72.167 C 334.494 72.167,334.667 72.242,334.667 72.333 C 334.667 72.425,334.854 72.500,335.083 72.500 C 335.313 72.500,335.500 72.572,335.500 72.659 C 335.500 72.747,335.762 72.867,336.083 72.928 C 336.404 72.988,336.667 73.104,336.667 73.185 C 336.667 73.267,336.845 73.333,337.063 73.333 C 337.281 73.333,337.553 73.446,337.667 73.583 C 337.781 73.721,338.090 73.833,338.354 73.833 C 338.618 73.833,338.833 73.908,338.833 74.000 C 338.833 74.092,339.013 74.167,339.232 74.167 C 339.452 74.167,339.674 74.279,339.727 74.417 C 339.782 74.561,340.032 74.667,340.318 74.667 C 340.591 74.667,340.860 74.742,340.917 74.833 C 340.973 74.925,341.171 75.000,341.355 75.000 C 341.540 75.000,341.803 75.113,341.940 75.250 C 342.078 75.388,342.331 75.500,342.502 75.500 C 342.673 75.500,342.860 75.575,342.917 75.667 C 342.973 75.758,343.195 75.833,343.409 75.833 C 343.623 75.833,343.841 75.946,343.894 76.083 C 343.946 76.221,344.175 76.333,344.402 76.333 C 344.628 76.333,344.860 76.408,344.917 76.500 C 344.973 76.592,345.240 76.667,345.510 76.667 C 345.825 76.667,346.000 76.752,346.000 76.906 C 346.000 77.054,346.206 77.165,346.542 77.198 L 347.083 77.250 347.183 78.408 C 347.238 79.052,347.367 79.595,347.474 79.630 C 347.580 79.666,347.667 79.876,347.667 80.097 C 347.667 80.319,347.742 80.500,347.833 80.500 C 347.925 80.500,348.000 80.612,348.000 80.750 C 348.000 80.887,348.300 81.309,348.667 81.687 C 349.033 82.064,349.333 82.439,349.333 82.520 C 349.333 82.601,349.428 82.667,349.544 82.667 C 349.660 82.667,349.895 82.854,350.067 83.083 C 350.239 83.313,350.515 83.500,350.680 83.500 C 350.845 83.500,351.027 83.575,351.083 83.667 C 351.140 83.758,351.323 83.833,351.489 83.833 C 351.656 83.833,351.886 83.946,352.000 84.083 C 352.167 84.284,352.675 84.333,354.583 84.333 C 356.492 84.333,357.000 84.284,357.167 84.083 C 357.281 83.946,357.511 83.833,357.677 83.833 C 357.844 83.833,358.027 83.758,358.083 83.667 C 358.140 83.575,358.321 83.500,358.486 83.500 C 358.652 83.500,358.927 83.313,359.100 83.083 C 359.272 82.854,359.507 82.667,359.623 82.667 C 359.739 82.667,359.833 82.587,359.833 82.489 C 359.833 82.391,360.085 82.072,360.393 81.780 C 360.701 81.489,361.007 81.081,361.071 80.875 C 361.136 80.669,361.259 80.500,361.345 80.500 C 361.430 80.500,361.500 80.313,361.500 80.083 C 361.500 79.854,361.567 79.667,361.649 79.667 C 361.730 79.667,361.844 79.479,361.902 79.250 C 362.003 78.845,362.050 78.833,363.545 78.814 C 365.195 78.793,365.285 78.786,365.667 78.627 C 365.804 78.570,367.970 78.489,370.479 78.447 C 373.490 78.396,375.079 78.309,375.152 78.190 C 375.227 78.069,376.752 78.005,379.829 77.995 C 382.599 77.985,384.519 77.912,384.713 77.808 C 384.897 77.710,386.957 77.602,389.558 77.554 C 392.047 77.508,394.164 77.404,394.262 77.322 C 394.361 77.241,395.554 77.167,396.913 77.157 C 398.670 77.145,399.446 77.078,399.596 76.928 C 399.796 76.728,399.786 74.288,399.583 73.708 C 399.492 73.448,395.409 73.409,395.250 73.667 C 395.185 73.771,393.411 73.833,390.479 73.833 C 387.912 73.833,385.685 73.899,385.531 73.980 C 385.376 74.061,383.170 74.163,380.629 74.207 C 377.587 74.259,375.931 74.350,375.784 74.472 C 375.631 74.599,374.032 74.662,370.784 74.672 C 367.985 74.680,365.968 74.751,365.911 74.843 C 365.694 75.194,361.977 75.031,361.882 74.667 C 361.834 74.483,361.728 74.333,361.647 74.333 C 361.566 74.333,361.500 74.146,361.500 73.917 C 361.500 73.688,361.439 73.500,361.365 73.500 C 361.291 73.500,361.098 73.200,360.937 72.833 C 360.775 72.467,360.535 72.167,360.405 72.167 C 360.274 72.167,360.167 72.086,360.167 71.988 C 360.167 71.757,359.743 71.333,359.512 71.333 C 359.414 71.333,359.333 71.248,359.333 71.143 C 359.333 70.911,358.831 70.513,358.530 70.505 C 358.409 70.502,358.197 70.388,358.060 70.250 C 357.922 70.113,357.665 70.000,357.488 70.000 C 357.311 70.000,357.167 69.925,357.167 69.833 C 357.167 69.608,352.056 69.608,351.917 69.833 C 351.860 69.925,351.666 70.000,351.485 70.000 C 351.304 70.000,351.113 70.112,351.060 70.250 C 351.008 70.387,350.840 70.500,350.688 70.500 C 350.317 70.500,348.377 72.362,348.164 72.924 C 348.017 73.309,347.926 73.356,347.497 73.268 C 347.224 73.212,346.777 73.121,346.505 73.065 C 346.233 73.009,345.924 72.859,345.818 72.732 C 345.712 72.604,345.448 72.500,345.230 72.500 C 345.012 72.500,344.833 72.425,344.833 72.333 C 344.833 72.242,344.616 72.167,344.351 72.167 C 344.076 72.167,343.828 72.059,343.773 71.917 C 343.720 71.779,343.487 71.667,343.255 71.667 C 343.023 71.667,342.833 71.592,342.833 71.500 C 342.833 71.408,342.571 71.333,342.250 71.333 C 341.864 71.333,341.667 71.255,341.667 71.102 C 341.667 70.975,341.460 70.830,341.208 70.779 C 340.067 70.550,339.741 70.436,339.617 70.226 C 339.543 70.102,339.300 70.000,339.075 70.000 C 338.850 70.000,338.667 69.925,338.667 69.833 C 338.667 69.742,338.404 69.667,338.083 69.667 C 337.676 69.667,337.500 69.591,337.500 69.417 C 337.500 69.261,337.343 69.167,337.083 69.167 C 336.854 69.167,336.667 69.092,336.667 69.000 C 336.667 68.908,336.367 68.833,336.000 68.833 C 335.556 68.833,335.347 68.764,335.375 68.625 C 335.398 68.508,335.216 68.394,334.958 68.364 C 334.706 68.335,334.500 68.241,334.500 68.156 C 334.500 68.070,334.237 68.000,333.917 68.000 C 333.509 68.000,333.333 67.925,333.333 67.750 C 333.333 67.611,333.185 67.500,332.998 67.500 C 332.661 67.500,332.558 67.461,331.528 66.945 C 331.223 66.792,330.848 66.664,330.695 66.661 C 330.542 66.658,330.271 66.546,330.093 66.411 C 329.915 66.277,329.634 66.167,329.468 66.167 C 329.302 66.167,329.167 66.092,329.167 66.000 C 329.167 65.908,329.023 65.833,328.847 65.833 C 328.671 65.833,328.277 65.708,327.972 65.555 C 326.945 65.041,326.839 65.000,326.523 65.000 C 326.349 65.000,326.114 64.887,326.000 64.750 C 325.886 64.612,325.656 64.500,325.489 64.500 C 325.323 64.500,325.140 64.425,325.083 64.333 C 325.027 64.242,324.766 64.167,324.504 64.167 C 324.242 64.167,324.000 64.084,323.966 63.982 C 323.900 63.783,322.759 63.340,322.300 63.336 C 322.144 63.334,321.957 63.232,321.883 63.108 C 321.810 62.984,321.563 62.837,321.333 62.782 C 321.104 62.727,320.692 62.630,320.417 62.566 C 320.142 62.503,319.879 62.399,319.833 62.337 C 319.667 62.111,318.606 61.667,318.233 61.667 C 318.022 61.667,317.790 61.565,317.717 61.441 C 317.643 61.317,317.377 61.167,317.125 61.108 C 316.873 61.048,316.460 60.952,316.208 60.892 C 315.956 60.833,315.690 60.683,315.617 60.559 C 315.543 60.435,315.342 60.333,315.168 60.333 C 314.995 60.333,314.807 60.258,314.750 60.167 C 314.693 60.075,314.389 60.000,314.073 60.000 C 313.675 60.000,313.500 59.924,313.500 59.750 C 313.500 59.594,313.343 59.500,313.083 59.500 C 312.854 59.500,312.667 59.425,312.667 59.333 C 312.667 59.242,312.412 59.167,312.101 59.167 C 311.752 59.167,311.499 59.071,311.440 58.917 C 311.387 58.779,311.154 58.667,310.922 58.667 C 310.690 58.667,310.500 58.592,310.500 58.500 C 310.500 58.408,310.246 58.333,309.934 58.333 C 309.586 58.333,309.332 58.238,309.273 58.083 C 309.220 57.946,309.025 57.833,308.839 57.833 C 308.652 57.833,308.500 57.758,308.500 57.667 C 308.500 57.575,308.327 57.500,308.115 57.500 C 307.904 57.500,307.585 57.390,307.407 57.255 C 307.229 57.121,306.915 57.008,306.708 57.005 C 306.502 57.002,306.333 56.931,306.333 56.847 C 306.333 56.762,306.092 56.640,305.797 56.575 C 305.502 56.511,305.146 56.400,305.005 56.331 C 304.865 56.261,304.450 56.072,304.083 55.911 C 303.717 55.749,303.286 55.554,303.127 55.475 C 302.968 55.397,302.687 55.333,302.502 55.333 C 302.318 55.333,302.167 55.263,302.167 55.178 C 302.167 55.092,301.998 54.973,301.792 54.913 C 300.496 54.535,300.500 54.541,300.500 53.043 C 300.500 52.236,300.431 51.667,300.333 51.667 C 300.242 51.667,300.167 51.522,300.167 51.345 C 300.167 51.168,300.054 50.911,299.917 50.774 C 299.779 50.636,299.667 50.416,299.667 50.285 C 299.667 50.154,299.479 49.906,299.250 49.734 C 299.021 49.562,298.833 49.326,298.833 49.210 C 298.833 49.095,298.753 49.000,298.655 49.000 C 298.424 49.000,298.000 48.576,298.000 48.345 C 298.000 48.247,297.887 48.167,297.750 48.167 C 297.612 48.167,297.500 48.100,297.500 48.018 C 297.500 47.936,297.313 47.822,297.083 47.765 C 296.854 47.707,296.667 47.587,296.667 47.497 C 296.667 47.407,296.485 47.333,296.264 47.333 C 296.042 47.333,295.830 47.240,295.792 47.125 C 295.740 46.970,295.063 46.917,293.167 46.917 C 291.270 46.917,290.593 46.970,290.542 47.125 C 290.503 47.240,290.291 47.333,290.069 47.333 C 289.848 47.333,289.667 47.407,289.667 47.497 C 289.667 47.587,289.479 47.707,289.250 47.765 C 289.021 47.822,288.833 47.936,288.833 48.018 C 288.833 48.100,288.721 48.167,288.583 48.167 C 288.446 48.167,288.333 48.247,288.333 48.345 C 288.333 48.576,287.909 49.000,287.679 49.000 C 287.580 49.000,287.500 49.080,287.500 49.179 C 287.500 49.497,287.035 49.833,286.595 49.833 C 286.360 49.833,286.167 49.758,286.167 49.667 C 286.167 49.571,285.645 49.500,284.934 49.500 C 283.993 49.500,283.680 49.441,283.606 49.250 C 283.534 49.061,283.228 49.000,282.348 49.000 C 281.709 49.000,281.147 48.936,281.099 48.858 C 281.050 48.780,280.487 48.672,279.847 48.618 C 279.207 48.565,278.535 48.441,278.353 48.344 C 278.171 48.246,277.544 48.167,276.961 48.167 C 276.377 48.167,275.822 48.088,275.726 47.992 C 275.630 47.897,275.013 47.773,274.354 47.718 C 273.695 47.663,273.116 47.553,273.068 47.475 C 273.020 47.397,272.506 47.333,271.926 47.333 C 271.346 47.333,270.680 47.234,270.445 47.112 C 270.211 46.991,269.584 46.874,269.051 46.853 C 268.519 46.831,268.012 46.743,267.925 46.657 C 267.838 46.571,267.228 46.500,266.570 46.500 C 265.710 46.500,265.316 46.430,265.167 46.250 C 265.022 46.076,264.639 46.000,263.906 46.000 C 263.327 46.000,262.807 45.925,262.750 45.833 C 262.693 45.742,262.121 45.667,261.478 45.667 C 260.724 45.667,260.230 45.588,260.086 45.443 C 259.952 45.309,259.409 45.206,258.723 45.184 C 258.096 45.164,257.558 45.077,257.528 44.991 C 257.497 44.904,256.925 44.833,256.257 44.833 C 255.379 44.833,254.983 44.764,254.833 44.583 C 254.689 44.409,254.306 44.333,253.573 44.333 C 252.994 44.333,252.473 44.258,252.417 44.167 C 252.360 44.075,251.807 44.000,251.189 44.000 C 250.458 44.000,249.950 43.914,249.740 43.755 C 249.533 43.598,249.017 43.509,248.302 43.505 C 247.688 43.502,247.140 43.425,247.083 43.333 C 247.027 43.242,246.430 43.167,245.758 43.167 C 244.825 43.167,244.513 43.107,244.440 42.917 C 244.367 42.727,244.060 42.667,243.172 42.667 C 242.502 42.667,242.000 42.595,242.000 42.500 C 242.000 42.403,241.441 42.333,240.657 42.333 C 239.909 42.333,239.355 42.267,239.406 42.184 C 239.552 41.948,239.059 41.833,237.903 41.833 C 237.315 41.833,236.833 41.770,236.833 41.692 C 236.833 41.614,236.291 41.535,235.627 41.515 C 234.854 41.493,234.326 41.394,234.156 41.240 C 234.010 41.108,233.653 41.000,233.362 41.000 L 232.833 41.000 232.833 40.078 C 232.833 39.412,232.764 39.130,232.583 39.060 C 232.446 39.008,232.333 38.785,232.333 38.566 C 232.333 38.346,232.258 38.167,232.167 38.167 C 232.075 38.167,232.000 38.014,232.000 37.828 C 232.000 37.642,231.887 37.446,231.750 37.394 C 231.612 37.341,231.500 37.224,231.500 37.134 C 231.500 36.852,229.637 35.167,229.325 35.167 C 229.161 35.167,229.000 35.084,228.966 34.982 C 228.783 34.432,222.833 33.964,222.833 34.500 C 222.833 34.592,222.643 34.667,222.411 34.667 C 222.179 34.667,221.946 34.779,221.894 34.917 C 221.841 35.054,221.674 35.169,221.524 35.172 C 221.178 35.179,220.667 35.560,220.667 35.810 C 220.667 35.915,220.586 36.000,220.488 36.000 C 220.257 36.000,219.833 36.424,219.833 36.655 C 219.833 36.753,219.721 36.833,219.583 36.833 C 219.446 36.833,219.333 36.946,219.333 37.083 C 219.333 37.221,219.258 37.333,219.167 37.333 C 219.075 37.333,219.000 37.486,219.000 37.672 C 219.000 37.858,218.887 38.054,218.750 38.106 C 218.612 38.159,218.500 38.382,218.500 38.601 C 218.500 38.821,218.420 39.000,218.323 39.000 C 218.205 39.000,218.153 39.897,218.167 41.708 C 218.193 45.019,218.204 44.833,217.993 44.833 C 217.897 44.833,217.617 45.021,217.369 45.250 C 217.122 45.479,216.853 45.667,216.771 45.667 C 216.689 45.667,216.448 45.854,216.235 46.083 C 216.023 46.313,215.752 46.502,215.633 46.504 C 215.514 46.507,215.091 46.807,214.694 47.171 C 214.297 47.535,213.893 47.833,213.797 47.833 C 213.700 47.833,213.455 48.014,213.250 48.234 C 213.046 48.454,212.644 48.756,212.356 48.905 C 212.069 49.054,211.833 49.248,211.833 49.338 C 211.833 49.427,211.753 49.500,211.655 49.500 C 211.557 49.500,211.372 49.594,211.244 49.708 C 210.729 50.170,210.509 50.333,210.401 50.333 C 210.339 50.333,210.114 50.521,209.902 50.750 C 209.690 50.979,209.419 51.169,209.300 51.172 C 209.001 51.179,208.500 51.579,208.500 51.810 C 208.500 51.915,208.387 52.000,208.250 52.000 C 208.112 52.000,208.000 52.075,208.000 52.167 C 208.000 52.258,207.854 52.333,207.675 52.333 C 207.496 52.333,207.290 52.428,207.217 52.543 C 207.066 52.779,205.910 53.667,205.753 53.667 C 205.697 53.667,205.477 53.854,205.265 54.083 C 205.052 54.312,204.804 54.500,204.714 54.500 C 204.623 54.500,204.341 54.692,204.088 54.927 C 203.834 55.162,203.322 55.546,202.950 55.781 C 202.578 56.016,202.082 56.387,201.847 56.604 C 201.612 56.822,201.336 57.000,201.233 57.000 C 201.131 57.000,200.906 57.188,200.734 57.417 C 200.562 57.646,200.332 57.833,200.222 57.833 C 200.113 57.833,199.925 57.932,199.804 58.053 C 199.682 58.173,199.378 58.407,199.126 58.571 C 198.875 58.735,198.711 58.937,198.761 59.018 C 198.812 59.100,198.661 59.167,198.427 59.167 C 198.192 59.167,198.000 59.242,198.000 59.333 C 198.000 59.425,197.887 59.500,197.750 59.500 C 197.612 59.500,197.500 59.612,197.500 59.750 C 197.500 59.887,197.420 60.000,197.321 60.000 C 197.223 60.000,197.038 60.094,196.911 60.208 C 196.359 60.703,196.171 60.833,196.007 60.833 C 195.911 60.833,195.833 60.908,195.833 61.000 C 195.833 61.092,195.759 61.167,195.669 61.167 C 195.385 61.167,194.180 62.073,194.173 62.292 C 194.170 62.406,194.032 62.500,193.868 62.500 C 193.703 62.500,193.247 62.800,192.854 63.167 C 192.460 63.533,192.033 63.833,191.903 63.833 C 191.773 63.833,191.667 63.908,191.667 64.000 C 191.667 64.092,191.588 64.167,191.493 64.167 C 191.397 64.167,191.117 64.354,190.869 64.583 C 190.622 64.812,190.353 65.000,190.271 65.000 C 190.189 65.000,189.958 65.177,189.758 65.393 C 189.557 65.609,189.324 65.815,189.238 65.851 C 188.756 66.055,187.837 66.780,187.835 66.958 C 187.834 67.073,187.680 67.167,187.492 67.167 C 187.304 67.167,186.880 67.429,186.550 67.750 C 186.219 68.071,185.846 68.333,185.719 68.333 C 185.593 68.333,185.450 68.436,185.402 68.562 C 185.353 68.688,185.056 68.930,184.740 69.100 C 184.425 69.270,184.167 69.467,184.167 69.538 C 184.167 69.609,184.054 69.667,183.917 69.667 C 183.779 69.667,183.667 69.742,183.667 69.833 C 183.667 69.925,183.554 70.000,183.417 70.000 C 183.279 70.000,183.167 70.112,183.167 70.250 C 183.167 70.387,183.035 70.502,182.875 70.505 C 182.515 70.512,182.000 70.887,182.000 71.143 C 182.000 71.248,181.887 71.333,181.750 71.333 C 181.612 71.333,181.500 71.408,181.500 71.500 C 181.500 71.592,181.393 71.667,181.262 71.667 C 181.131 71.667,180.925 71.760,180.804 71.875 C 180.419 72.239,179.360 73.000,179.239 73.000 C 179.174 73.000,178.948 73.188,178.735 73.417 C 178.523 73.646,178.279 73.833,178.192 73.833 C 178.106 73.833,177.992 73.946,177.940 74.083 C 177.887 74.221,177.729 74.333,177.589 74.333 C 177.448 74.333,177.333 74.408,177.333 74.500 C 177.333 74.592,177.221 74.667,177.083 74.667 C 176.946 74.667,176.833 74.725,176.833 74.795 C 176.833 74.866,176.571 75.066,176.250 75.238 C 175.929 75.411,175.667 75.635,175.667 75.736 C 175.667 75.836,175.423 76.023,175.125 76.150 C 174.827 76.277,174.433 76.547,174.250 76.750 C 174.067 76.953,173.748 77.172,173.542 77.237 C 173.335 77.303,173.167 77.426,173.167 77.511 C 173.167 77.597,173.054 77.667,172.917 77.667 C 172.779 77.667,172.667 77.742,172.667 77.833 C 172.667 77.925,172.586 78.000,172.488 78.000 C 172.257 78.000,171.833 77.576,171.833 77.345 C 171.833 77.247,171.721 77.167,171.583 77.167 C 171.446 77.167,171.333 77.092,171.333 77.000 C 171.333 76.908,171.221 76.833,171.083 76.833 C 170.946 76.833,170.852 76.741,170.875 76.629 C 170.898 76.517,170.748 76.399,170.542 76.367 C 170.335 76.336,170.167 76.240,170.167 76.155 C 170.167 76.070,169.988 76.000,169.770 76.000 C 169.552 76.000,169.278 75.885,169.161 75.743 C 168.862 75.383,164.027 75.403,163.888 75.766 C 163.838 75.895,163.618 76.000,163.399 76.000 C 163.179 76.000,163.000 76.075,163.000 76.167 C 163.000 76.258,162.848 76.333,162.661 76.333 C 162.475 76.333,162.282 76.440,162.232 76.570 C 162.017 77.131,160.500 76.349,160.500 75.678 C 160.500 75.580,160.400 75.500,160.278 75.500 C 160.156 75.500,159.956 75.313,159.833 75.083 C 159.711 74.854,159.511 74.667,159.389 74.667 C 159.266 74.667,159.167 74.586,159.167 74.488 C 159.167 74.257,158.743 73.833,158.512 73.833 C 158.414 73.833,158.333 73.766,158.333 73.683 C 158.333 73.524,156.435 71.510,152.625 67.628 C 151.365 66.343,150.333 65.239,150.333 65.174 C 150.333 65.109,150.146 64.956,149.917 64.833 C 149.688 64.711,149.500 64.554,149.500 64.485 C 149.500 64.347,148.525 63.333,148.392 63.333 C 148.239 63.333,147.833 62.858,147.833 62.679 C 147.833 62.580,147.721 62.500,147.583 62.500 C 147.446 62.500,147.333 62.420,147.333 62.321 C 147.333 62.091,146.909 61.667,146.679 61.667 C 146.580 61.667,146.500 61.567,146.500 61.445 C 146.500 61.323,146.312 61.123,146.083 61.000 C 145.854 60.877,145.667 60.690,145.667 60.583 C 145.667 60.477,145.479 60.289,145.250 60.167 C 145.021 60.044,144.833 59.876,144.833 59.793 C 144.833 59.585,144.396 59.167,144.179 59.167 C 144.080 59.167,144.000 59.067,144.000 58.945 C 144.000 58.823,143.812 58.623,143.583 58.500 C 143.354 58.377,143.167 58.223,143.167 58.157 C 143.167 57.959,141.694 56.528,141.593 56.629 C 141.542 56.680,141.500 56.632,141.500 56.522 C 141.500 56.289,138.057 52.833,137.824 52.833 C 137.737 52.833,137.667 52.763,137.667 52.676 C 137.667 52.507,135.691 50.387,133.203 47.888 C 132.352 47.033,131.692 46.333,131.737 46.333 C 131.782 46.333,129.459 43.962,126.576 41.064 C 123.693 38.166,121.333 35.729,121.333 35.647 C 121.333 35.566,121.253 35.500,121.155 35.500 C 120.848 35.500,120.469 35.038,120.710 34.958 C 121.005 34.860,121.003 30.103,120.708 29.808 C 120.594 29.694,120.500 29.427,120.500 29.217 C 120.500 28.987,120.400 28.833,120.250 28.833 C 120.108 28.833,120.000 28.684,120.000 28.489 C 120.000 28.131,118.333 26.333,118.001 26.333 C 117.898 26.333,117.859 26.261,117.914 26.172 C 117.969 26.083,117.823 25.962,117.590 25.903 C 117.357 25.845,117.167 25.730,117.167 25.649 C 117.167 25.567,116.950 25.500,116.684 25.500 C 116.410 25.500,116.161 25.393,116.106 25.250 C 115.965 24.881,111.306 24.881,111.000 25.250 C 110.886 25.387,110.620 25.500,110.410 25.500 C 110.200 25.500,110.001 25.579,109.969 25.676 C 109.937 25.772,109.795 25.868,109.654 25.889 C 109.513 25.910,109.219 26.093,109.001 26.297 C 108.783 26.500,108.543 26.667,108.469 26.667 C 108.394 26.667,108.333 26.779,108.333 26.917 C 108.333 27.054,108.240 27.168,108.125 27.169 C 108.010 27.170,107.747 27.432,107.540 27.752 C 107.178 28.312,106.833 28.514,106.833 28.167 C 106.833 28.075,106.415 28.000,105.905 28.000 C 105.359 28.000,104.886 27.910,104.757 27.781 C 104.636 27.660,104.135 27.543,103.644 27.521 C 103.152 27.500,102.725 27.411,102.694 27.324 C 102.664 27.238,102.201 27.167,101.667 27.167 C 101.071 27.167,100.669 27.091,100.629 26.971 C 100.593 26.862,100.111 26.743,99.529 26.701 C 98.960 26.660,98.454 26.560,98.404 26.480 C 98.354 26.399,97.924 26.331,97.448 26.328 C 96.954 26.325,96.445 26.218,96.260 26.078 C 96.081 25.943,95.583 25.833,95.145 25.833 C 94.709 25.833,94.307 25.758,94.250 25.667 C 94.193 25.575,93.734 25.500,93.228 25.500 C 92.634 25.500,92.221 25.412,92.060 25.250 C 91.899 25.090,91.488 25.000,90.915 25.000 C 90.422 25.000,89.973 24.925,89.917 24.833 C 89.860 24.742,89.415 24.667,88.927 24.667 C 88.343 24.667,87.970 24.582,87.833 24.417 C 87.696 24.252,87.324 24.167,86.739 24.167 C 86.252 24.167,85.807 24.092,85.750 24.000 C 85.693 23.908,85.159 23.833,84.564 23.833 C 83.968 23.833,83.522 23.766,83.573 23.684 C 83.709 23.464,83.245 23.333,82.330 23.333 C 81.884 23.333,81.473 23.258,81.417 23.167 C 81.360 23.075,80.876 23.000,80.341 23.000 C 79.631 23.000,79.343 22.933,79.273 22.750 C 79.202 22.566,78.912 22.500,78.172 22.500 C 77.619 22.500,77.167 22.436,77.167 22.357 C 77.167 22.278,76.698 22.165,76.125 22.105 C 75.552 22.046,75.058 21.922,75.028 21.832 C 74.997 21.741,74.535 21.667,74.000 21.667 C 73.455 21.667,73.002 21.588,72.968 21.488 C 72.935 21.389,72.439 21.266,71.866 21.214 C 71.293 21.162,70.784 21.055,70.735 20.976 C 70.687 20.898,70.274 20.833,69.818 20.833 C 69.361 20.833,68.822 20.732,68.619 20.609 C 68.416 20.486,67.912 20.368,67.500 20.346 C 67.087 20.324,66.679 20.238,66.592 20.153 C 66.505 20.069,66.030 20.000,65.538 20.000 C 64.965 20.000,64.553 19.910,64.393 19.750 C 64.232 19.589,63.820 19.500,63.238 19.500 C 62.740 19.500,62.333 19.425,62.333 19.333 C 62.333 19.242,61.915 19.167,61.405 19.167 C 60.859 19.167,60.386 19.076,60.257 18.947 C 60.136 18.827,59.635 18.710,59.144 18.688 C 58.652 18.666,58.225 18.577,58.194 18.491 C 58.164 18.404,57.653 18.333,57.060 18.333 C 56.466 18.333,56.021 18.267,56.072 18.186 C 56.191 17.992,55.593 17.838,54.708 17.836 C 54.319 17.834,54.000 17.758,54.000 17.667 C 54.000 17.573,53.534 17.500,52.934 17.500 C 52.141 17.500,51.844 17.436,51.773 17.250 C 51.702 17.066,51.412 17.000,50.672 17.000 C 50.113 17.000,49.667 16.926,49.667 16.833 C 49.667 16.741,49.228 16.667,48.684 16.667 C 47.965 16.667,47.677 16.600,47.606 16.417 C 47.536 16.233,47.246 16.167,46.515 16.167 C 45.968 16.167,45.473 16.092,45.417 16.000 C 45.360 15.908,44.914 15.833,44.425 15.833 C 43.788 15.833,43.508 15.762,43.440 15.583 C 43.369 15.400,43.079 15.333,42.348 15.333 C 41.801 15.333,41.307 15.258,41.250 15.167 C 41.193 15.075,40.748 15.000,40.261 15.000 C 39.676 15.000,39.304 14.915,39.167 14.750 C 39.029 14.584,38.656 14.500,38.063 14.500 C 37.570 14.500,37.167 14.425,37.167 14.333 C 37.167 14.240,36.700 14.167,36.101 14.167 C 35.308 14.167,35.011 14.103,34.940 13.917 C 34.884 13.771,34.634 13.667,34.339 13.667 L 33.833 13.667 33.833 11.764 C 33.833 9.936,33.595 8.903,33.125 8.694 C 33.056 8.664,33.000 8.498,33.000 8.325 C 33.000 7.993,32.130 7.000,31.839 7.000 C 31.744 7.000,31.667 6.920,31.667 6.821 C 31.667 6.591,31.243 6.167,31.012 6.167 C 30.914 6.167,30.833 6.093,30.833 6.003 C 30.833 5.913,30.646 5.793,30.417 5.735 C 30.188 5.678,30.000 5.564,30.000 5.482 C 30.000 5.400,29.810 5.333,29.578 5.333 C 29.346 5.333,29.113 5.221,29.060 5.083 C 28.918 4.712,24.036 4.712,23.894 5.083 C 23.841 5.221,23.618 5.333,23.399 5.333 C 23.179 5.333,23.000 5.400,23.000 5.482 C 23.000 5.564,22.812 5.678,22.583 5.735 C 22.354 5.793,22.167 5.913,22.167 6.003 C 22.167 6.093,22.086 6.167,21.988 6.167 C 21.757 6.167,21.333 6.591,21.333 6.821 C 21.333 6.920,21.248 7.000,21.144 7.000 C 21.040 7.000,20.775 7.206,20.555 7.458 C 20.189 7.876,20.139 7.891,19.985 7.625 C 19.893 7.465,19.637 7.333,19.418 7.333 C 19.199 7.333,18.973 7.258,18.917 7.167 C 18.860 7.075,18.628 7.000,18.402 7.000 C 18.175 7.000,17.946 6.887,17.894 6.750 C 17.841 6.612,17.618 6.500,17.399 6.500 C 17.179 6.500,17.000 6.425,17.000 6.333 C 17.000 6.242,16.822 6.167,16.604 6.167 C 16.386 6.167,16.114 6.054,16.000 5.917 C 15.886 5.779,15.577 5.667,15.313 5.667 C 15.049 5.667,14.833 5.592,14.833 5.500 C 14.833 5.408,14.654 5.333,14.434 5.333 C 14.215 5.333,13.992 5.221,13.940 5.083 C 13.884 4.939,13.635 4.833,13.348 4.833 C 13.076 4.833,12.807 4.758,12.750 4.667 C 12.693 4.575,12.528 4.500,12.384 4.500 C 12.239 4.500,12.037 4.389,11.935 4.254 C 11.833 4.118,11.506 3.989,11.208 3.968 C 10.910 3.947,10.667 3.870,10.667 3.798 C 10.667 3.726,10.487 3.667,10.268 3.667 C 10.048 3.667,9.826 3.554,9.773 3.417 C 9.720 3.279,9.496 3.167,9.274 3.167 C 9.053 3.167,8.662 3.058,8.406 2.925 C 8.150 2.792,7.887 2.717,7.821 2.758 C 7.755 2.798,7.659 2.719,7.606 2.582 C 7.553 2.445,7.336 2.333,7.122 2.333 C 6.908 2.333,6.659 2.259,6.568 2.168 C 6.477 2.077,6.199 1.985,5.951 1.965 C 5.703 1.944,5.500 1.875,5.500 1.811 C 5.500 1.619,3.191 0.965,2.979 1.097 C 2.860 1.170,2.826 1.147,2.893 1.038 C 3.061 0.766,1.740 0.403,1.407 0.630 M28.375 8.475 C 28.627 8.620,28.833 8.797,28.833 8.869 C 28.833 8.941,28.933 9.000,29.055 9.000 C 29.177 9.000,29.377 9.188,29.500 9.417 C 29.623 9.646,29.823 9.833,29.945 9.833 C 30.067 9.833,30.167 9.968,30.167 10.133 C 30.167 10.298,30.236 10.505,30.320 10.592 C 30.617 10.899,30.630 14.100,30.333 13.917 C 30.242 13.860,30.167 13.928,30.167 14.067 C 30.167 14.359,28.787 15.833,28.515 15.833 C 28.415 15.833,28.333 15.901,28.333 15.983 C 28.333 16.112,27.283 16.316,26.500 16.340 C 25.219 16.377,22.833 14.970,22.833 14.176 C 22.833 14.095,22.752 14.001,22.653 13.968 C 22.408 13.886,22.404 10.863,22.648 10.618 C 22.750 10.517,22.833 10.298,22.833 10.133 C 22.833 9.968,22.933 9.833,23.055 9.833 C 23.177 9.833,23.377 9.646,23.500 9.417 C 23.623 9.188,23.788 9.000,23.869 9.000 C 24.005 9.000,24.198 8.863,24.732 8.387 C 25.200 7.970,27.597 8.027,28.375 8.475 M114.533 28.333 C 114.882 28.333,115.167 28.403,115.167 28.489 C 115.167 28.574,115.302 28.687,115.467 28.740 C 117.594 29.415,118.374 33.317,116.708 34.950 C 116.502 35.152,116.333 35.400,116.333 35.502 C 116.333 35.603,116.258 35.640,116.167 35.583 C 116.075 35.527,116.000 35.556,116.000 35.649 C 116.000 36.374,112.591 36.796,111.925 36.153 C 111.838 36.069,111.672 36.000,111.556 36.000 C 111.338 36.000,110.000 34.692,110.000 34.478 C 110.000 34.412,109.880 34.237,109.733 34.090 C 109.531 33.888,109.467 33.484,109.467 32.417 C 109.467 31.349,109.531 30.945,109.733 30.743 C 109.880 30.596,110.000 30.369,110.000 30.238 C 110.000 30.107,110.075 30.000,110.167 30.000 C 110.258 30.000,110.333 29.887,110.333 29.750 C 110.333 29.612,110.400 29.519,110.482 29.542 C 110.564 29.565,110.770 29.425,110.940 29.232 C 111.111 29.039,111.419 28.828,111.625 28.763 C 111.831 28.697,112.000 28.574,112.000 28.489 C 112.000 28.403,112.296 28.333,112.657 28.333 C 113.018 28.333,113.364 28.252,113.426 28.152 C 113.506 28.022,113.588 28.022,113.719 28.152 C 113.818 28.252,114.185 28.333,114.533 28.333 M225.594 37.316 C 225.476 37.506,225.892 37.667,226.504 37.667 C 226.766 37.667,227.027 37.742,227.083 37.833 C 227.140 37.925,227.332 38.000,227.510 38.000 C 227.688 38.000,227.833 38.100,227.833 38.222 C 227.833 38.344,228.021 38.544,228.250 38.667 C 228.479 38.789,228.667 38.955,228.667 39.035 C 228.667 39.173,228.810 39.373,229.292 39.911 C 229.406 40.038,229.500 40.331,229.500 40.561 C 229.500 40.790,229.573 41.171,229.663 41.406 C 229.768 41.684,229.768 41.833,229.663 41.833 C 229.573 41.833,229.500 42.124,229.500 42.480 C 229.500 42.851,229.394 43.214,229.250 43.333 C 229.112 43.447,229.000 43.615,229.000 43.707 C 229.000 43.923,227.756 45.167,227.540 45.167 C 227.449 45.167,227.281 45.279,227.167 45.417 C 227.053 45.554,226.701 45.667,226.385 45.667 C 226.070 45.667,225.666 45.744,225.489 45.839 C 225.267 45.958,225.167 45.958,225.167 45.839 C 225.167 45.744,224.867 45.667,224.500 45.667 C 224.133 45.667,223.833 45.597,223.833 45.511 C 223.833 45.426,223.685 45.309,223.503 45.251 C 223.065 45.112,221.980 44.039,221.669 43.437 C 220.609 41.386,222.394 37.685,224.456 37.661 C 224.709 37.658,225.062 37.546,225.240 37.411 C 225.610 37.132,225.727 37.100,225.594 37.316 M294.085 50.167 C 294.392 50.167,294.755 50.279,294.893 50.417 C 295.030 50.554,295.208 50.667,295.287 50.667 C 295.481 50.667,296.692 51.981,296.976 52.500 C 297.292 53.079,297.273 55.439,296.946 56.060 C 296.670 56.584,295.436 57.833,295.194 57.833 C 295.110 57.833,294.947 57.946,294.833 58.083 C 294.714 58.227,294.351 58.333,293.980 58.333 C 293.588 58.333,293.333 58.412,293.333 58.533 C 293.333 58.689,293.289 58.689,293.133 58.533 C 293.023 58.423,292.653 58.333,292.310 58.333 C 291.967 58.333,291.641 58.260,291.586 58.171 C 291.531 58.082,291.227 57.886,290.910 57.735 C 290.593 57.585,290.333 57.375,290.333 57.268 C 290.333 57.161,290.180 56.963,289.992 56.828 C 289.565 56.522,289.167 55.742,289.167 55.213 C 289.167 54.992,289.091 54.671,289.000 54.499 C 288.888 54.290,288.888 54.153,289.000 54.084 C 289.091 54.027,289.167 53.685,289.167 53.323 C 289.167 52.962,289.242 52.667,289.333 52.667 C 289.425 52.667,289.500 52.534,289.500 52.371 C 289.500 52.077,290.861 50.667,291.145 50.667 C 291.226 50.667,291.383 50.558,291.493 50.426 C 291.682 50.197,292.829 50.000,293.305 50.114 C 293.427 50.143,293.778 50.167,294.085 50.167 M356.458 73.270 C 356.756 73.405,357.000 73.574,357.000 73.646 C 357.000 73.718,357.188 73.877,357.417 74.000 C 357.646 74.123,357.833 74.323,357.833 74.445 C 357.833 74.567,357.900 74.667,357.982 74.667 C 358.281 74.667,358.699 76.088,358.668 77.000 C 358.621 78.378,358.605 78.500,358.476 78.500 C 358.410 78.500,358.303 78.666,358.239 78.869 C 358.090 79.337,356.998 80.425,356.526 80.575 C 356.328 80.638,356.167 80.759,356.167 80.845 C 356.167 80.930,355.899 81.000,355.572 81.000 C 355.246 81.000,354.838 81.075,354.666 81.167 C 354.457 81.279,354.319 81.279,354.250 81.167 C 354.193 81.075,353.894 81.000,353.585 81.000 C 353.277 81.000,352.911 80.887,352.774 80.750 C 352.636 80.612,352.460 80.500,352.382 80.500 C 352.304 80.500,352.132 80.350,352.000 80.167 C 351.868 79.983,351.664 79.833,351.547 79.833 C 351.429 79.833,351.333 79.721,351.333 79.583 C 351.333 79.446,351.258 79.333,351.167 79.333 C 351.075 79.333,351.000 79.225,351.000 79.092 C 351.000 78.959,350.883 78.785,350.741 78.705 C 350.401 78.515,350.368 75.621,350.702 75.251 C 351.157 74.744,351.333 74.510,351.333 74.412 C 351.333 74.243,351.797 73.833,351.988 73.833 C 352.086 73.833,352.167 73.721,352.167 73.583 C 352.167 73.446,352.302 73.333,352.467 73.333 C 352.632 73.333,352.838 73.264,352.925 73.179 C 353.320 72.792,355.532 72.850,356.458 73.270 M167.514 78.833 C 167.900 78.833,168.167 78.913,168.167 79.028 C 168.167 79.135,168.211 79.178,168.264 79.125 C 168.427 78.962,170.167 80.504,170.167 80.811 C 170.167 80.915,170.242 81.000,170.333 81.000 C 170.425 81.000,170.501 81.244,170.503 81.542 C 170.504 81.840,170.566 82.179,170.640 82.296 C 170.776 82.511,170.517 84.134,170.249 84.750 C 169.872 85.613,168.270 86.833,167.512 86.833 C 167.241 86.833,166.975 86.905,166.921 86.994 C 166.857 87.096,166.670 87.096,166.400 86.994 C 166.168 86.905,165.763 86.833,165.499 86.833 C 165.235 86.833,164.973 86.758,164.917 86.667 C 164.860 86.575,164.668 86.500,164.490 86.500 C 164.312 86.500,164.167 86.400,164.167 86.278 C 164.167 86.156,163.979 85.956,163.750 85.833 C 163.521 85.711,163.333 85.545,163.333 85.465 C 163.333 85.384,163.146 85.117,162.917 84.869 C 162.629 84.559,162.493 84.213,162.478 83.752 C 162.441 82.597,162.531 81.420,162.662 81.333 C 162.732 81.287,162.841 81.081,162.905 80.875 C 162.970 80.669,163.092 80.500,163.178 80.500 C 163.263 80.500,163.333 80.387,163.333 80.250 C 163.333 80.112,163.418 80.000,163.522 80.000 C 163.626 80.000,163.832 79.867,163.980 79.704 C 164.430 79.210,165.129 78.834,165.619 78.822 C 165.874 78.815,166.233 78.750,166.417 78.677 C 166.600 78.604,166.775 78.610,166.806 78.689 C 166.836 78.768,167.155 78.833,167.514 78.833 " stroke="none" fill="#bbbbbb" fill-rule="evenodd"></path><path id="path4" d="M1.132 0.292 C 0.992 0.452,0.836 0.808,0.784 1.083 L 0.689 1.583 0.877 1.125 C 0.980 0.873,1.144 0.657,1.241 0.645 C 1.337 0.634,1.588 0.606,1.797 0.585 C 2.006 0.563,2.231 0.485,2.297 0.413 C 2.363 0.340,2.292 0.325,2.139 0.380 C 1.976 0.438,1.823 0.379,1.769 0.239 C 1.647 -0.080,1.439 -0.063,1.132 0.292 M2.585 0.669 C 2.643 0.763,2.760 0.796,2.845 0.743 C 2.930 0.690,3.000 0.731,3.000 0.833 C 3.000 0.936,3.083 0.968,3.184 0.906 C 3.313 0.826,3.300 0.748,3.143 0.648 C 2.829 0.450,2.458 0.464,2.585 0.669 M0.856 3.611 C 0.958 3.733,1.104 3.833,1.182 3.833 C 1.259 3.833,1.284 3.733,1.238 3.611 C 1.191 3.489,1.044 3.389,0.912 3.389 C 0.731 3.389,0.717 3.443,0.856 3.611 M26.208 16.352 C 26.384 16.451,26.606 16.457,26.766 16.367 C 26.967 16.255,26.895 16.215,26.475 16.203 C 26.026 16.191,25.974 16.220,26.208 16.352 M134.642 49.264 C 134.807 49.595,135.333 50.127,135.333 49.963 C 135.333 49.920,135.139 49.667,134.901 49.401 C 134.612 49.078,134.526 49.032,134.642 49.264 M188.417 66.198 L 188.083 66.543 188.449 66.354 C 188.834 66.155,189.114 65.826,188.885 65.843 C 188.811 65.849,188.600 66.008,188.417 66.198 M397.125 73.455 C 397.515 73.490,398.152 73.490,398.542 73.455 C 398.931 73.420,398.613 73.392,397.833 73.392 C 397.054 73.392,396.735 73.420,397.125 73.455 M388.960 77.618 C 389.168 77.658,389.468 77.656,389.627 77.615 C 389.786 77.573,389.617 77.540,389.250 77.542 C 388.883 77.544,388.753 77.578,388.960 77.618 M391.292 77.621 C 391.590 77.658,392.077 77.658,392.375 77.621 C 392.673 77.584,392.429 77.553,391.833 77.553 C 391.238 77.553,390.994 77.584,391.292 77.621 " stroke="none" fill="#ffffff" fill-rule="evenodd"></path></g></svg>