<svg id="svg" version="1.1" width="400" height="204.79302832244008" xmlns="http://www.w3.org/2000/svg" xmlns:xlink="http://www.w3.org/1999/xlink" style="display: block;"><g id="svgg"><path id="path0" d="" stroke="none" fill="#000000" fill-rule="evenodd"></path><path id="path1" d="" stroke="none" fill="#0000ff" fill-rule="evenodd"></path><path id="path2" d="" stroke="none" fill="#0055aa" fill-rule="evenodd"></path><path id="path3" d="M397.440 0.475 C 396.877 0.708,396.370 0.950,396.313 1.013 C 396.257 1.075,396.027 1.157,395.801 1.195 C 395.576 1.232,395.304 1.348,395.197 1.451 C 395.090 1.554,394.791 1.639,394.531 1.639 C 394.272 1.639,394.060 1.731,394.060 1.843 C 394.060 1.956,393.876 2.048,393.651 2.048 C 393.425 2.048,393.241 2.140,393.241 2.253 C 393.241 2.366,392.965 2.458,392.627 2.458 C 392.289 2.458,392.012 2.550,392.012 2.663 C 392.012 2.775,391.873 2.867,391.702 2.867 C 391.532 2.867,391.232 2.949,391.037 3.048 C 390.686 3.227,389.996 3.516,389.094 3.864 C 388.840 3.962,387.942 4.377,387.097 4.787 C 386.252 5.197,385.405 5.531,385.214 5.531 C 385.024 5.530,384.811 5.622,384.741 5.735 C 384.672 5.847,384.436 5.940,384.217 5.940 C 383.999 5.940,383.820 6.032,383.820 6.144 C 383.820 6.257,383.584 6.349,383.296 6.349 C 382.998 6.349,382.826 6.438,382.898 6.554 C 382.968 6.667,382.880 6.759,382.702 6.759 C 382.196 6.759,380.748 7.251,380.748 7.423 C 380.748 7.508,380.617 7.578,380.457 7.578 C 380.115 7.578,378.832 8.226,378.734 8.449 C 378.696 8.533,378.443 8.602,378.170 8.602 C 377.898 8.602,377.675 8.694,377.675 8.807 C 377.675 8.920,377.445 9.012,377.163 9.012 C 376.882 9.012,376.651 9.087,376.651 9.180 C 376.651 9.272,376.190 9.473,375.627 9.626 C 375.064 9.780,374.603 9.981,374.603 10.073 C 374.603 10.165,374.424 10.241,374.206 10.241 C 373.987 10.241,373.751 10.333,373.682 10.445 C 373.612 10.558,373.330 10.650,373.055 10.650 C 372.780 10.650,372.555 10.742,372.555 10.855 C 372.555 10.968,372.325 11.060,372.043 11.060 C 371.761 11.060,371.531 11.152,371.531 11.265 C 371.531 11.377,371.358 11.470,371.146 11.470 C 370.935 11.470,370.647 11.608,370.507 11.777 C 370.367 11.946,370.033 12.084,369.765 12.084 C 369.497 12.084,369.278 12.176,369.278 12.289 C 369.278 12.401,369.094 12.494,368.868 12.494 C 368.643 12.494,368.459 12.586,368.459 12.698 C 368.459 12.811,368.223 12.903,367.935 12.903 C 367.637 12.903,367.465 12.992,367.537 13.108 C 367.611 13.227,367.407 13.313,367.049 13.313 C 366.711 13.313,366.378 13.405,366.308 13.518 C 366.239 13.630,366.003 13.722,365.784 13.722 C 365.565 13.722,365.387 13.795,365.387 13.883 C 365.387 13.971,364.957 14.170,364.431 14.325 C 363.218 14.683,362.314 15.132,362.314 15.376 C 362.314 15.480,362.038 15.566,361.700 15.566 C 361.362 15.566,361.086 15.658,361.086 15.771 C 361.086 15.883,360.907 15.975,360.688 15.975 C 360.469 15.975,360.233 16.068,360.164 16.180 C 360.094 16.293,359.858 16.385,359.640 16.385 C 359.421 16.385,359.242 16.477,359.242 16.590 C 359.242 16.703,359.017 16.795,358.742 16.795 C 358.467 16.795,358.185 16.887,358.116 16.999 C 358.046 17.112,357.810 17.204,357.592 17.204 C 357.373 17.204,357.194 17.296,357.194 17.409 C 357.194 17.522,356.964 17.614,356.682 17.614 C 356.400 17.614,356.170 17.706,356.170 17.819 C 356.170 17.931,356.035 18.024,355.870 18.024 C 355.454 18.024,354.122 18.677,354.122 18.881 C 354.122 18.973,353.897 19.048,353.622 19.048 C 353.347 19.048,353.065 19.140,352.995 19.252 C 352.926 19.365,352.644 19.457,352.369 19.457 C 352.094 19.457,351.869 19.549,351.869 19.662 C 351.869 19.775,351.685 19.867,351.459 19.867 C 351.234 19.867,351.050 19.959,351.050 20.072 C 351.050 20.184,350.864 20.276,350.637 20.276 C 350.410 20.276,350.065 20.359,349.869 20.459 C 349.226 20.789,347.688 21.461,346.698 21.845 C 346.164 22.053,345.726 22.291,345.725 22.376 C 345.725 22.460,345.540 22.529,345.315 22.529 C 345.090 22.529,344.905 22.622,344.905 22.734 C 344.905 22.847,344.720 22.939,344.493 22.939 C 344.266 22.939,343.874 23.046,343.622 23.176 C 342.661 23.673,342.444 23.758,342.143 23.758 C 341.973 23.758,341.833 23.850,341.833 23.963 C 341.833 24.076,341.657 24.168,341.443 24.168 C 341.092 24.168,340.364 24.478,338.729 25.321 C 338.430 25.475,338.039 25.602,337.859 25.602 C 337.679 25.602,337.532 25.694,337.532 25.806 C 337.532 25.919,337.348 26.011,337.122 26.011 C 336.897 26.011,336.713 26.103,336.713 26.216 C 336.713 26.329,336.482 26.421,336.201 26.421 C 335.919 26.421,335.689 26.329,335.689 26.216 C 335.689 26.103,335.512 26.011,335.296 26.011 C 335.080 26.011,334.873 25.942,334.835 25.858 C 334.302 24.658,328.063 24.658,327.530 25.858 C 327.493 25.942,327.333 26.011,327.174 26.011 C 326.588 26.011,324.424 28.126,324.424 28.699 C 324.424 28.910,324.332 29.083,324.219 29.083 C 324.107 29.083,324.014 29.268,324.014 29.493 C 324.014 29.718,323.922 29.903,323.810 29.903 C 323.683 29.903,323.605 30.961,323.605 32.668 C 323.605 34.374,323.683 35.433,323.810 35.433 C 324.854 35.433,323.898 36.735,319.867 40.807 C 314.940 45.783,311.726 49.110,311.726 49.234 C 311.726 49.283,308.753 52.309,305.120 55.958 C 301.487 59.607,297.686 63.500,296.672 64.610 C 295.658 65.720,292.156 69.322,288.889 72.615 C 285.622 75.908,282.028 79.595,280.901 80.808 C 279.775 82.022,277.263 84.614,275.320 86.569 C 273.377 88.523,271.787 90.214,271.787 90.325 C 271.787 90.436,271.693 90.527,271.578 90.527 C 271.393 90.527,268.715 93.076,268.715 93.253 C 268.715 93.291,267.724 94.335,266.513 95.571 C 263.185 98.970,261.751 100.534,261.751 100.765 C 261.751 100.879,261.653 100.973,261.532 100.973 C 261.271 100.973,258.269 104.007,258.269 104.271 C 258.269 104.372,258.175 104.455,258.061 104.455 C 257.818 104.455,255.197 107.031,255.197 107.270 C 255.197 107.358,254.949 107.613,254.645 107.837 C 254.036 108.286,253.104 109.220,249.809 112.678 C 248.591 113.957,247.047 115.571,246.378 116.265 C 245.709 116.960,245.161 117.588,245.161 117.662 C 245.161 117.870,244.601 118.382,244.374 118.382 C 244.262 118.382,244.118 118.497,244.052 118.638 C 243.956 118.843,243.909 118.843,243.813 118.638 C 243.747 118.497,243.517 118.382,243.301 118.382 C 243.085 118.382,242.908 118.290,242.908 118.177 C 242.908 118.051,241.850 117.972,240.143 117.972 C 238.437 117.972,237.378 118.051,237.378 118.177 C 237.378 118.290,237.148 118.382,236.866 118.382 C 236.585 118.382,236.354 118.474,236.354 118.587 C 236.354 118.699,236.215 118.792,236.045 118.792 C 235.633 118.792,233.282 121.133,233.282 121.543 C 233.282 121.719,233.190 121.864,233.077 121.864 C 232.965 121.864,232.873 122.030,232.873 122.232 C 232.873 122.929,232.438 123.093,230.591 123.093 C 229.606 123.093,228.743 123.185,228.674 123.297 C 228.591 123.432,221.610 123.502,208.397 123.502 C 195.185 123.502,188.204 123.573,188.121 123.707 C 187.843 124.156,182.284 123.961,182.284 123.502 C 182.284 123.277,182.192 123.093,182.079 123.093 C 181.966 123.093,181.874 122.908,181.874 122.683 C 181.874 122.458,181.782 122.273,181.669 122.273 C 181.557 122.273,181.464 122.136,181.464 121.969 C 181.464 121.330,179.336 119.201,178.697 119.201 C 178.529 119.201,178.392 119.109,178.392 118.996 C 178.392 118.884,178.208 118.792,177.983 118.792 C 177.757 118.792,177.573 118.699,177.573 118.587 C 177.573 118.460,176.519 118.382,174.820 118.382 C 173.206 118.382,172.015 118.467,171.941 118.587 C 171.871 118.699,171.635 118.792,171.416 118.792 C 171.198 118.792,171.019 118.884,171.019 118.996 C 171.019 119.109,170.878 119.201,170.707 119.201 C 170.284 119.201,167.947 121.519,167.947 121.939 C 167.947 122.123,167.855 122.273,167.742 122.273 C 167.629 122.273,167.537 122.452,167.537 122.671 C 167.537 122.890,167.445 123.125,167.332 123.195 C 167.216 123.267,167.127 124.293,167.127 125.572 C 167.127 127.870,166.764 128.827,165.893 128.827 C 165.767 128.827,165.542 128.943,165.393 129.083 C 165.243 129.224,164.775 129.616,164.354 129.954 C 163.932 130.292,163.279 130.868,162.903 131.234 C 162.527 131.600,162.125 131.900,162.011 131.900 C 161.896 131.900,161.802 131.992,161.802 132.104 C 161.802 132.217,161.679 132.309,161.528 132.309 C 161.377 132.309,160.814 132.724,160.277 133.231 C 159.741 133.738,159.242 134.153,159.168 134.153 C 159.095 134.153,158.644 134.521,158.165 134.972 C 157.687 135.422,157.217 135.791,157.122 135.791 C 157.026 135.791,156.678 136.045,156.349 136.354 C 156.020 136.664,155.385 137.192,154.937 137.528 C 154.488 137.864,153.819 138.440,153.449 138.808 C 153.080 139.176,152.702 139.478,152.610 139.478 C 152.519 139.478,152.256 139.639,152.026 139.836 C 151.796 140.033,151.257 140.471,150.827 140.809 C 150.398 141.147,149.765 141.700,149.420 142.038 C 149.076 142.376,148.537 142.785,148.223 142.948 C 147.909 143.111,147.243 143.617,146.744 144.074 C 145.519 145.195,145.250 145.417,145.117 145.417 C 145.055 145.417,144.715 145.694,144.361 146.032 C 144.007 146.370,143.630 146.646,143.523 146.646 C 143.416 146.646,143.084 146.904,142.786 147.218 C 142.487 147.533,141.876 148.063,141.428 148.396 C 140.980 148.729,140.344 149.255,140.015 149.565 C 139.686 149.875,139.331 150.128,139.226 150.128 C 139.122 150.128,138.621 150.543,138.114 151.050 C 137.607 151.557,137.100 151.971,136.988 151.971 C 136.875 151.971,136.443 152.317,136.026 152.739 C 135.610 153.162,135.147 153.534,134.996 153.566 C 134.846 153.598,134.610 153.736,134.472 153.873 C 134.333 154.010,133.975 154.305,133.674 154.529 C 133.374 154.753,133.129 155.052,133.129 155.195 C 133.129 155.337,132.986 155.453,132.812 155.453 C 132.638 155.453,132.281 155.661,132.018 155.914 C 131.254 156.652,130.680 157.092,130.480 157.092 C 130.377 157.092,129.879 157.506,129.372 158.013 C 128.865 158.520,128.351 158.935,128.229 158.935 C 128.108 158.935,128.008 159.027,128.008 159.140 C 128.008 159.252,127.904 159.345,127.776 159.345 C 127.649 159.345,127.395 159.510,127.213 159.713 C 127.031 159.915,126.559 160.304,126.165 160.576 C 125.771 160.848,125.150 161.374,124.786 161.744 C 124.422 162.114,124.030 162.417,123.916 162.417 C 123.801 162.417,123.707 162.509,123.707 162.622 C 123.707 162.734,123.606 162.826,123.482 162.826 C 123.358 162.826,123.013 163.080,122.714 163.390 C 122.415 163.699,121.910 164.088,121.590 164.253 C 121.271 164.418,120.744 164.856,120.419 165.226 C 120.094 165.596,119.726 165.899,119.601 165.899 C 119.476 165.899,119.027 166.259,118.603 166.701 C 117.867 167.467,117.820 167.485,117.550 167.110 C 117.395 166.894,117.103 166.718,116.903 166.718 C 116.703 166.718,116.539 166.626,116.539 166.513 C 116.539 166.400,116.354 166.308,116.129 166.308 C 115.904 166.308,115.719 166.216,115.719 166.103 C 115.719 165.977,114.627 165.899,112.852 165.899 C 111.077 165.899,109.985 165.977,109.985 166.103 C 109.985 166.216,109.800 166.308,109.575 166.308 C 109.350 166.308,109.165 166.400,109.165 166.513 C 109.165 166.626,109.023 166.718,108.849 166.718 C 108.675 166.718,108.318 166.925,108.055 167.179 C 107.793 167.432,107.405 167.788,107.194 167.969 C 106.568 168.505,106.093 169.159,106.093 169.485 C 106.093 169.653,106.001 169.790,105.888 169.790 C 105.776 169.790,105.684 169.974,105.684 170.200 C 105.684 170.541,105.547 170.609,104.864 170.609 C 104.414 170.609,104.045 170.701,104.045 170.812 C 104.045 170.944,96.737 171.046,83.103 171.103 C 71.585 171.152,61.354 171.252,60.369 171.325 L 58.577 171.459 58.577 170.420 C 58.577 169.848,58.484 169.380,58.372 169.380 C 58.259 169.380,58.167 169.245,58.167 169.079 C 58.167 168.500,57.003 166.718,56.625 166.718 C 56.550 166.718,56.244 166.457,55.945 166.138 C 54.686 164.793,53.695 164.465,50.889 164.465 C 49.323 164.465,48.336 164.544,48.336 164.670 C 48.336 164.782,48.194 164.875,48.021 164.875 C 47.648 164.875,46.728 165.434,46.264 165.945 C 46.082 166.145,45.871 166.308,45.796 166.308 C 45.522 166.308,44.240 167.737,44.240 168.042 C 44.240 168.215,44.147 168.356,44.035 168.356 C 43.922 168.356,43.830 168.587,43.830 168.868 C 43.830 169.150,43.738 169.380,43.625 169.380 C 43.502 169.380,43.420 170.205,43.420 171.443 C 43.420 173.569,43.242 174.091,42.513 174.091 C 42.336 174.091,42.192 174.183,42.192 174.296 C 42.192 174.409,42.053 174.501,41.884 174.501 C 41.715 174.501,41.577 174.593,41.577 174.706 C 41.577 174.818,41.446 174.910,41.285 174.910 C 41.124 174.910,40.811 175.141,40.590 175.422 C 40.368 175.704,40.039 175.934,39.858 175.934 C 39.677 175.934,39.529 176.027,39.529 176.139 C 39.529 176.252,39.391 176.344,39.222 176.344 C 39.053 176.344,38.914 176.436,38.914 176.549 C 38.914 176.662,38.772 176.754,38.599 176.754 C 38.425 176.754,38.085 176.938,37.843 177.163 C 37.601 177.389,37.283 177.573,37.135 177.573 C 36.987 177.573,36.866 177.665,36.866 177.778 C 36.866 177.890,36.764 177.983,36.638 177.983 C 36.387 177.983,34.348 179.416,34.238 179.669 C 34.200 179.755,34.013 179.826,33.822 179.826 C 33.631 179.826,33.342 180.010,33.180 180.236 C 33.017 180.461,32.720 180.645,32.520 180.645 C 32.320 180.645,32.156 180.737,32.156 180.850 C 32.156 180.963,32.017 181.055,31.848 181.055 C 31.679 181.055,31.541 181.147,31.541 181.260 C 31.541 181.372,31.377 181.464,31.177 181.464 C 30.976 181.464,30.680 181.649,30.517 181.874 C 30.355 182.099,30.101 182.284,29.953 182.284 C 29.806 182.284,29.632 182.422,29.567 182.591 C 29.502 182.760,29.275 182.898,29.062 182.898 C 28.848 182.898,28.674 182.990,28.674 183.103 C 28.674 183.216,28.536 183.308,28.367 183.308 C 28.198 183.308,28.059 183.400,28.059 183.513 C 28.059 183.625,27.939 183.717,27.791 183.717 C 27.643 183.717,27.324 183.902,27.083 184.127 C 26.841 184.352,26.521 184.537,26.372 184.537 C 26.223 184.537,25.969 184.721,25.806 184.946 C 25.644 185.172,25.354 185.356,25.162 185.356 C 24.969 185.356,24.631 185.586,24.409 185.868 C 24.188 186.150,23.859 186.380,23.678 186.380 C 23.497 186.380,23.349 186.472,23.349 186.585 C 23.349 186.697,23.228 186.790,23.080 186.790 C 22.932 186.790,22.633 186.956,22.414 187.159 C 22.196 187.363,21.718 187.662,21.352 187.824 C 20.986 187.986,20.686 188.188,20.686 188.273 C 20.686 188.358,20.558 188.428,20.400 188.428 C 20.243 188.428,19.898 188.657,19.632 188.937 C 19.367 189.216,19.035 189.447,18.894 189.449 C 18.753 189.451,18.638 189.544,18.638 189.657 C 18.638 189.770,18.500 189.862,18.331 189.862 C 18.162 189.862,18.024 189.954,18.024 190.067 C 18.024 190.179,17.860 190.271,17.659 190.271 C 17.459 190.271,17.162 190.456,16.999 190.681 C 16.837 190.906,16.540 191.091,16.340 191.091 C 16.139 191.091,15.975 191.163,15.975 191.252 C 15.975 191.341,15.515 191.683,14.951 192.012 C 14.388 192.341,13.927 192.683,13.927 192.772 C 13.927 192.861,13.789 192.934,13.620 192.934 C 13.451 192.934,13.313 193.026,13.313 193.139 C 13.313 193.251,13.192 193.344,13.044 193.344 C 12.897 193.344,12.578 193.528,12.336 193.753 C 12.094 193.978,11.754 194.163,11.581 194.163 C 11.407 194.163,11.265 194.255,11.265 194.368 C 11.265 194.480,11.126 194.572,10.958 194.572 C 10.789 194.572,10.650 194.665,10.650 194.777 C 10.650 194.890,10.522 194.982,10.365 194.982 C 10.207 194.982,9.862 195.211,9.597 195.491 C 9.331 195.770,8.999 196.001,8.858 196.003 C 8.717 196.005,8.602 196.098,8.602 196.211 C 8.602 196.324,8.464 196.416,8.295 196.416 C 8.126 196.416,7.988 196.508,7.988 196.621 C 7.988 196.733,7.888 196.825,7.767 196.825 C 7.645 196.825,6.674 197.424,5.610 198.157 C 4.545 198.889,3.604 199.488,3.520 199.488 C 3.436 199.488,3.235 199.672,3.072 199.898 C 2.910 200.123,2.613 200.307,2.413 200.307 C 2.212 200.307,2.048 200.445,2.048 200.614 C 2.048 200.783,1.979 200.907,1.895 200.889 C 1.603 200.826,0.614 201.322,0.614 201.531 C 0.614 201.646,0.470 201.741,0.293 201.741 C 0.064 201.741,-0.013 201.904,0.029 202.304 C 0.098 202.981,0.556 203.583,1.005 203.587 C 1.290 203.590,1.293 203.615,1.024 203.789 C 0.819 203.921,0.802 203.989,0.973 203.991 C 1.114 203.992,1.218 204.063,1.205 204.147 C 1.127 204.639,1.294 204.813,1.843 204.813 C 2.181 204.813,2.458 204.742,2.458 204.655 C 2.458 204.568,2.893 204.269,3.425 203.990 C 3.956 203.710,4.573 203.321,4.794 203.123 C 5.016 202.926,5.318 202.765,5.466 202.765 C 5.614 202.765,5.735 202.690,5.735 202.598 C 5.735 202.507,6.057 202.305,6.452 202.151 C 6.846 201.996,7.168 201.794,7.168 201.703 C 7.168 201.611,7.289 201.536,7.437 201.536 C 7.585 201.536,7.904 201.352,8.145 201.126 C 8.387 200.901,8.649 200.717,8.728 200.717 C 8.806 200.717,9.173 200.486,9.542 200.205 C 9.911 199.923,10.312 199.693,10.432 199.693 C 10.552 199.693,10.650 199.601,10.650 199.488 C 10.650 199.375,10.771 199.283,10.919 199.283 C 11.067 199.283,11.385 199.099,11.627 198.874 C 11.869 198.648,12.209 198.464,12.383 198.464 C 12.556 198.464,12.698 198.372,12.698 198.259 C 12.698 198.146,12.837 198.054,13.006 198.054 C 13.175 198.054,13.313 197.962,13.313 197.849 C 13.313 197.737,13.415 197.645,13.539 197.645 C 13.664 197.645,14.056 197.413,14.410 197.130 C 14.764 196.846,15.146 196.542,15.259 196.452 C 15.371 196.363,15.763 196.158,16.129 195.996 C 16.495 195.834,16.795 195.632,16.795 195.547 C 16.795 195.461,16.916 195.392,17.063 195.392 C 17.211 195.392,17.530 195.207,17.772 194.982 C 18.013 194.757,18.259 194.572,18.318 194.572 C 18.576 194.572,20.686 193.107,20.686 192.928 C 20.686 192.818,20.870 192.729,21.096 192.729 C 21.321 192.729,21.505 192.654,21.505 192.562 C 21.505 192.471,21.851 192.210,22.273 191.984 C 23.528 191.311,24.034 191.003,24.328 190.732 C 24.481 190.591,24.678 190.476,24.766 190.476 C 24.905 190.476,25.222 190.244,26.156 189.456 C 26.292 189.341,26.500 189.247,26.617 189.247 C 26.734 189.247,26.831 189.155,26.831 189.042 C 26.831 188.930,26.951 188.838,27.099 188.838 C 27.247 188.838,27.566 188.653,27.807 188.428 C 28.049 188.203,28.389 188.018,28.563 188.018 C 28.737 188.018,28.879 187.926,28.879 187.814 C 28.879 187.701,29.017 187.609,29.186 187.609 C 29.355 187.609,29.493 187.517,29.493 187.404 C 29.493 187.291,29.608 187.199,29.749 187.199 C 29.971 187.199,30.341 186.937,31.481 185.974 C 31.617 185.859,31.871 185.765,32.045 185.765 C 32.218 185.765,32.360 185.673,32.360 185.561 C 32.360 185.448,32.499 185.356,32.668 185.356 C 32.837 185.356,32.975 185.264,32.975 185.151 C 32.975 185.038,33.096 184.946,33.244 184.946 C 33.391 184.946,33.710 184.762,33.952 184.537 C 34.194 184.311,34.500 184.127,34.632 184.127 C 34.764 184.127,35.022 183.956,35.204 183.748 C 35.386 183.539,35.835 183.214,36.201 183.026 C 36.567 182.837,36.866 182.593,36.866 182.483 C 36.866 182.373,37.051 182.284,37.276 182.284 C 37.501 182.284,37.686 182.192,37.686 182.079 C 37.686 181.966,37.806 181.874,37.954 181.874 C 38.102 181.874,38.401 181.708,38.620 181.504 C 38.838 181.301,39.316 181.002,39.683 180.840 C 40.049 180.678,40.348 180.475,40.348 180.390 C 40.348 180.305,40.477 180.236,40.634 180.236 C 40.791 180.236,41.137 180.007,41.402 179.727 C 41.667 179.447,41.999 179.217,42.140 179.215 C 42.281 179.213,42.396 179.119,42.396 179.007 C 42.396 178.894,42.535 178.802,42.704 178.802 C 42.873 178.802,43.011 178.710,43.011 178.597 C 43.011 178.484,43.175 178.392,43.375 178.392 C 43.576 178.392,43.872 178.208,44.035 177.983 C 44.536 177.288,45.253 177.458,46.398 178.546 C 46.547 178.687,46.813 178.802,46.990 178.802 C 47.167 178.802,47.312 178.872,47.312 178.958 C 47.312 180.115,54.137 180.112,54.651 178.955 C 54.689 178.871,54.859 178.802,55.030 178.802 C 55.200 178.802,55.598 178.525,55.914 178.187 C 56.230 177.849,56.555 177.573,56.638 177.573 C 56.877 177.573,57.757 176.474,57.757 176.176 C 57.757 175.716,58.313 175.320,58.959 175.320 C 59.299 175.320,59.633 175.228,59.703 175.115 C 59.786 174.981,66.972 174.910,80.594 174.910 C 94.216 174.910,101.402 174.840,101.485 174.706 C 101.555 174.593,102.436 174.501,103.443 174.501 L 105.274 174.501 105.274 175.320 C 105.274 175.771,105.366 176.139,105.479 176.139 C 105.591 176.139,105.684 176.370,105.684 176.651 C 105.684 176.933,105.776 177.163,105.888 177.163 C 106.001 177.163,106.093 177.303,106.093 177.474 C 106.093 177.874,108.461 180.236,108.862 180.236 C 109.029 180.236,109.165 180.328,109.165 180.440 C 109.165 180.553,109.344 180.645,109.563 180.645 C 109.782 180.645,110.017 180.737,110.087 180.850 C 110.255 181.122,115.449 181.122,115.617 180.850 C 115.687 180.737,115.922 180.645,116.141 180.645 C 116.360 180.645,116.539 180.553,116.539 180.440 C 116.539 180.328,116.675 180.236,116.842 180.236 C 117.243 180.236,119.611 177.874,119.611 177.474 C 119.611 177.303,119.703 177.163,119.816 177.163 C 119.928 177.163,120.020 176.933,120.020 176.651 C 120.020 176.370,120.113 176.139,120.225 176.139 C 120.352 176.139,120.430 175.038,120.430 173.245 C 120.430 170.321,120.637 169.585,121.461 169.585 C 121.543 169.585,121.989 169.217,122.454 168.766 C 122.918 168.315,123.376 167.947,123.472 167.947 C 123.568 167.947,123.916 167.693,124.245 167.384 C 124.574 167.074,125.209 166.548,125.657 166.214 C 126.105 165.881,126.704 165.374,126.988 165.088 C 127.272 164.802,127.762 164.422,128.078 164.244 C 128.628 163.934,129.664 163.086,131.246 161.649 C 131.650 161.283,132.060 160.983,132.159 160.983 C 132.258 160.983,132.461 160.868,132.610 160.727 C 132.760 160.586,133.221 160.195,133.636 159.857 C 134.050 159.519,134.608 159.035,134.876 158.781 C 135.144 158.528,135.439 158.321,135.532 158.321 C 135.625 158.321,135.834 158.136,135.996 157.911 C 136.158 157.686,136.394 157.501,136.521 157.501 C 136.647 157.501,137.177 157.110,137.700 156.631 C 138.993 155.446,139.234 155.248,139.387 155.248 C 139.459 155.248,139.776 154.972,140.092 154.634 C 140.408 154.296,140.744 154.019,140.840 154.019 C 141.007 154.019,141.437 153.679,142.928 152.369 C 143.305 152.038,143.660 151.767,143.716 151.767 C 143.773 151.767,144.065 151.504,144.365 151.182 C 144.665 150.861,145.193 150.453,145.538 150.274 C 145.883 150.096,146.450 149.690,146.798 149.373 C 148.539 147.787,148.929 147.465,149.111 147.465 C 149.220 147.465,149.309 147.393,149.309 147.305 C 149.309 147.216,149.574 146.987,149.898 146.796 C 150.222 146.605,150.764 146.193,151.102 145.881 C 152.149 144.916,152.788 144.393,152.922 144.393 C 152.992 144.393,153.199 144.228,153.381 144.025 C 153.563 143.823,154.035 143.434,154.429 143.162 C 154.823 142.890,155.469 142.365,155.863 141.996 C 156.257 141.627,156.649 141.324,156.733 141.323 C 156.817 141.322,157.266 140.952,157.731 140.502 C 158.195 140.051,158.664 139.683,158.773 139.683 C 158.882 139.683,159.375 139.268,159.867 138.761 C 160.360 138.254,160.868 137.839,160.996 137.839 C 161.124 137.839,161.487 137.563,161.802 137.225 C 162.118 136.887,162.478 136.610,162.601 136.610 C 162.725 136.610,162.826 136.518,162.826 136.406 C 162.826 136.293,162.946 136.201,163.093 136.201 C 163.240 136.201,163.755 135.786,164.238 135.279 C 164.721 134.772,165.199 134.357,165.300 134.357 C 165.499 134.357,166.075 133.916,166.837 133.180 C 167.099 132.926,167.387 132.719,167.477 132.719 C 167.745 132.718,168.766 131.767,168.766 131.517 C 168.766 131.390,168.904 131.285,169.073 131.285 C 169.242 131.285,169.380 131.382,169.380 131.499 C 169.380 131.828,170.346 132.719,170.702 132.719 C 170.877 132.719,171.019 132.811,171.019 132.924 C 171.019 133.036,171.198 133.129,171.416 133.129 C 171.635 133.129,171.871 133.221,171.941 133.333 C 172.111 133.608,177.573 133.608,177.573 133.333 C 177.573 133.221,177.757 133.129,177.983 133.129 C 178.208 133.129,178.392 133.036,178.392 132.924 C 178.392 132.811,178.543 132.719,178.727 132.719 C 179.146 132.719,181.464 130.382,181.464 129.959 C 181.464 129.787,181.557 129.647,181.669 129.647 C 181.782 129.647,181.874 129.468,181.874 129.249 C 181.874 129.031,181.966 128.795,182.079 128.725 C 182.192 128.655,182.284 128.420,182.284 128.201 C 182.284 127.841,182.437 127.803,183.910 127.803 C 184.805 127.803,185.593 127.711,185.663 127.599 C 185.746 127.464,192.765 127.394,206.054 127.394 C 219.427 127.394,226.318 127.324,226.318 127.189 C 226.318 127.062,227.479 126.984,229.391 126.984 L 232.463 126.984 232.463 127.599 C 232.463 127.937,232.555 128.213,232.668 128.213 C 232.780 128.213,232.873 128.443,232.873 128.725 C 232.873 129.007,232.942 129.237,233.027 129.237 C 233.112 129.237,233.305 129.514,233.454 129.852 C 233.604 130.189,233.815 130.466,233.923 130.466 C 234.179 130.466,235.125 131.412,235.125 131.668 C 235.125 131.777,235.402 131.988,235.740 132.137 C 236.078 132.287,236.354 132.479,236.354 132.564 C 236.354 132.649,236.585 132.719,236.866 132.719 C 237.148 132.719,237.378 132.811,237.378 132.924 C 237.378 133.050,238.437 133.129,240.143 133.129 C 241.850 133.129,242.908 133.050,242.908 132.924 C 242.908 132.811,243.093 132.719,243.318 132.719 C 243.543 132.719,243.728 132.627,243.728 132.514 C 243.728 132.401,243.872 132.309,244.049 132.309 C 244.458 132.309,246.800 129.958,246.800 129.547 C 246.800 129.376,246.892 129.237,247.005 129.237 C 247.117 129.237,247.209 129.007,247.209 128.725 C 247.209 128.443,247.302 128.213,247.414 128.213 C 247.541 128.213,247.619 127.155,247.619 125.448 C 247.619 123.741,247.541 122.683,247.414 122.683 C 247.302 122.683,247.209 122.499,247.209 122.273 C 247.209 122.048,247.117 121.864,247.005 121.864 C 246.892 121.864,246.800 121.795,246.800 121.710 C 246.800 121.509,247.730 120.430,247.903 120.430 C 248.090 120.430,250.281 118.222,250.286 118.028 C 250.288 117.941,250.624 117.593,251.033 117.256 C 251.441 116.918,252.107 116.291,252.513 115.863 C 252.919 115.435,254.173 114.134,255.300 112.973 C 256.426 111.811,257.993 110.148,258.781 109.277 C 259.570 108.406,260.568 107.356,261.000 106.944 C 261.432 106.532,262.215 105.752,262.741 105.209 C 263.267 104.666,264.050 103.883,264.482 103.468 C 264.914 103.053,265.605 102.369,266.018 101.947 C 273.009 94.807,274.422 93.311,274.327 93.157 C 274.265 93.057,274.333 93.000,274.478 93.031 C 274.623 93.062,274.836 92.880,274.951 92.627 C 275.067 92.373,275.235 92.166,275.324 92.166 C 275.508 92.166,276.907 90.809,276.907 90.631 C 276.907 90.458,278.717 88.685,278.899 88.680 C 278.986 88.677,279.334 88.349,279.672 87.950 C 280.010 87.551,282.752 84.727,285.765 81.674 C 288.779 78.621,291.244 76.000,291.244 75.850 C 291.244 75.699,291.313 75.575,291.398 75.574 C 291.580 75.571,293.497 73.828,293.497 73.665 C 293.497 73.603,296.239 70.798,299.590 67.432 C 302.942 64.065,306.329 60.593,307.117 59.716 C 307.906 58.839,311.639 55.001,315.412 51.187 C 319.186 47.373,322.919 43.546,323.707 42.681 C 326.646 39.459,327.496 38.803,327.496 39.756 C 327.496 39.856,327.675 39.939,327.894 39.939 C 328.112 39.939,328.348 40.031,328.418 40.143 C 328.588 40.418,333.845 40.418,333.845 40.143 C 333.845 40.031,333.987 39.939,334.160 39.939 C 334.573 39.939,335.452 39.369,336.129 38.662 C 336.428 38.350,336.734 38.095,336.810 38.095 C 337.188 38.095,338.351 36.313,338.351 35.734 C 338.351 35.568,338.448 35.433,338.566 35.433 C 338.707 35.433,338.769 34.431,338.748 32.514 C 338.717 29.722,338.734 29.593,339.133 29.532 C 339.363 29.497,339.661 29.336,339.795 29.174 C 339.930 29.011,340.208 28.879,340.412 28.879 C 340.617 28.879,340.842 28.786,340.911 28.674 C 340.981 28.561,341.217 28.469,341.436 28.469 C 341.654 28.469,341.833 28.377,341.833 28.264 C 341.833 28.152,342.058 28.059,342.333 28.059 C 342.608 28.059,342.890 27.967,342.960 27.855 C 343.029 27.742,343.265 27.650,343.484 27.650 C 343.702 27.650,343.881 27.558,343.881 27.445 C 343.881 27.332,344.112 27.240,344.393 27.240 C 344.675 27.240,344.905 27.148,344.905 27.035 C 344.905 26.923,345.048 26.831,345.222 26.831 C 345.397 26.831,345.921 26.646,346.387 26.421 C 346.854 26.196,347.359 26.011,347.510 26.011 C 347.662 26.011,347.839 25.873,347.903 25.704 C 347.968 25.535,348.236 25.397,348.499 25.397 C 348.762 25.397,349.034 25.305,349.104 25.192 C 349.174 25.079,349.409 24.987,349.628 24.987 C 349.847 24.987,350.026 24.895,350.026 24.782 C 350.026 24.670,350.256 24.578,350.538 24.578 C 350.819 24.578,351.050 24.485,351.050 24.373 C 351.050 24.260,351.275 24.168,351.550 24.168 C 351.825 24.168,352.107 24.076,352.176 23.963 C 352.246 23.850,352.482 23.758,352.700 23.758 C 352.919 23.758,353.098 23.666,353.098 23.554 C 353.098 23.441,353.282 23.349,353.507 23.349 C 353.733 23.349,353.917 23.257,353.917 23.144 C 353.917 23.031,354.098 22.939,354.320 22.939 C 354.814 22.939,356.170 22.311,356.170 22.082 C 356.170 21.990,356.349 21.915,356.568 21.915 C 356.786 21.915,357.022 21.823,357.092 21.710 C 357.161 21.598,357.438 21.505,357.706 21.505 C 357.974 21.505,358.251 21.413,358.321 21.301 C 358.390 21.188,358.626 21.096,358.845 21.096 C 359.063 21.096,359.242 21.004,359.242 20.891 C 359.242 20.778,359.427 20.686,359.652 20.686 C 359.877 20.686,360.061 20.594,360.061 20.481 C 360.061 20.369,360.338 20.276,360.676 20.276 C 361.014 20.276,361.290 20.184,361.290 20.072 C 361.290 19.959,361.521 19.867,361.802 19.867 C 362.084 19.867,362.314 19.775,362.314 19.662 C 362.314 19.549,362.422 19.457,362.553 19.457 C 362.935 19.457,364.363 18.780,364.363 18.599 C 364.363 18.508,364.593 18.433,364.875 18.433 C 365.156 18.433,365.387 18.341,365.387 18.228 C 365.387 18.116,365.612 18.024,365.887 18.024 C 366.161 18.024,366.443 17.931,366.513 17.819 C 366.583 17.706,366.819 17.614,367.037 17.614 C 367.256 17.614,367.435 17.522,367.435 17.409 C 367.435 17.296,367.665 17.204,367.947 17.204 C 368.228 17.204,368.459 17.129,368.459 17.037 C 368.459 16.944,368.920 16.743,369.483 16.590 C 370.046 16.436,370.507 16.235,370.507 16.143 C 370.507 16.051,370.631 15.975,370.784 15.975 C 370.936 15.975,371.494 15.745,372.023 15.463 C 372.553 15.182,373.120 14.951,373.283 14.951 C 373.446 14.951,373.579 14.859,373.579 14.747 C 373.579 14.634,373.763 14.542,373.989 14.542 C 374.214 14.542,374.398 14.450,374.398 14.337 C 374.398 14.224,374.675 14.132,375.013 14.132 C 375.351 14.132,375.627 14.040,375.627 13.927 C 375.627 13.815,375.858 13.722,376.139 13.722 C 376.421 13.722,376.651 13.630,376.651 13.518 C 376.651 13.405,376.836 13.313,377.061 13.313 C 377.286 13.313,377.471 13.221,377.471 13.108 C 377.471 12.995,377.624 12.903,377.811 12.903 C 378.272 12.903,379.724 12.251,379.724 12.045 C 379.724 11.954,379.902 11.879,380.121 11.879 C 380.340 11.879,380.576 11.787,380.645 11.674 C 380.715 11.562,380.997 11.470,381.272 11.470 C 381.547 11.470,381.772 11.377,381.772 11.265 C 381.772 11.152,382.002 11.060,382.284 11.060 C 382.565 11.060,382.796 10.968,382.796 10.855 C 382.796 10.742,382.980 10.650,383.205 10.650 C 383.431 10.650,383.615 10.558,383.615 10.445 C 383.615 10.333,383.801 10.241,384.027 10.241 C 384.254 10.241,384.600 10.156,384.795 10.054 C 385.759 9.547,387.471 8.807,387.680 8.807 C 387.810 8.807,387.916 8.715,387.916 8.602 C 387.916 8.490,388.056 8.397,388.226 8.397 C 388.397 8.397,388.696 8.316,388.892 8.216 C 389.087 8.117,389.524 7.922,389.862 7.783 C 390.200 7.644,390.636 7.449,390.832 7.349 C 391.027 7.250,391.327 7.168,391.497 7.168 C 391.668 7.168,391.807 7.076,391.807 6.964 C 391.807 6.851,391.947 6.759,392.117 6.759 C 392.288 6.759,392.588 6.675,392.783 6.572 C 393.578 6.153,395.518 5.325,395.705 5.325 C 395.814 5.325,395.904 5.233,395.904 5.120 C 395.904 5.008,396.083 4.916,396.301 4.916 C 396.520 4.916,396.756 4.823,396.825 4.711 C 396.895 4.598,397.131 4.506,397.350 4.506 C 397.568 4.506,397.747 4.434,397.747 4.346 C 397.747 4.258,398.158 4.064,398.660 3.916 C 400.011 3.517,400.179 3.217,399.631 2.183 C 399.383 1.714,399.178 1.239,399.176 1.126 C 399.173 1.014,399.012 0.726,398.818 0.486 L 398.464 0.051 397.440 0.475 M332.821 28.674 C 332.821 28.786,332.964 28.879,333.138 28.879 C 333.535 28.879,334.263 29.611,334.664 30.415 C 334.833 30.753,335.050 31.087,335.146 31.157 C 335.641 31.517,335.159 35.023,334.615 35.023 C 334.529 35.023,334.460 35.119,334.460 35.237 C 334.460 35.566,333.494 36.457,333.138 36.457 C 332.964 36.457,332.821 36.549,332.821 36.662 C 332.821 36.781,332.139 36.866,331.183 36.866 C 330.227 36.866,329.544 36.781,329.544 36.662 C 329.544 36.549,329.397 36.457,329.217 36.457 C 329.037 36.457,328.616 36.164,328.282 35.806 C 326.576 33.981,326.519 31.537,328.140 29.807 C 328.461 29.466,328.724 29.117,328.724 29.032 C 328.725 28.948,328.909 28.879,329.135 28.879 C 329.360 28.879,329.544 28.786,329.544 28.674 C 329.544 28.554,330.227 28.469,331.183 28.469 C 332.139 28.469,332.821 28.554,332.821 28.674 M329.288 30.797 C 328.777 31.237,328.725 31.410,328.725 32.668 C 328.725 34.991,331.328 36.062,333.028 34.438 C 335.323 32.244,331.703 28.720,329.288 30.797 M241.323 121.466 C 243.126 121.966,244.813 124.644,244.315 126.216 C 243.840 127.714,242.678 129.237,242.011 129.237 C 241.847 129.237,241.681 129.336,241.640 129.457 C 241.542 129.751,238.842 129.758,238.548 129.465 C 238.423 129.340,238.198 129.237,238.047 129.237 C 237.677 129.237,236.354 127.892,236.354 127.515 C 236.354 127.349,236.262 127.156,236.150 127.087 C 236.037 127.017,235.945 126.274,235.945 125.436 C 235.945 124.556,236.031 123.912,236.150 123.912 C 236.262 123.912,236.354 123.771,236.354 123.598 C 236.354 123.425,236.655 122.987,237.021 122.625 C 238.304 121.359,239.641 120.998,241.323 121.466 M176.547 122.131 C 179.157 123.381,179.710 126.875,177.631 128.980 C 177.269 129.346,176.839 129.647,176.675 129.647 C 176.512 129.647,176.345 129.747,176.304 129.870 C 176.259 130.004,175.622 130.092,174.706 130.092 C 173.789 130.092,173.152 130.004,173.107 129.870 C 173.066 129.747,172.899 129.647,172.736 129.647 C 172.341 129.647,171.019 128.311,171.019 127.913 C 171.019 127.740,170.927 127.599,170.814 127.599 C 170.695 127.599,170.609 126.916,170.609 125.960 C 170.609 125.004,170.695 124.322,170.814 124.322 C 170.927 124.322,171.019 124.180,171.019 124.008 C 171.019 122.428,174.616 121.207,176.547 122.131 M238.249 123.610 C 237.867 124.017,237.788 124.335,237.788 125.450 C 237.788 127.343,238.249 127.803,240.143 127.803 C 242.027 127.803,242.499 127.339,242.499 125.485 C 242.499 123.606,241.968 123.088,240.064 123.105 C 238.907 123.116,238.642 123.190,238.249 123.610 M172.811 124.139 C 170.645 126.480,174.262 130.039,176.542 127.810 C 177.450 126.923,177.462 124.998,176.565 124.101 C 175.676 123.213,173.649 123.233,172.811 124.139 M52.637 168.172 C 52.637 168.273,52.779 168.356,52.953 168.356 C 53.310 168.356,54.275 169.247,54.275 169.576 C 54.275 169.694,54.345 169.790,54.430 169.790 C 54.754 169.790,55.178 171.164,55.165 172.171 C 55.152 173.194,54.740 174.501,54.430 174.501 C 54.345 174.501,54.275 174.589,54.275 174.696 C 54.275 175.002,53.266 175.934,52.935 175.934 C 52.771 175.934,52.637 176.027,52.637 176.139 C 52.637 176.259,51.954 176.344,50.998 176.344 C 50.043 176.344,49.360 176.259,49.360 176.139 C 49.360 176.027,49.176 175.934,48.950 175.934 C 48.725 175.934,48.540 175.865,48.540 175.781 C 48.539 175.696,48.286 175.351,47.977 175.013 C 46.322 173.205,46.426 170.657,48.228 168.855 C 48.502 168.581,48.869 168.356,49.043 168.356 C 49.218 168.356,49.360 168.270,49.360 168.164 C 49.360 168.058,49.706 167.943,50.128 167.908 C 51.255 167.815,52.637 167.960,52.637 168.172 M114.761 169.620 C 115.278 169.897,116.353 171.003,116.721 171.638 C 117.063 172.229,117.097 174.963,116.763 175.075 C 116.640 175.116,116.539 175.283,116.539 175.446 C 116.539 175.610,116.219 176.063,115.829 176.453 C 115.438 176.844,114.985 177.163,114.822 177.163 C 114.658 177.163,114.491 177.264,114.450 177.386 C 114.406 177.520,113.768 177.609,112.852 177.609 C 111.936 177.609,111.298 177.520,111.254 177.386 C 111.213 177.264,111.046 177.163,110.882 177.163 C 110.497 177.163,109.165 175.832,109.165 175.446 C 109.165 175.283,109.068 175.117,108.950 175.077 C 108.625 174.969,108.655 172.206,108.987 171.626 C 109.456 170.808,110.805 169.592,111.384 169.465 C 111.685 169.399,112.023 169.309,112.135 169.266 C 112.472 169.137,114.326 169.387,114.761 169.620 M49.565 169.995 C 49.565 170.108,49.466 170.200,49.345 170.200 C 48.797 170.200,48.541 170.819,48.541 172.145 C 48.541 173.472,48.797 174.091,49.345 174.091 C 49.466 174.091,49.565 174.183,49.565 174.296 C 49.565 174.826,52.212 174.519,52.844 173.915 C 54.526 172.308,53.339 169.790,50.898 169.790 C 50.146 169.790,49.565 169.879,49.565 169.995 M110.958 171.596 C 110.026 172.512,110.208 175.320,111.199 175.320 C 111.320 175.320,111.418 175.412,111.418 175.525 C 111.418 175.642,112.033 175.730,112.852 175.730 C 113.671 175.730,114.286 175.642,114.286 175.525 C 114.286 175.412,114.384 175.320,114.505 175.320 C 115.533 175.320,115.681 172.441,114.697 171.565 C 113.800 170.765,111.785 170.782,110.958 171.596 " stroke="none" fill="#0094e8" fill-rule="evenodd"></path><path id="path4" d="" stroke="none" fill="#00ffff" fill-rule="evenodd"></path></g></svg>