<?xml version="1.0" encoding="utf-8"?>
<!-- Generator: Adobe Illustrator 21.0.0, SVG Export Plug-In . SVG Version: 6.00 Build 0)  -->
<svg version="1.1" id="Слой_1" xmlns="http://www.w3.org/2000/svg" xmlns:xlink="http://www.w3.org/1999/xlink" x="0px" y="0px"
	 viewBox="0 0 66 66" style="enable-background:new 0 0 66 66;" xml:space="preserve">
<style type="text/css">
	.st0{clip-path:url(#SVGID_2_);fill:#010101;}
</style>
<g>
	<defs>
		<rect id="SVGID_1_" y="0" width="66" height="66"/>
	</defs>
	<clipPath id="SVGID_2_">
		<use xlink:href="#SVGID_1_"  style="overflow:visible;"/>
	</clipPath>
	<path class="st0" d="M13.3,55.5c1.6-1.1,2.6-2.8,2.6-4.8c0-3.2-2.6-5.8-5.9-5.8c-3.2,0-5.9,2.6-5.9,5.8c0,2,1,3.8,2.6,4.8
		C3,55.6,0,58.7,0,62.5V65c0,0.6,0.4,1,1,1h17.9c0.6,0,1-0.4,1-1v-2.5C19.9,58.8,16.9,55.7,13.3,55.5 M10,46.8
		c2.1,0,3.9,1.7,3.9,3.8c0,2.1-1.7,3.8-3.9,3.8s-3.9-1.7-3.9-3.8C6.1,48.5,7.9,46.8,10,46.8 M17.9,64H2v-1.5c0-2.8,2.3-5,5-5h5.8
		c2.8,0,5,2.3,5,5V64H17.9z"/>
	<path class="st0" d="M36.3,55.5c1.6-1.1,2.6-2.8,2.6-4.8c0-3.2-2.6-5.8-5.9-5.8c-3.3,0-5.9,2.6-5.9,5.8c0,2,1,3.8,2.6,4.8
		c-3.7,0.2-6.7,3.3-6.7,7V65c0,0.6,0.4,1,1,1h17.9c0.6,0,1-0.4,1-1v-2.5C42.9,58.8,40,55.7,36.3,55.5 M33.1,46.8
		c2.1,0,3.9,1.7,3.9,3.8c0,2.1-1.7,3.8-3.9,3.8c-2.1,0-3.9-1.7-3.9-3.8C29.2,48.5,30.9,46.8,33.1,46.8 M40.9,64H25.1v-1.5
		c0-2.8,2.3-5,5-5h5.8c2.8,0,5,2.3,5,5V64z"/>
	<path class="st0" d="M59.4,55.5c1.6-1.1,2.6-2.8,2.6-4.8c0-3.2-2.6-5.8-5.9-5.8s-5.9,2.6-5.9,5.8c0,2,1,3.8,2.6,4.8
		c-3.7,0.2-6.7,3.3-6.7,7V65c0,0.6,0.4,1,1,1H65c0.6,0,1-0.4,1-1v-2.5C66,58.8,63.1,55.7,59.4,55.5 M56.1,46.8
		c2.1,0,3.9,1.7,3.9,3.8c0,2.1-1.7,3.8-3.9,3.8c-2.1,0-3.9-1.7-3.9-3.8C52.3,48.5,54,46.8,56.1,46.8 M64,64H48.1v-1.5
		c0-2.8,2.3-5,5-5H59c2.8,0,5,2.3,5,5V64z"/>
	<path class="st0" d="M21.8,26.2V30c0,0.6,0.4,1,1,1h20.4c0.6,0,1-0.4,1-1v-3.7c0-3.9-3.2-7-7-7H36c2.2-1.1,3.6-3.3,3.6-5.9
		c0-3.6-2.9-6.5-6.6-6.5c-3.6,0-6.6,2.9-6.6,6.5c0,2.6,1.5,4.8,3.6,5.9h-1.3C24.9,19.2,21.8,22.3,21.8,26.2 M28.5,13.3
		c0-2.5,2-4.5,4.6-4.5c2.5,0,4.6,2,4.6,4.5s-2,4.5-4.6,4.5C30.6,17.9,28.5,15.8,28.5,13.3 M42.2,26.2V29H23.8v-2.7c0-2.8,2.3-5,5-5
		h8.4C40,21.2,42.2,23.4,42.2,26.2"/>
	<path class="st0" d="M18,7.4c0.2,0.3,0.5,0.5,0.8,0.5l5.5,0.6c0.5,0.1,1-0.3,1.1-0.9c0.1-0.5-0.3-1-0.9-1.1l-3.2-0.3
		C24.5,3.5,28.7,2,33,2c10.4,0,18.9,8.5,18.9,18.9c0,3-0.7,5.9-2.1,8.6c-0.3,0.5-0.1,1.1,0.4,1.3c0.5,0.3,1.1,0.1,1.3-0.4
		c1.5-3,2.3-6.1,2.3-9.5C53.9,9.4,44.5,0,33,0c-4.6,0-9,1.5-12.6,4.3L21,1.2c0-0.6-0.3-1.1-0.9-1.2c-0.5-0.1-1.1,0.3-1.2,0.8
		l-1.1,5.9C17.8,7,17.9,7.2,18,7.4"/>
	<path class="st0" d="M46.9,40.9l1.1-5.8c0.1-0.3,0-0.6-0.2-0.8c-0.2-0.2-0.5-0.4-0.7-0.4l-5.7-0.5c-0.6,0-1,0.4-1.1,0.9
		c-0.1,0.5,0.4,1,0.9,1.1l3.4,0.3c-3.3,2.6-7.4,4-11.7,4C22.5,39.7,14,31.2,14,20.8c0-3,0.7-6.1,2.1-8.7c0.3-0.5,0.1-1.1-0.4-1.4
		s-1.1-0.1-1.3,0.4c-1.6,3-2.4,6.3-2.4,9.7c0,11.5,9.4,20.9,20.9,20.9c4.6,0,8.9-1.5,12.5-4.2l-0.6,3c-0.1,0.5,0.3,1.1,0.8,1.2
		C46.3,41.8,46.8,41.4,46.9,40.9"/>
</g>
</svg>
