<?xml version="1.0" encoding="utf-8"?>
<!-- Generator: Adobe Illustrator 21.0.0, SVG Export Plug-In . SVG Version: 6.00 Build 0)  -->
<svg version="1.1" id="Слой_1" xmlns="http://www.w3.org/2000/svg" xmlns:xlink="http://www.w3.org/1999/xlink" x="0px" y="0px"
	 viewBox="0 0 61 60" style="enable-background:new 0 0 61 60;" xml:space="preserve">
<style type="text/css">
	.st0{clip-path:url(#SVGID_2_);}
</style>
<g>
	<defs>
		<rect id="SVGID_1_" width="61" height="60"/>
	</defs>
	<clipPath id="SVGID_2_">
		<use xlink:href="#SVGID_1_"  style="overflow:visible;"/>
	</clipPath>
	<path class="st0" d="M1,18h14c0.6,0,1-0.4,1-1v-3c0-2.7-1.8-5-4.2-5.7C12.5,7.4,13,6.3,13,5c0-2.8-2.2-5-5-5S3,2.2,3,5
		c0,1.3,0.5,2.4,1.2,3.3C1.8,9,0,11.3,0,14v3C0,17.6,0.4,18,1,18 M8,2c1.7,0,3,1.3,3,3c0,1.7-1.3,3-3,3S5,6.7,5,5C5,3.3,6.3,2,8,2
		 M2,14c0-2.2,1.8-4,4-4h4c2.2,0,4,1.8,4,4v2H2V14z"/>
	<path class="st0" d="M44,14v3c0,0.6,0.4,1,1,1h14c0.6,0,1-0.4,1-1v-3c0-2.7-1.8-5-4.2-5.7C56.5,7.4,57,6.3,57,5c0-2.8-2.2-5-5-5
		s-5,2.2-5,5c0,1.3,0.5,2.4,1.2,3.3C45.8,9,44,11.3,44,14 M52,2c1.7,0,3,1.3,3,3c0,1.7-1.3,3-3,3c-1.7,0-3-1.3-3-3
		C49,3.3,50.3,2,52,2 M46,14c0-2.2,1.8-4,4-4h4c2.2,0,4,1.8,4,4v2H46V14z"/>
	<path class="st0" d="M1,60h14c0.6,0,1-0.4,1-1v-3c0-2.7-1.8-5-4.2-5.7c0.8-0.9,1.2-2,1.2-3.3c0-2.8-2.2-5-5-5s-5,2.2-5,5
		c0,1.3,0.5,2.4,1.2,3.3C1.8,51,0,53.3,0,56v3C0,59.6,0.4,60,1,60 M8,44c1.7,0,3,1.3,3,3s-1.3,3-3,3s-3-1.3-3-3S6.3,44,8,44 M2,56
		c0-2.2,1.8-4,4-4h4c2.2,0,4,1.8,4,4v2H2V56z"/>
	<path class="st0" d="M55.8,50.3c0.8-0.9,1.2-2,1.2-3.3c0-2.8-2.2-5-5-5s-5,2.2-5,5c0,1.3,0.5,2.4,1.2,3.3C45.8,51,44,53.3,44,56v3
		c0,0.6,0.4,1,1,1h14c0.6,0,1-0.4,1-1v-3C60,53.3,58.2,51,55.8,50.3 M52,44c1.7,0,3,1.3,3,3s-1.3,3-3,3c-1.7,0-3-1.3-3-3
		S50.3,44,52,44 M58,58H46v-2c0-2.2,1.8-4,4-4h4c2.2,0,4,1.8,4,4V58z"/>
	<path class="st0" d="M25,53h10c0.6,0,1-0.4,1-1V39h3c0.6,0,1-0.4,1-1v-5c0-3.4-2.4-6.2-5.7-6.9c1-1.1,1.7-2.5,1.7-4.1
		c0-3.3-2.7-6-6-6s-6,2.7-6,6c0,1.6,0.6,3.1,1.7,4.1C22.4,26.8,20,29.6,20,33v5c0,0.6,0.4,1,1,1h3v13C24,52.6,24.4,53,25,53 M30,18
		c2.2,0,4,1.8,4,4c0,2.2-1.8,4-4,4s-4-1.8-4-4C26,19.8,27.8,18,30,18 M22,37v-4c0-2.8,2.2-5,5-5h6c2.8,0,5,2.2,5,5v4h-2v-5h-2v19h-3
		V39h-2v12h-3V38v-6h-2v5H22z"/>
	<path class="st0" d="M55.7,24.3l-1.4,1.4l3.3,3.3H44v2h13.6l-3.3,3.3l1.4,1.4l5-5c0.4-0.4,0.4-1,0-1.4L55.7,24.3z"/>
	<path class="st0" d="M5.3,35.7l1.4-1.4L3.4,31H16v-2H3.4l3.3-3.3l-1.4-1.4l-5,5c-0.4,0.4-0.4,1,0,1.4L5.3,35.7z"/>
	<path class="st0" d="M44,41h-2v1.6l-2.3-2.3l-1.4,1.4l2.3,2.3H39v2h4c0.6,0,1-0.4,1-1V41z"/>
	<path class="st0" d="M21,44h-1.6l2.3-2.3l-1.4-1.4L18,42.6V41h-2v4c0,0.6,0.4,1,1,1h4V44z"/>
	<path class="st0" d="M38.7,23.7l2.3-2.3V23h2v-4c0-0.6-0.4-1-1-1h-4v2h1.6l-2.3,2.3L38.7,23.7z"/>
	<path class="st0" d="M22,18h-4c-0.6,0-1,0.4-1,1v4h2v-1.6l2.3,2.3l1.4-1.4L20.4,20H22V18z"/>
</g>
</svg>
